STARTFONT 2.1
COMMENT
COMMENT Converted from OpenType font "ipam.ttf" by "..\otf2bdf.exe 3.0".
COMMENT
FONT -FreeType-IPAMincho-Medium-R-Normal--12-120-72-72-P-111-ISO10646-1
SIZE 12 72 72
FONTBOUNDINGBOX 14 15 -1 -3
STARTPROPERTIES 19
FOUNDRY "FreeType"
FAMILY_NAME "IPAMincho"
WEIGHT_NAME "Medium"
SLANT "R"
SETWIDTH_NAME "Normal"
ADD_STYLE_NAME ""
PIXEL_SIZE 12
POINT_SIZE 120
RESOLUTION_X 72
RESOLUTION_Y 72
SPACING "P"
AVERAGE_WIDTH 111
CHARSET_REGISTRY "ISO10646"
CHARSET_ENCODING "1"
FONT_ASCENT 10
FONT_DESCENT 1
COPYRIGHT "Copyright(c) Information-technology Promotion Agency, Japan (IPA), 2003-2011. You must accept "http://ipafont.ipa.go.jp/ipa_font_license_v1.html" to use this product."
_OTF_FONTFILE "ipam.ttf"
_OTF_PSNAME "IPAMincho"
ENDPROPERTIES
CHARS 11158
STARTCHAR 0020
ENCODING 32
SWIDTH 500 0
DWIDTH 6 0
BBX 0 0 0 0
BITMAP
ENDCHAR
STARTCHAR 0021
ENCODING 33
SWIDTH 500 0
DWIDTH 6 0
BBX 2 10 2 0
BITMAP
C0
C0
C0
C0
C0
80
80
80
00
80
ENDCHAR
STARTCHAR 0022
ENCODING 34
SWIDTH 500 0
DWIDTH 6 0
BBX 4 3 1 6
BITMAP
F0
D0
A0
ENDCHAR
STARTCHAR 0023
ENCODING 35
SWIDTH 500 0
DWIDTH 6 0
BBX 4 10 1 0
BITMAP
60
60
60
F0
A0
A0
A0
F0
A0
A0
ENDCHAR
STARTCHAR 0024
ENCODING 36
SWIDTH 500 0
DWIDTH 6 0
BBX 5 11 1 -1
BITMAP
20
70
A8
A8
60
30
28
A8
A8
70
20
ENDCHAR
STARTCHAR 0025
ENCODING 37
SWIDTH 500 0
DWIDTH 6 0
BBX 6 11 0 -1
BITMAP
6C
68
68
70
70
20
38
54
54
54
98
ENDCHAR
STARTCHAR 0026
ENCODING 38
SWIDTH 500 0
DWIDTH 6 0
BBX 6 9 0 0
BITMAP
70
50
50
20
6C
A8
98
94
68
ENDCHAR
STARTCHAR 0027
ENCODING 39
SWIDTH 500 0
DWIDTH 6 0
BBX 2 3 1 6
BITMAP
C0
C0
80
ENDCHAR
STARTCHAR 0028
ENCODING 40
SWIDTH 500 0
DWIDTH 6 0
BBX 3 11 2 -1
BITMAP
20
40
80
80
80
80
80
80
80
40
20
ENDCHAR
STARTCHAR 0029
ENCODING 41
SWIDTH 500 0
DWIDTH 6 0
BBX 3 11 1 -1
BITMAP
80
40
40
20
20
20
20
20
40
40
80
ENDCHAR
STARTCHAR 002A
ENCODING 42
SWIDTH 500 0
DWIDTH 6 0
BBX 4 5 1 2
BITMAP
40
D0
60
D0
40
ENDCHAR
STARTCHAR 002B
ENCODING 43
SWIDTH 500 0
DWIDTH 6 0
BBX 4 7 1 1
BITMAP
20
20
20
F0
20
20
20
ENDCHAR
STARTCHAR 002C
ENCODING 44
SWIDTH 500 0
DWIDTH 6 0
BBX 2 3 1 -1
BITMAP
C0
40
80
ENDCHAR
STARTCHAR 002D
ENCODING 45
SWIDTH 500 0
DWIDTH 6 0
BBX 4 1 1 4
BITMAP
F0
ENDCHAR
STARTCHAR 002E
ENCODING 46
SWIDTH 500 0
DWIDTH 6 0
BBX 2 2 1 0
BITMAP
C0
C0
ENDCHAR
STARTCHAR 002F
ENCODING 47
SWIDTH 500 0
DWIDTH 6 0
BBX 5 11 0 -1
BITMAP
08
08
10
10
10
20
20
40
40
40
80
ENDCHAR
STARTCHAR 0030
ENCODING 48
SWIDTH 500 0
DWIDTH 6 0
BBX 4 9 1 0
BITMAP
60
90
90
90
90
90
90
90
60
ENDCHAR
STARTCHAR 0031
ENCODING 49
SWIDTH 500 0
DWIDTH 6 0
BBX 2 9 2 1
BITMAP
40
C0
40
40
40
40
40
40
40
ENDCHAR
STARTCHAR 0032
ENCODING 50
SWIDTH 500 0
DWIDTH 6 0
BBX 4 8 1 1
BITMAP
60
90
90
20
20
40
90
F0
ENDCHAR
STARTCHAR 0033
ENCODING 51
SWIDTH 500 0
DWIDTH 6 0
BBX 4 9 1 0
BITMAP
E0
90
10
10
60
30
10
90
E0
ENDCHAR
STARTCHAR 0034
ENCODING 52
SWIDTH 500 0
DWIDTH 6 0
BBX 6 8 0 1
BITMAP
10
30
50
50
90
90
FC
10
ENDCHAR
STARTCHAR 0035
ENCODING 53
SWIDTH 500 0
DWIDTH 6 0
BBX 4 9 1 0
BITMAP
F0
80
80
E0
90
10
90
90
60
ENDCHAR
STARTCHAR 0036
ENCODING 54
SWIDTH 500 0
DWIDTH 6 0
BBX 4 9 1 0
BITMAP
70
90
80
E0
90
90
90
90
60
ENDCHAR
STARTCHAR 0037
ENCODING 55
SWIDTH 500 0
DWIDTH 6 0
BBX 4 9 1 0
BITMAP
F0
10
20
20
40
40
40
40
40
ENDCHAR
STARTCHAR 0038
ENCODING 56
SWIDTH 500 0
DWIDTH 6 0
BBX 4 9 1 0
BITMAP
60
90
90
A0
60
90
90
90
60
ENDCHAR
STARTCHAR 0039
ENCODING 57
SWIDTH 500 0
DWIDTH 6 0
BBX 4 9 1 0
BITMAP
60
90
90
90
70
10
10
A0
E0
ENDCHAR
STARTCHAR 003A
ENCODING 58
SWIDTH 500 0
DWIDTH 6 0
BBX 2 6 2 0
BITMAP
C0
C0
00
00
C0
C0
ENDCHAR
STARTCHAR 003B
ENCODING 59
SWIDTH 500 0
DWIDTH 6 0
BBX 2 7 2 -2
BITMAP
C0
C0
00
00
C0
C0
80
ENDCHAR
STARTCHAR 003C
ENCODING 60
SWIDTH 500 0
DWIDTH 6 0
BBX 4 7 1 1
BITMAP
10
20
40
80
40
20
10
ENDCHAR
STARTCHAR 003D
ENCODING 61
SWIDTH 500 0
DWIDTH 6 0
BBX 4 3 1 3
BITMAP
F0
00
F0
ENDCHAR
STARTCHAR 003E
ENCODING 62
SWIDTH 500 0
DWIDTH 6 0
BBX 4 7 1 1
BITMAP
80
40
20
10
20
40
80
ENDCHAR
STARTCHAR 003F
ENCODING 63
SWIDTH 500 0
DWIDTH 6 0
BBX 5 9 1 0
BITMAP
70
88
88
10
20
20
20
00
40
ENDCHAR
STARTCHAR 0040
ENCODING 64
SWIDTH 500 0
DWIDTH 6 0
BBX 6 9 0 0
BITMAP
38
4C
94
B4
B4
B4
B8
44
38
ENDCHAR
STARTCHAR 0041
ENCODING 65
SWIDTH 500 0
DWIDTH 6 0
BBX 5 8 0 2
BITMAP
20
30
30
50
50
78
48
88
ENDCHAR
STARTCHAR 0042
ENCODING 66
SWIDTH 500 0
DWIDTH 6 0
BBX 6 8 0 1
BITMAP
F0
48
48
48
70
4C
44
48
ENDCHAR
STARTCHAR 0043
ENCODING 67
SWIDTH 500 0
DWIDTH 6 0
BBX 4 9 1 0
BITMAP
70
90
80
80
80
80
90
D0
60
ENDCHAR
STARTCHAR 0044
ENCODING 68
SWIDTH 500 0
DWIDTH 6 0
BBX 6 8 0 1
BITMAP
F8
48
44
44
44
44
48
50
ENDCHAR
STARTCHAR 0045
ENCODING 69
SWIDTH 500 0
DWIDTH 6 0
BBX 5 8 0 1
BITMAP
F8
48
48
50
70
50
48
F8
ENDCHAR
STARTCHAR 0046
ENCODING 70
SWIDTH 500 0
DWIDTH 6 0
BBX 5 8 0 1
BITMAP
F8
48
48
50
70
50
40
40
ENDCHAR
STARTCHAR 0047
ENCODING 71
SWIDTH 500 0
DWIDTH 6 0
BBX 6 9 0 0
BITMAP
78
48
80
80
9C
88
88
48
70
ENDCHAR
STARTCHAR 0048
ENCODING 72
SWIDTH 500 0
DWIDTH 6 0
BBX 6 8 0 1
BITMAP
FC
48
48
48
78
48
48
48
ENDCHAR
STARTCHAR 0049
ENCODING 73
SWIDTH 500 0
DWIDTH 6 0
BBX 3 8 2 1
BITMAP
E0
40
40
40
40
40
40
40
ENDCHAR
STARTCHAR 004A
ENCODING 74
SWIDTH 500 0
DWIDTH 6 0
BBX 5 9 1 0
BITMAP
38
10
10
10
10
10
90
90
60
ENDCHAR
STARTCHAR 004B
ENCODING 75
SWIDTH 500 0
DWIDTH 6 0
BBX 6 8 0 1
BITMAP
E8
50
50
50
70
50
48
44
ENDCHAR
STARTCHAR 004C
ENCODING 76
SWIDTH 500 0
DWIDTH 6 0
BBX 5 8 0 1
BITMAP
E0
40
40
40
40
48
48
F8
ENDCHAR
STARTCHAR 004D
ENCODING 77
SWIDTH 500 0
DWIDTH 6 0
BBX 6 8 0 1
BITMAP
CC
48
68
78
68
68
68
68
ENDCHAR
STARTCHAR 004E
ENCODING 78
SWIDTH 500 0
DWIDTH 6 0
BBX 6 9 0 0
BITMAP
CC
68
68
68
58
58
48
48
80
ENDCHAR
STARTCHAR 004F
ENCODING 79
SWIDTH 500 0
DWIDTH 6 0
BBX 4 9 1 0
BITMAP
60
D0
90
90
90
90
90
90
60
ENDCHAR
STARTCHAR 0050
ENCODING 80
SWIDTH 500 0
DWIDTH 6 0
BBX 6 8 0 1
BITMAP
F8
44
44
4C
78
40
40
40
ENDCHAR
STARTCHAR 0051
ENCODING 81
SWIDTH 500 0
DWIDTH 6 0
BBX 5 9 1 0
BITMAP
60
90
90
90
90
90
F0
D0
78
ENDCHAR
STARTCHAR 0052
ENCODING 82
SWIDTH 500 0
DWIDTH 6 0
BBX 5 8 0 1
BITMAP
F0
48
48
48
70
50
48
48
ENDCHAR
STARTCHAR 0053
ENCODING 83
SWIDTH 500 0
DWIDTH 6 0
BBX 4 9 1 0
BITMAP
70
90
80
40
20
10
10
90
60
ENDCHAR
STARTCHAR 0054
ENCODING 84
SWIDTH 500 0
DWIDTH 6 0
BBX 4 8 1 1
BITMAP
F0
B0
30
20
20
20
20
20
ENDCHAR
STARTCHAR 0055
ENCODING 85
SWIDTH 500 0
DWIDTH 6 0
BBX 6 9 0 0
BITMAP
CC
48
48
48
48
48
48
48
30
ENDCHAR
STARTCHAR 0056
ENCODING 86
SWIDTH 500 0
DWIDTH 6 0
BBX 6 9 0 0
BITMAP
CC
48
48
30
30
30
30
20
20
ENDCHAR
STARTCHAR 0057
ENCODING 87
SWIDTH 500 0
DWIDTH 6 0
BBX 6 9 0 0
BITMAP
FC
A8
A8
B8
78
68
48
48
50
ENDCHAR
STARTCHAR 0058
ENCODING 88
SWIDTH 500 0
DWIDTH 6 0
BBX 6 8 0 1
BITMAP
EC
50
30
20
30
50
88
88
ENDCHAR
STARTCHAR 0059
ENCODING 89
SWIDTH 500 0
DWIDTH 6 0
BBX 5 8 1 1
BITMAP
C8
90
50
50
20
20
20
20
ENDCHAR
STARTCHAR 005A
ENCODING 90
SWIDTH 500 0
DWIDTH 6 0
BBX 4 8 1 1
BITMAP
F0
10
20
20
40
90
90
F0
ENDCHAR
STARTCHAR 005B
ENCODING 91
SWIDTH 500 0
DWIDTH 6 0
BBX 3 11 2 -1
BITMAP
E0
80
80
80
80
80
80
80
80
80
E0
ENDCHAR
STARTCHAR 005C
ENCODING 92
SWIDTH 500 0
DWIDTH 6 0
BBX 4 8 1 1
BITMAP
D0
90
50
F0
20
F0
20
20
ENDCHAR
STARTCHAR 005D
ENCODING 93
SWIDTH 500 0
DWIDTH 6 0
BBX 3 11 1 -1
BITMAP
E0
20
20
20
20
20
20
20
20
20
E0
ENDCHAR
STARTCHAR 005E
ENCODING 94
SWIDTH 500 0
DWIDTH 6 0
BBX 2 1 2 8
BITMAP
C0
ENDCHAR
STARTCHAR 005F
ENCODING 95
SWIDTH 500 0
DWIDTH 6 0
BBX 0 0 0 -1
BITMAP
ENDCHAR
STARTCHAR 0060
ENCODING 96
SWIDTH 500 0
DWIDTH 6 0
BBX 3 1 1 8
BITMAP
E0
ENDCHAR
STARTCHAR 0061
ENCODING 97
SWIDTH 500 0
DWIDTH 6 0
BBX 5 6 1 0
BITMAP
F0
90
70
90
90
F8
ENDCHAR
STARTCHAR 0062
ENCODING 98
SWIDTH 500 0
DWIDTH 6 0
BBX 5 9 0 0
BITMAP
C0
40
40
70
48
48
48
48
70
ENDCHAR
STARTCHAR 0063
ENCODING 99
SWIDTH 500 0
DWIDTH 6 0
BBX 4 6 1 0
BITMAP
70
90
80
80
90
60
ENDCHAR
STARTCHAR 0064
ENCODING 100
SWIDTH 500 0
DWIDTH 6 0
BBX 5 9 1 0
BITMAP
30
10
10
F0
90
90
90
90
68
ENDCHAR
STARTCHAR 0065
ENCODING 101
SWIDTH 500 0
DWIDTH 6 0
BBX 4 6 1 0
BITMAP
60
90
F0
80
90
60
ENDCHAR
STARTCHAR 0066
ENCODING 102
SWIDTH 500 0
DWIDTH 6 0
BBX 4 8 1 1
BITMAP
70
50
40
E0
40
40
40
40
ENDCHAR
STARTCHAR 0067
ENCODING 103
SWIDTH 500 0
DWIDTH 6 0
BBX 5 7 1 -1
BITMAP
F8
90
E0
80
F0
90
F0
ENDCHAR
STARTCHAR 0068
ENCODING 104
SWIDTH 500 0
DWIDTH 6 0
BBX 5 8 0 1
BITMAP
C0
40
40
78
48
48
48
48
ENDCHAR
STARTCHAR 0069
ENCODING 105
SWIDTH 500 0
DWIDTH 6 0
BBX 2 8 2 1
BITMAP
40
00
40
C0
40
40
40
40
ENDCHAR
STARTCHAR 006A
ENCODING 106
SWIDTH 500 0
DWIDTH 6 0
BBX 3 10 1 -1
BITMAP
20
00
20
60
20
20
20
20
20
E0
ENDCHAR
STARTCHAR 006B
ENCODING 107
SWIDTH 500 0
DWIDTH 6 0
BBX 5 8 0 1
BITMAP
C0
40
40
58
70
50
48
48
ENDCHAR
STARTCHAR 006C
ENCODING 108
SWIDTH 500 0
DWIDTH 6 0
BBX 2 9 2 1
BITMAP
40
C0
40
40
40
40
40
40
40
ENDCHAR
STARTCHAR 006D
ENCODING 109
SWIDTH 500 0
DWIDTH 6 0
BBX 5 5 0 2
BITMAP
F8
58
58
58
58
ENDCHAR
STARTCHAR 006E
ENCODING 110
SWIDTH 500 0
DWIDTH 6 0
BBX 5 5 0 2
BITMAP
F8
48
48
48
48
ENDCHAR
STARTCHAR 006F
ENCODING 111
SWIDTH 500 0
DWIDTH 6 0
BBX 4 6 1 0
BITMAP
60
90
90
90
90
60
ENDCHAR
STARTCHAR 0070
ENCODING 112
SWIDTH 500 0
DWIDTH 6 0
BBX 5 7 0 0
BITMAP
F0
48
48
48
70
40
40
ENDCHAR
STARTCHAR 0071
ENCODING 113
SWIDTH 500 0
DWIDTH 6 0
BBX 4 7 1 0
BITMAP
F0
90
90
90
70
10
10
ENDCHAR
STARTCHAR 0072
ENCODING 114
SWIDTH 500 0
DWIDTH 6 0
BBX 5 5 1 2
BITMAP
D8
60
40
40
40
ENDCHAR
STARTCHAR 0073
ENCODING 115
SWIDTH 500 0
DWIDTH 6 0
BBX 4 6 1 0
BITMAP
F0
90
80
60
90
70
ENDCHAR
STARTCHAR 0074
ENCODING 116
SWIDTH 500 0
DWIDTH 6 0
BBX 4 8 1 0
BITMAP
40
40
F0
40
40
40
40
70
ENDCHAR
STARTCHAR 0075
ENCODING 117
SWIDTH 500 0
DWIDTH 6 0
BBX 6 6 0 1
BITMAP
D8
48
48
48
48
34
ENDCHAR
STARTCHAR 0076
ENCODING 118
SWIDTH 500 0
DWIDTH 6 0
BBX 6 6 0 0
BITMAP
EC
48
30
30
30
20
ENDCHAR
STARTCHAR 0077
ENCODING 119
SWIDTH 500 0
DWIDTH 6 0
BBX 6 6 0 0
BITMAP
FC
A8
58
78
50
50
ENDCHAR
STARTCHAR 0078
ENCODING 120
SWIDTH 500 0
DWIDTH 6 0
BBX 4 5 1 1
BITMAP
F0
60
20
E0
90
ENDCHAR
STARTCHAR 0079
ENCODING 121
SWIDTH 500 0
DWIDTH 6 0
BBX 6 7 0 -1
BITMAP
EC
48
30
30
10
20
60
ENDCHAR
STARTCHAR 007A
ENCODING 122
SWIDTH 500 0
DWIDTH 6 0
BBX 4 5 1 1
BITMAP
F0
20
40
90
F0
ENDCHAR
STARTCHAR 007B
ENCODING 123
SWIDTH 500 0
DWIDTH 6 0
BBX 3 11 2 0
BITMAP
20
40
40
40
40
80
40
40
40
40
20
ENDCHAR
STARTCHAR 007C
ENCODING 124
SWIDTH 500 0
DWIDTH 6 0
BBX 1 12 3 -1
BITMAP
80
80
80
80
80
80
80
80
80
80
80
80
ENDCHAR
STARTCHAR 007D
ENCODING 125
SWIDTH 500 0
DWIDTH 6 0
BBX 3 11 1 0
BITMAP
80
40
40
40
40
20
40
40
40
40
80
ENDCHAR
STARTCHAR 007E
ENCODING 126
SWIDTH 500 0
DWIDTH 6 0
BBX 4 1 1 7
BITMAP
F0
ENDCHAR
STARTCHAR 00A0
ENCODING 160
SWIDTH 500 0
DWIDTH 6 0
BBX 0 0 0 0
BITMAP
ENDCHAR
STARTCHAR 00A1
ENCODING 161
SWIDTH 500 0
DWIDTH 6 0
BBX 2 9 2 0
BITMAP
80
00
80
80
C0
C0
C0
C0
C0
ENDCHAR
STARTCHAR 00A2
ENCODING 162
SWIDTH 1000 0
DWIDTH 12 0
BBX 6 9 3 0
BITMAP
18
70
D8
A0
A0
A0
6C
38
40
ENDCHAR
STARTCHAR 00A3
ENCODING 163
SWIDTH 1000 0
DWIDTH 12 0
BBX 8 9 2 0
BITMAP
1C
22
20
20
7C
10
10
F1
FE
ENDCHAR
STARTCHAR 00A4
ENCODING 164
SWIDTH 500 0
DWIDTH 6 0
BBX 4 4 1 3
BITMAP
F0
90
F0
90
ENDCHAR
STARTCHAR 00A5
ENCODING 165
SWIDTH 1000 0
DWIDTH 12 0
BBX 10 8 1 1
BITMAP
F1C0
3100
1200
7F80
0C00
7F80
0400
0400
ENDCHAR
STARTCHAR 00A6
ENCODING 166
SWIDTH 500 0
DWIDTH 6 0
BBX 1 11 3 -1
BITMAP
80
80
80
80
80
00
80
80
80
80
80
ENDCHAR
STARTCHAR 00A7
ENCODING 167
SWIDTH 1000 0
DWIDTH 12 0
BBX 6 11 3 -1
BITMAP
38
48
40
20
58
44
24
18
C4
C4
78
ENDCHAR
STARTCHAR 00A8
ENCODING 168
SWIDTH 1000 0
DWIDTH 12 0
BBX 4 1 4 7
BITMAP
90
ENDCHAR
STARTCHAR 00A9
ENCODING 169
SWIDTH 500 0
DWIDTH 6 0
BBX 5 5 0 2
BITMAP
70
C8
C8
F8
78
ENDCHAR
STARTCHAR 00AA
ENCODING 170
SWIDTH 500 0
DWIDTH 6 0
BBX 3 5 1 4
BITMAP
C0
40
C0
E0
E0
ENDCHAR
STARTCHAR 00AB
ENCODING 171
SWIDTH 500 0
DWIDTH 6 0
BBX 4 5 1 1
BITMAP
30
60
C0
60
30
ENDCHAR
STARTCHAR 00AC
ENCODING 172
SWIDTH 1000 0
DWIDTH 12 0
BBX 10 5 1 2
BITMAP
FFC0
0040
0040
0040
0040
ENDCHAR
STARTCHAR 00AD
ENCODING 173
SWIDTH 500 0
DWIDTH 6 0
BBX 4 1 1 4
BITMAP
F0
ENDCHAR
STARTCHAR 00AE
ENCODING 174
SWIDTH 500 0
DWIDTH 6 0
BBX 5 5 1 2
BITMAP
70
D8
F8
D8
70
ENDCHAR
STARTCHAR 00AF
ENCODING 175
SWIDTH 500 0
DWIDTH 6 0
BBX 4 1 1 8
BITMAP
F0
ENDCHAR
STARTCHAR 00B0
ENCODING 176
SWIDTH 1000 0
DWIDTH 12 0
BBX 2 2 1 8
BITMAP
C0
C0
ENDCHAR
STARTCHAR 00B1
ENCODING 177
SWIDTH 1000 0
DWIDTH 12 0
BBX 8 8 2 1
BITMAP
08
08
08
FF
08
08
08
FF
ENDCHAR
STARTCHAR 00B2
ENCODING 178
SWIDTH 500 0
DWIDTH 6 0
BBX 3 5 0 5
BITMAP
E0
A0
40
A0
E0
ENDCHAR
STARTCHAR 00B3
ENCODING 179
SWIDTH 500 0
DWIDTH 6 0
BBX 2 4 1 6
BITMAP
C0
40
40
C0
ENDCHAR
STARTCHAR 00B4
ENCODING 180
SWIDTH 1000 0
DWIDTH 12 0
BBX 3 1 5 8
BITMAP
E0
ENDCHAR
STARTCHAR 00B6
ENCODING 182
SWIDTH 1000 0
DWIDTH 12 0
BBX 5 11 3 -1
BITMAP
78
E8
E8
E8
68
28
28
28
28
28
28
ENDCHAR
STARTCHAR 00B7
ENCODING 183
SWIDTH 500 0
DWIDTH 6 0
BBX 2 2 2 4
BITMAP
C0
C0
ENDCHAR
STARTCHAR 00B8
ENCODING 184
SWIDTH 500 0
DWIDTH 6 0
BBX 2 3 2 -1
BITMAP
80
C0
C0
ENDCHAR
STARTCHAR 00B9
ENCODING 185
SWIDTH 500 0
DWIDTH 6 0
BBX 2 4 1 7
BITMAP
C0
40
40
40
ENDCHAR
STARTCHAR 00BA
ENCODING 186
SWIDTH 500 0
DWIDTH 6 0
BBX 3 5 1 4
BITMAP
E0
A0
A0
40
E0
ENDCHAR
STARTCHAR 00BB
ENCODING 187
SWIDTH 500 0
DWIDTH 6 0
BBX 3 5 1 1
BITMAP
C0
A0
60
A0
C0
ENDCHAR
STARTCHAR 00BC
ENCODING 188
SWIDTH 500 0
DWIDTH 6 0
BBX 6 12 0 -1
BITMAP
CC
48
50
50
50
A8
38
28
7C
88
88
14
ENDCHAR
STARTCHAR 00BD
ENCODING 189
SWIDTH 500 0
DWIDTH 6 0
BBX 6 11 0 -1
BITMAP
C4
48
48
50
50
9C
34
44
48
94
9C
ENDCHAR
STARTCHAR 00BE
ENCODING 190
SWIDTH 500 0
DWIDTH 6 0
BBX 6 12 0 -1
BITMAP
CC
48
48
30
F0
28
38
28
7C
88
88
14
ENDCHAR
STARTCHAR 00BF
ENCODING 191
SWIDTH 500 0
DWIDTH 6 0
BBX 5 10 1 -1
BITMAP
40
00
20
20
20
40
80
88
88
70
ENDCHAR
STARTCHAR 00C0
ENCODING 192
SWIDTH 500 0
DWIDTH 6 0
BBX 5 9 0 1
BITMAP
60
30
30
30
50
50
78
48
88
ENDCHAR
STARTCHAR 00C1
ENCODING 193
SWIDTH 500 0
DWIDTH 6 0
BBX 5 9 0 1
BITMAP
18
20
30
30
50
50
78
48
88
ENDCHAR
STARTCHAR 00C2
ENCODING 194
SWIDTH 500 0
DWIDTH 6 0
BBX 5 9 0 1
BITMAP
30
20
30
30
50
50
78
48
88
ENDCHAR
STARTCHAR 00C3
ENCODING 195
SWIDTH 500 0
DWIDTH 6 0
BBX 5 9 0 2
BITMAP
78
20
30
30
50
50
78
48
88
ENDCHAR
STARTCHAR 00C4
ENCODING 196
SWIDTH 500 0
DWIDTH 6 0
BBX 5 9 0 1
BITMAP
48
20
30
30
50
50
78
48
88
ENDCHAR
STARTCHAR 00C5
ENCODING 197
SWIDTH 500 0
DWIDTH 6 0
BBX 5 10 0 1
BITMAP
30
30
20
30
30
50
50
78
48
88
ENDCHAR
STARTCHAR 00C6
ENCODING 198
SWIDTH 500 0
DWIDTH 6 0
BBX 6 8 0 1
BITMAP
18
38
30
58
58
78
50
94
ENDCHAR
STARTCHAR 00C7
ENCODING 199
SWIDTH 500 0
DWIDTH 6 0
BBX 4 10 1 -1
BITMAP
70
90
80
80
80
80
90
50
60
60
ENDCHAR
STARTCHAR 00C8
ENCODING 200
SWIDTH 500 0
DWIDTH 6 0
BBX 5 9 0 1
BITMAP
60
F8
48
48
50
70
50
48
F8
ENDCHAR
STARTCHAR 00C9
ENCODING 201
SWIDTH 500 0
DWIDTH 6 0
BBX 5 9 0 1
BITMAP
30
F8
48
48
50
70
50
48
F8
ENDCHAR
STARTCHAR 00CA
ENCODING 202
SWIDTH 500 0
DWIDTH 6 0
BBX 5 9 0 1
BITMAP
30
F8
48
48
50
70
50
48
F8
ENDCHAR
STARTCHAR 00CB
ENCODING 203
SWIDTH 500 0
DWIDTH 6 0
BBX 5 9 0 1
BITMAP
50
F8
48
48
50
70
50
48
F8
ENDCHAR
STARTCHAR 00CC
ENCODING 204
SWIDTH 500 0
DWIDTH 6 0
BBX 3 9 2 1
BITMAP
C0
E0
40
40
40
40
40
40
40
ENDCHAR
STARTCHAR 00CD
ENCODING 205
SWIDTH 500 0
DWIDTH 6 0
BBX 3 9 2 1
BITMAP
60
E0
40
40
40
40
40
40
40
ENDCHAR
STARTCHAR 00CE
ENCODING 206
SWIDTH 500 0
DWIDTH 6 0
BBX 3 9 2 1
BITMAP
E0
40
40
40
40
40
40
40
40
ENDCHAR
STARTCHAR 00CF
ENCODING 207
SWIDTH 500 0
DWIDTH 6 0
BBX 3 9 2 1
BITMAP
A0
40
40
40
40
40
40
40
40
ENDCHAR
STARTCHAR 00D0
ENCODING 208
SWIDTH 500 0
DWIDTH 6 0
BBX 5 8 0 1
BITMAP
F0
48
48
48
E8
48
48
50
ENDCHAR
STARTCHAR 00D1
ENCODING 209
SWIDTH 500 0
DWIDTH 6 0
BBX 6 10 0 1
BITMAP
30
CC
68
68
68
58
58
48
48
80
ENDCHAR
STARTCHAR 00D2
ENCODING 210
SWIDTH 500 0
DWIDTH 6 0
BBX 4 10 1 0
BITMAP
C0
60
D0
90
90
90
90
90
90
60
ENDCHAR
STARTCHAR 00D3
ENCODING 211
SWIDTH 500 0
DWIDTH 6 0
BBX 4 10 1 0
BITMAP
30
60
D0
90
90
90
90
90
90
60
ENDCHAR
STARTCHAR 00D4
ENCODING 212
SWIDTH 500 0
DWIDTH 6 0
BBX 4 10 1 0
BITMAP
60
60
D0
90
90
90
90
90
90
60
ENDCHAR
STARTCHAR 00D5
ENCODING 213
SWIDTH 500 0
DWIDTH 6 0
BBX 4 10 1 1
BITMAP
F0
60
D0
90
90
90
90
90
90
60
ENDCHAR
STARTCHAR 00D6
ENCODING 214
SWIDTH 500 0
DWIDTH 6 0
BBX 4 10 1 0
BITMAP
90
60
D0
90
90
90
90
90
90
60
ENDCHAR
STARTCHAR 00D7
ENCODING 215
SWIDTH 1000 0
DWIDTH 12 0
BBX 8 8 2 1
BITMAP
83
44
28
10
28
44
82
01
ENDCHAR
STARTCHAR 00D8
ENCODING 216
SWIDTH 500 0
DWIDTH 6 0
BBX 5 10 0 0
BITMAP
08
38
68
48
58
68
68
48
58
B0
ENDCHAR
STARTCHAR 00D9
ENCODING 217
SWIDTH 500 0
DWIDTH 6 0
BBX 6 10 0 0
BITMAP
60
CC
48
48
48
48
48
48
48
30
ENDCHAR
STARTCHAR 00DA
ENCODING 218
SWIDTH 500 0
DWIDTH 6 0
BBX 6 10 0 0
BITMAP
30
CC
48
48
48
48
48
48
48
30
ENDCHAR
STARTCHAR 00DB
ENCODING 219
SWIDTH 500 0
DWIDTH 6 0
BBX 6 10 0 0
BITMAP
20
DC
48
48
48
48
48
48
48
30
ENDCHAR
STARTCHAR 00DC
ENCODING 220
SWIDTH 500 0
DWIDTH 6 0
BBX 6 10 0 0
BITMAP
30
CC
48
48
48
48
48
48
48
30
ENDCHAR
STARTCHAR 00DD
ENCODING 221
SWIDTH 500 0
DWIDTH 6 0
BBX 5 9 1 1
BITMAP
30
C8
90
50
50
20
20
20
20
ENDCHAR
STARTCHAR 00DE
ENCODING 222
SWIDTH 500 0
DWIDTH 6 0
BBX 6 8 0 1
BITMAP
E0
40
78
44
44
44
78
40
ENDCHAR
STARTCHAR 00DF
ENCODING 223
SWIDTH 500 0
DWIDTH 6 0
BBX 5 9 0 0
BITMAP
70
50
50
60
58
48
48
68
B0
ENDCHAR
STARTCHAR 00E0
ENCODING 224
SWIDTH 500 0
DWIDTH 6 0
BBX 5 8 1 0
BITMAP
C0
20
F0
90
70
90
90
F8
ENDCHAR
STARTCHAR 00E1
ENCODING 225
SWIDTH 500 0
DWIDTH 6 0
BBX 5 8 1 0
BITMAP
30
40
F0
90
70
90
90
F8
ENDCHAR
STARTCHAR 00E2
ENCODING 226
SWIDTH 500 0
DWIDTH 6 0
BBX 5 8 1 0
BITMAP
60
10
F0
90
70
90
90
F8
ENDCHAR
STARTCHAR 00E3
ENCODING 227
SWIDTH 500 0
DWIDTH 6 0
BBX 5 8 1 0
BITMAP
70
80
F0
90
70
90
90
F8
ENDCHAR
STARTCHAR 00E4
ENCODING 228
SWIDTH 500 0
DWIDTH 6 0
BBX 5 8 1 0
BITMAP
90
00
F0
90
70
90
90
F8
ENDCHAR
STARTCHAR 00E5
ENCODING 229
SWIDTH 500 0
DWIDTH 6 0
BBX 5 8 1 1
BITMAP
60
00
F0
90
70
90
90
F8
ENDCHAR
STARTCHAR 00E6
ENCODING 230
SWIDTH 500 0
DWIDTH 6 0
BBX 5 6 1 0
BITMAP
F0
30
78
A0
B8
F0
ENDCHAR
STARTCHAR 00E7
ENCODING 231
SWIDTH 500 0
DWIDTH 6 0
BBX 4 7 1 -1
BITMAP
70
90
80
80
90
60
60
ENDCHAR
STARTCHAR 00E8
ENCODING 232
SWIDTH 500 0
DWIDTH 6 0
BBX 4 8 1 0
BITMAP
C0
20
60
90
F0
80
90
60
ENDCHAR
STARTCHAR 00E9
ENCODING 233
SWIDTH 500 0
DWIDTH 6 0
BBX 4 8 1 0
BITMAP
30
40
60
90
F0
80
90
60
ENDCHAR
STARTCHAR 00EA
ENCODING 234
SWIDTH 500 0
DWIDTH 6 0
BBX 4 8 1 0
BITMAP
60
00
60
90
F0
80
90
60
ENDCHAR
STARTCHAR 00EB
ENCODING 235
SWIDTH 500 0
DWIDTH 6 0
BBX 4 8 1 0
BITMAP
90
00
60
90
F0
80
90
60
ENDCHAR
STARTCHAR 00EC
ENCODING 236
SWIDTH 500 0
DWIDTH 6 0
BBX 2 7 2 1
BITMAP
C0
40
C0
40
40
40
40
ENDCHAR
STARTCHAR 00ED
ENCODING 237
SWIDTH 500 0
DWIDTH 6 0
BBX 3 7 2 1
BITMAP
60
C0
C0
40
40
40
40
ENDCHAR
STARTCHAR 00EE
ENCODING 238
SWIDTH 500 0
DWIDTH 6 0
BBX 3 7 2 1
BITMAP
C0
60
C0
40
40
40
40
ENDCHAR
STARTCHAR 00EF
ENCODING 239
SWIDTH 500 0
DWIDTH 6 0
BBX 3 8 2 1
BITMAP
A0
00
C0
40
40
40
40
40
ENDCHAR
STARTCHAR 00F0
ENCODING 240
SWIDTH 500 0
DWIDTH 6 0
BBX 4 9 1 1
BITMAP
A0
E0
20
70
90
90
90
90
60
ENDCHAR
STARTCHAR 00F1
ENCODING 241
SWIDTH 500 0
DWIDTH 6 0
BBX 5 7 0 1
BITMAP
30
40
F8
48
48
48
48
ENDCHAR
STARTCHAR 00F2
ENCODING 242
SWIDTH 500 0
DWIDTH 6 0
BBX 4 8 1 0
BITMAP
C0
20
60
90
90
90
90
60
ENDCHAR
STARTCHAR 00F3
ENCODING 243
SWIDTH 500 0
DWIDTH 6 0
BBX 4 8 1 0
BITMAP
30
40
60
90
90
90
90
60
ENDCHAR
STARTCHAR 00F4
ENCODING 244
SWIDTH 500 0
DWIDTH 6 0
BBX 4 8 1 0
BITMAP
60
00
60
90
90
90
90
60
ENDCHAR
STARTCHAR 00F5
ENCODING 245
SWIDTH 500 0
DWIDTH 6 0
BBX 4 8 1 0
BITMAP
70
80
60
90
90
90
90
60
ENDCHAR
STARTCHAR 00F6
ENCODING 246
SWIDTH 500 0
DWIDTH 6 0
BBX 4 8 1 0
BITMAP
90
00
60
90
90
90
90
60
ENDCHAR
STARTCHAR 00F7
ENCODING 247
SWIDTH 1000 0
DWIDTH 12 0
BBX 8 6 2 1
BITMAP
10
00
FF
00
00
10
ENDCHAR
STARTCHAR 00F8
ENCODING 248
SWIDTH 500 0
DWIDTH 6 0
BBX 4 7 1 0
BITMAP
10
70
90
F0
D0
90
E0
ENDCHAR
STARTCHAR 00F9
ENCODING 249
SWIDTH 500 0
DWIDTH 6 0
BBX 6 8 0 0
BITMAP
60
10
D8
48
48
48
48
3C
ENDCHAR
STARTCHAR 00FA
ENCODING 250
SWIDTH 500 0
DWIDTH 6 0
BBX 6 8 0 0
BITMAP
18
20
D8
48
48
48
48
3C
ENDCHAR
STARTCHAR 00FB
ENCODING 251
SWIDTH 500 0
DWIDTH 6 0
BBX 6 8 0 0
BITMAP
30
00
D8
48
48
48
48
3C
ENDCHAR
STARTCHAR 00FC
ENCODING 252
SWIDTH 500 0
DWIDTH 6 0
BBX 6 8 0 0
BITMAP
48
00
D8
48
48
48
48
3C
ENDCHAR
STARTCHAR 00FD
ENCODING 253
SWIDTH 500 0
DWIDTH 6 0
BBX 6 9 0 -1
BITMAP
18
20
EC
48
30
30
10
20
60
ENDCHAR
STARTCHAR 00FE
ENCODING 254
SWIDTH 500 0
DWIDTH 6 0
BBX 5 10 0 -1
BITMAP
C0
40
40
70
48
48
48
48
70
40
ENDCHAR
STARTCHAR 00FF
ENCODING 255
SWIDTH 500 0
DWIDTH 6 0
BBX 6 9 0 -1
BITMAP
28
00
EC
48
30
30
10
20
60
ENDCHAR
STARTCHAR 0100
ENCODING 256
SWIDTH 500 0
DWIDTH 6 0
BBX 6 9 0 1
BITMAP
78
20
30
30
50
48
78
88
84
ENDCHAR
STARTCHAR 0101
ENCODING 257
SWIDTH 500 0
DWIDTH 6 0
BBX 6 8 0 0
BITMAP
78
00
70
48
38
C8
88
FC
ENDCHAR
STARTCHAR 0102
ENCODING 258
SWIDTH 500 0
DWIDTH 6 0
BBX 5 9 0 1
BITMAP
30
20
20
30
50
50
78
48
88
ENDCHAR
STARTCHAR 0103
ENCODING 259
SWIDTH 500 0
DWIDTH 6 0
BBX 5 8 1 0
BITMAP
70
00
F0
90
70
90
90
F8
ENDCHAR
STARTCHAR 0104
ENCODING 260
SWIDTH 500 0
DWIDTH 6 0
BBX 6 10 0 0
BITMAP
20
30
30
50
50
78
48
88
4C
0C
ENDCHAR
STARTCHAR 0105
ENCODING 261
SWIDTH 500 0
DWIDTH 6 0
BBX 5 7 1 -1
BITMAP
F0
90
70
90
90
F8
38
ENDCHAR
STARTCHAR 0106
ENCODING 262
SWIDTH 500 0
DWIDTH 6 0
BBX 4 10 1 0
BITMAP
70
70
90
80
80
80
80
90
D0
60
ENDCHAR
STARTCHAR 0107
ENCODING 263
SWIDTH 500 0
DWIDTH 6 0
BBX 4 8 1 0
BITMAP
30
40
70
90
80
80
90
60
ENDCHAR
STARTCHAR 0108
ENCODING 264
SWIDTH 500 0
DWIDTH 6 0
BBX 4 10 1 0
BITMAP
60
70
90
80
80
80
80
90
D0
60
ENDCHAR
STARTCHAR 0109
ENCODING 265
SWIDTH 500 0
DWIDTH 6 0
BBX 4 8 1 0
BITMAP
60
10
70
90
80
80
90
60
ENDCHAR
STARTCHAR 010C
ENCODING 268
SWIDTH 500 0
DWIDTH 6 0
BBX 4 10 1 0
BITMAP
70
70
D0
90
80
80
80
90
D0
60
ENDCHAR
STARTCHAR 010D
ENCODING 269
SWIDTH 500 0
DWIDTH 6 0
BBX 4 8 1 0
BITMAP
70
00
70
90
80
80
90
60
ENDCHAR
STARTCHAR 010E
ENCODING 270
SWIDTH 500 0
DWIDTH 6 0
BBX 6 9 0 1
BITMAP
70
C8
48
44
44
44
44
48
50
ENDCHAR
STARTCHAR 010F
ENCODING 271
SWIDTH 500 0
DWIDTH 6 0
BBX 6 10 0 0
BITMAP
0C
3C
18
10
70
90
90
90
90
78
ENDCHAR
STARTCHAR 0111
ENCODING 273
SWIDTH 500 0
DWIDTH 6 0
BBX 5 10 1 0
BITMAP
10
30
38
10
70
90
90
90
90
78
ENDCHAR
STARTCHAR 0112
ENCODING 274
SWIDTH 500 0
DWIDTH 6 0
BBX 5 9 0 1
BITMAP
78
F8
48
48
50
70
50
48
F8
ENDCHAR
STARTCHAR 0113
ENCODING 275
SWIDTH 500 0
DWIDTH 6 0
BBX 6 8 0 0
BITMAP
78
00
70
88
FC
80
CC
78
ENDCHAR
STARTCHAR 0118
ENCODING 280
SWIDTH 500 0
DWIDTH 6 0
BBX 5 10 0 -1
BITMAP
F8
48
48
50
70
50
40
48
B0
30
ENDCHAR
STARTCHAR 0119
ENCODING 281
SWIDTH 500 0
DWIDTH 6 0
BBX 4 7 1 -1
BITMAP
60
90
F0
80
90
A0
60
ENDCHAR
STARTCHAR 011A
ENCODING 282
SWIDTH 500 0
DWIDTH 6 0
BBX 5 9 0 1
BITMAP
30
F8
48
48
50
70
50
48
F8
ENDCHAR
STARTCHAR 011B
ENCODING 283
SWIDTH 500 0
DWIDTH 6 0
BBX 4 8 1 0
BITMAP
60
00
60
90
F0
80
90
60
ENDCHAR
STARTCHAR 011C
ENCODING 284
SWIDTH 500 0
DWIDTH 6 0
BBX 6 10 0 0
BITMAP
30
78
48
80
80
9C
88
88
48
70
ENDCHAR
STARTCHAR 011D
ENCODING 285
SWIDTH 500 0
DWIDTH 6 0
BBX 5 9 1 -1
BITMAP
60
80
F8
90
E0
80
F0
90
F0
ENDCHAR
STARTCHAR 0124
ENCODING 292
SWIDTH 500 0
DWIDTH 6 0
BBX 6 9 0 1
BITMAP
30
CC
48
48
48
78
48
48
48
ENDCHAR
STARTCHAR 0125
ENCODING 293
SWIDTH 500 0
DWIDTH 6 0
BBX 5 9 0 1
BITMAP
30
40
C0
40
78
48
48
48
48
ENDCHAR
STARTCHAR 0127
ENCODING 295
SWIDTH 500 0
DWIDTH 6 0
BBX 5 9 0 1
BITMAP
40
C0
E0
40
78
48
48
48
48
ENDCHAR
STARTCHAR 012A
ENCODING 298
SWIDTH 500 0
DWIDTH 6 0
BBX 4 9 1 1
BITMAP
F0
20
20
20
20
20
20
20
20
ENDCHAR
STARTCHAR 012B
ENCODING 299
SWIDTH 500 0
DWIDTH 6 0
BBX 4 7 1 1
BITMAP
F0
00
60
20
20
20
20
ENDCHAR
STARTCHAR 0134
ENCODING 308
SWIDTH 500 0
DWIDTH 6 0
BBX 5 10 1 0
BITMAP
30
18
10
10
10
10
10
90
90
60
ENDCHAR
STARTCHAR 0135
ENCODING 309
SWIDTH 500 0
DWIDTH 6 0
BBX 4 9 1 -1
BITMAP
60
10
60
20
20
20
20
20
E0
ENDCHAR
STARTCHAR 0139
ENCODING 313
SWIDTH 500 0
DWIDTH 6 0
BBX 5 9 0 1
BITMAP
30
C0
40
40
40
40
48
48
F8
ENDCHAR
STARTCHAR 013A
ENCODING 314
SWIDTH 500 0
DWIDTH 6 0
BBX 3 9 2 1
BITMAP
60
C0
40
40
40
40
40
40
40
ENDCHAR
STARTCHAR 013D
ENCODING 317
SWIDTH 500 0
DWIDTH 6 0
BBX 5 9 0 1
BITMAP
08
E8
40
40
40
40
48
48
F8
ENDCHAR
STARTCHAR 013E
ENCODING 318
SWIDTH 500 0
DWIDTH 6 0
BBX 4 9 1 1
BITMAP
50
D0
40
40
40
40
40
40
40
ENDCHAR
STARTCHAR 0141
ENCODING 321
SWIDTH 500 0
DWIDTH 6 0
BBX 5 8 0 1
BITMAP
E0
40
60
40
C0
48
48
F8
ENDCHAR
STARTCHAR 0142
ENCODING 322
SWIDTH 500 0
DWIDTH 6 0
BBX 3 9 2 1
BITMAP
40
C0
40
60
40
C0
40
40
40
ENDCHAR
STARTCHAR 0143
ENCODING 323
SWIDTH 500 0
DWIDTH 6 0
BBX 6 10 0 0
BITMAP
30
CC
68
68
68
58
58
48
48
80
ENDCHAR
STARTCHAR 0144
ENCODING 324
SWIDTH 500 0
DWIDTH 6 0
BBX 5 7 0 1
BITMAP
18
20
F8
48
48
48
48
ENDCHAR
STARTCHAR 0147
ENCODING 327
SWIDTH 500 0
DWIDTH 6 0
BBX 6 10 0 0
BITMAP
30
CC
68
68
68
58
58
48
48
80
ENDCHAR
STARTCHAR 0148
ENCODING 328
SWIDTH 500 0
DWIDTH 6 0
BBX 5 7 0 1
BITMAP
30
00
F8
48
48
48
48
ENDCHAR
STARTCHAR 014B
ENCODING 331
SWIDTH 500 0
DWIDTH 6 0
BBX 5 7 0 0
BITMAP
F8
48
48
48
48
A8
38
ENDCHAR
STARTCHAR 014C
ENCODING 332
SWIDTH 500 0
DWIDTH 6 0
BBX 6 10 0 0
BITMAP
78
78
48
84
84
84
84
84
48
78
ENDCHAR
STARTCHAR 014D
ENCODING 333
SWIDTH 500 0
DWIDTH 6 0
BBX 6 8 0 0
BITMAP
78
00
78
CC
84
84
CC
78
ENDCHAR
STARTCHAR 0150
ENCODING 336
SWIDTH 500 0
DWIDTH 6 0
BBX 5 10 1 0
BITMAP
78
E0
90
90
90
90
90
90
90
60
ENDCHAR
STARTCHAR 0151
ENCODING 337
SWIDTH 500 0
DWIDTH 6 0
BBX 5 8 1 0
BITMAP
78
A0
60
90
90
90
90
60
ENDCHAR
STARTCHAR 0152
ENCODING 338
SWIDTH 500 0
DWIDTH 6 0
BBX 5 9 1 0
BITMAP
70
B0
A0
B0
B0
B0
A8
B8
40
ENDCHAR
STARTCHAR 0153
ENCODING 339
SWIDTH 500 0
DWIDTH 6 0
BBX 4 6 1 0
BITMAP
F0
B0
B0
C0
B0
F0
ENDCHAR
STARTCHAR 0154
ENCODING 340
SWIDTH 500 0
DWIDTH 6 0
BBX 5 9 0 1
BITMAP
18
F0
48
48
48
70
50
48
48
ENDCHAR
STARTCHAR 0155
ENCODING 341
SWIDTH 500 0
DWIDTH 6 0
BBX 5 7 1 1
BITMAP
30
40
D8
60
40
40
40
ENDCHAR
STARTCHAR 0158
ENCODING 344
SWIDTH 500 0
DWIDTH 6 0
BBX 5 9 0 1
BITMAP
70
D0
48
48
48
70
50
48
48
ENDCHAR
STARTCHAR 0159
ENCODING 345
SWIDTH 500 0
DWIDTH 6 0
BBX 5 7 1 1
BITMAP
70
00
D8
60
40
40
40
ENDCHAR
STARTCHAR 015A
ENCODING 346
SWIDTH 500 0
DWIDTH 6 0
BBX 4 10 1 0
BITMAP
70
F0
90
80
40
20
10
10
90
60
ENDCHAR
STARTCHAR 015B
ENCODING 347
SWIDTH 500 0
DWIDTH 6 0
BBX 4 8 1 0
BITMAP
30
40
F0
90
80
60
90
70
ENDCHAR
STARTCHAR 015C
ENCODING 348
SWIDTH 500 0
DWIDTH 6 0
BBX 4 10 1 0
BITMAP
60
70
90
80
80
60
10
10
90
60
ENDCHAR
STARTCHAR 015D
ENCODING 349
SWIDTH 500 0
DWIDTH 6 0
BBX 4 8 1 0
BITMAP
60
10
F0
90
80
60
90
70
ENDCHAR
STARTCHAR 015E
ENCODING 350
SWIDTH 500 0
DWIDTH 6 0
BBX 4 10 1 0
BITMAP
70
90
80
40
20
10
90
60
00
60
ENDCHAR
STARTCHAR 015F
ENCODING 351
SWIDTH 500 0
DWIDTH 6 0
BBX 4 7 1 0
BITMAP
F0
90
40
B0
F0
00
20
ENDCHAR
STARTCHAR 0160
ENCODING 352
SWIDTH 500 0
DWIDTH 6 0
BBX 4 10 1 0
BITMAP
70
70
90
80
80
60
10
10
90
60
ENDCHAR
STARTCHAR 0161
ENCODING 353
SWIDTH 500 0
DWIDTH 6 0
BBX 4 8 1 0
BITMAP
70
00
F0
90
80
60
90
70
ENDCHAR
STARTCHAR 0162
ENCODING 354
SWIDTH 500 0
DWIDTH 6 0
BBX 4 10 1 -1
BITMAP
F0
B0
30
20
20
20
20
20
40
20
ENDCHAR
STARTCHAR 0163
ENCODING 355
SWIDTH 500 0
DWIDTH 6 0
BBX 4 9 1 -1
BITMAP
40
40
F0
40
40
40
70
00
60
ENDCHAR
STARTCHAR 0164
ENCODING 356
SWIDTH 500 0
DWIDTH 6 0
BBX 4 9 1 1
BITMAP
70
F0
B0
30
20
20
20
20
20
ENDCHAR
STARTCHAR 0165
ENCODING 357
SWIDTH 500 0
DWIDTH 6 0
BBX 4 10 1 0
BITMAP
10
10
60
40
F0
40
40
40
40
70
ENDCHAR
STARTCHAR 016A
ENCODING 362
SWIDTH 500 0
DWIDTH 6 0
BBX 6 10 0 0
BITMAP
78
CC
48
48
48
48
48
48
48
30
ENDCHAR
STARTCHAR 016B
ENCODING 363
SWIDTH 500 0
DWIDTH 6 0
BBX 6 8 0 0
BITMAP
78
00
D8
48
48
48
48
7C
ENDCHAR
STARTCHAR 016C
ENCODING 364
SWIDTH 500 0
DWIDTH 6 0
BBX 6 10 0 0
BITMAP
30
CC
48
48
48
48
48
48
48
30
ENDCHAR
STARTCHAR 016D
ENCODING 365
SWIDTH 500 0
DWIDTH 6 0
BBX 6 8 0 0
BITMAP
30
00
D8
48
48
48
48
3C
ENDCHAR
STARTCHAR 016E
ENCODING 366
SWIDTH 500 0
DWIDTH 6 0
BBX 6 11 0 0
BITMAP
30
30
CC
48
48
48
48
48
48
48
30
ENDCHAR
STARTCHAR 016F
ENCODING 367
SWIDTH 500 0
DWIDTH 6 0
BBX 6 9 0 0
BITMAP
30
30
00
D8
48
48
48
48
3C
ENDCHAR
STARTCHAR 0170
ENCODING 368
SWIDTH 500 0
DWIDTH 6 0
BBX 6 10 0 0
BITMAP
3C
CC
48
48
48
48
48
48
48
30
ENDCHAR
STARTCHAR 0171
ENCODING 369
SWIDTH 500 0
DWIDTH 6 0
BBX 6 8 0 0
BITMAP
3C
50
D8
48
48
48
48
3C
ENDCHAR
STARTCHAR 0179
ENCODING 377
SWIDTH 500 0
DWIDTH 6 0
BBX 4 9 1 1
BITMAP
30
F0
10
20
20
40
90
90
F0
ENDCHAR
STARTCHAR 017A
ENCODING 378
SWIDTH 500 0
DWIDTH 6 0
BBX 4 7 1 1
BITMAP
30
40
F0
20
40
90
F0
ENDCHAR
STARTCHAR 017B
ENCODING 379
SWIDTH 500 0
DWIDTH 6 0
BBX 4 9 1 1
BITMAP
40
F0
10
20
20
40
90
90
F0
ENDCHAR
STARTCHAR 017C
ENCODING 380
SWIDTH 500 0
DWIDTH 6 0
BBX 4 7 1 1
BITMAP
40
00
F0
20
40
90
F0
ENDCHAR
STARTCHAR 017D
ENCODING 381
SWIDTH 500 0
DWIDTH 6 0
BBX 4 9 1 1
BITMAP
60
F0
10
20
20
40
90
90
F0
ENDCHAR
STARTCHAR 017E
ENCODING 382
SWIDTH 500 0
DWIDTH 6 0
BBX 4 7 1 1
BITMAP
E0
00
F0
20
40
90
F0
ENDCHAR
STARTCHAR 0193
ENCODING 403
SWIDTH 500 0
DWIDTH 6 0
BBX 6 10 0 0
BITMAP
1C
70
D0
80
80
B8
90
90
90
60
ENDCHAR
STARTCHAR 01C2
ENCODING 450
SWIDTH 500 0
DWIDTH 6 0
BBX 4 10 1 -1
BITMAP
20
20
20
F0
20
20
F0
20
20
20
ENDCHAR
STARTCHAR 01CD
ENCODING 461
SWIDTH 1000 0
DWIDTH 12 0
BBX 8 9 2 2
BITMAP
3C
10
18
28
24
44
7E
42
81
ENDCHAR
STARTCHAR 01CE
ENCODING 462
SWIDTH 1000 0
DWIDTH 12 0
BBX 7 8 3 1
BITMAP
78
00
78
C8
38
C8
88
7E
ENDCHAR
STARTCHAR 01D0
ENCODING 464
SWIDTH 1000 0
DWIDTH 12 0
BBX 3 8 5 1
BITMAP
A0
40
C0
40
40
40
40
40
ENDCHAR
STARTCHAR 01D1
ENCODING 465
SWIDTH 1000 0
DWIDTH 12 0
BBX 8 10 2 1
BITMAP
3C
3C
42
81
81
81
81
81
42
3C
ENDCHAR
STARTCHAR 01D2
ENCODING 466
SWIDTH 1000 0
DWIDTH 12 0
BBX 6 8 3 1
BITMAP
78
00
78
C4
84
84
CC
78
ENDCHAR
STARTCHAR 01D4
ENCODING 468
SWIDTH 1000 0
DWIDTH 12 0
BBX 6 8 3 1
BITMAP
38
48
D8
48
48
48
48
3C
ENDCHAR
STARTCHAR 01D6
ENCODING 470
SWIDTH 1000 0
DWIDTH 12 0
BBX 6 9 3 0
BITMAP
78
00
D8
48
48
48
48
38
04
ENDCHAR
STARTCHAR 01D8
ENCODING 472
SWIDTH 1000 0
DWIDTH 12 0
BBX 6 9 3 0
BITMAP
78
00
D8
48
48
48
48
38
04
ENDCHAR
STARTCHAR 01DA
ENCODING 474
SWIDTH 1000 0
DWIDTH 12 0
BBX 6 10 3 0
BITMAP
58
68
00
D8
48
48
48
48
38
04
ENDCHAR
STARTCHAR 01DC
ENCODING 476
SWIDTH 1000 0
DWIDTH 12 0
BBX 6 9 3 0
BITMAP
68
10
D8
48
48
48
48
38
04
ENDCHAR
STARTCHAR 01F8
ENCODING 504
SWIDTH 500 0
DWIDTH 6 0
BBX 6 10 0 0
BITMAP
60
DC
68
68
68
58
58
48
48
80
ENDCHAR
STARTCHAR 01F9
ENCODING 505
SWIDTH 500 0
DWIDTH 6 0
BBX 5 7 0 1
BITMAP
60
00
F8
48
48
48
48
ENDCHAR
STARTCHAR 01FD
ENCODING 509
SWIDTH 500 0
DWIDTH 6 0
BBX 5 8 1 0
BITMAP
30
40
F0
30
78
A0
B8
F0
ENDCHAR
STARTCHAR 0250
ENCODING 592
SWIDTH 500 0
DWIDTH 6 0
BBX 5 6 0 0
BITMAP
F8
48
48
70
48
30
ENDCHAR
STARTCHAR 0251
ENCODING 593
SWIDTH 500 0
DWIDTH 6 0
BBX 5 6 1 1
BITMAP
70
90
90
90
90
78
ENDCHAR
STARTCHAR 0252
ENCODING 594
SWIDTH 500 0
DWIDTH 6 0
BBX 5 6 0 0
BITMAP
F0
48
48
48
48
B0
ENDCHAR
STARTCHAR 0253
ENCODING 595
SWIDTH 500 0
DWIDTH 6 0
BBX 4 9 1 0
BITMAP
70
90
80
E0
90
90
90
90
60
ENDCHAR
STARTCHAR 0254
ENCODING 596
SWIDTH 500 0
DWIDTH 6 0
BBX 5 6 0 0
BITMAP
70
88
08
08
48
70
ENDCHAR
STARTCHAR 0255
ENCODING 597
SWIDTH 500 0
DWIDTH 6 0
BBX 4 6 1 0
BITMAP
70
90
80
B0
D0
E0
ENDCHAR
STARTCHAR 0256
ENCODING 598
SWIDTH 500 0
DWIDTH 6 0
BBX 6 10 0 -1
BITMAP
30
10
10
70
90
90
90
90
70
1C
ENDCHAR
STARTCHAR 0257
ENCODING 599
SWIDTH 500 0
DWIDTH 6 0
BBX 6 9 0 0
BITMAP
1C
14
10
70
90
90
90
90
78
ENDCHAR
STARTCHAR 0258
ENCODING 600
SWIDTH 500 0
DWIDTH 6 0
BBX 5 6 0 0
BITMAP
30
48
78
08
88
70
ENDCHAR
STARTCHAR 0259
ENCODING 601
SWIDTH 500 0
DWIDTH 6 0
BBX 5 6 0 0
BITMAP
30
C8
08
78
48
30
ENDCHAR
STARTCHAR 025A
ENCODING 602
SWIDTH 500 0
DWIDTH 6 0
BBX 6 6 0 0
BITMAP
60
98
34
D0
50
60
ENDCHAR
STARTCHAR 025C
ENCODING 604
SWIDTH 500 0
DWIDTH 6 0
BBX 4 6 1 0
BITMAP
F0
10
60
10
10
E0
ENDCHAR
STARTCHAR 025E
ENCODING 606
SWIDTH 500 0
DWIDTH 6 0
BBX 5 6 1 0
BITMAP
70
88
30
08
88
70
ENDCHAR
STARTCHAR 025F
ENCODING 607
SWIDTH 500 0
DWIDTH 6 0
BBX 5 7 0 -1
BITMAP
38
10
10
78
10
10
E0
ENDCHAR
STARTCHAR 0260
ENCODING 608
SWIDTH 500 0
DWIDTH 6 0
BBX 6 10 0 -1
BITMAP
1C
14
10
70
90
90
70
10
90
E0
ENDCHAR
STARTCHAR 0261
ENCODING 609
SWIDTH 500 0
DWIDTH 6 0
BBX 4 7 1 0
BITMAP
70
90
90
70
10
90
E0
ENDCHAR
STARTCHAR 0264
ENCODING 612
SWIDTH 500 0
DWIDTH 6 0
BBX 6 6 0 0
BITMAP
4C
B0
20
30
30
30
ENDCHAR
STARTCHAR 0265
ENCODING 613
SWIDTH 500 0
DWIDTH 6 0
BBX 6 8 0 -2
BITMAP
FC
48
48
48
48
78
08
04
ENDCHAR
STARTCHAR 0266
ENCODING 614
SWIDTH 500 0
DWIDTH 6 0
BBX 4 8 1 1
BITMAP
70
90
80
F0
90
90
90
90
ENDCHAR
STARTCHAR 0267
ENCODING 615
SWIDTH 500 0
DWIDTH 6 0
BBX 5 10 0 -1
BITMAP
38
48
40
78
48
48
48
48
A8
38
ENDCHAR
STARTCHAR 0268
ENCODING 616
SWIDTH 500 0
DWIDTH 6 0
BBX 3 8 2 1
BITMAP
40
00
40
C0
40
E0
40
40
ENDCHAR
STARTCHAR 026C
ENCODING 620
SWIDTH 500 0
DWIDTH 6 0
BBX 4 8 1 1
BITMAP
60
20
20
E0
A0
70
20
20
ENDCHAR
STARTCHAR 026D
ENCODING 621
SWIDTH 500 0
DWIDTH 6 0
BBX 4 10 1 0
BITMAP
C0
40
40
40
40
40
40
40
40
70
ENDCHAR
STARTCHAR 026E
ENCODING 622
SWIDTH 500 0
DWIDTH 6 0
BBX 6 10 0 -1
BITMAP
C0
40
40
78
50
60
58
44
A4
38
ENDCHAR
STARTCHAR 026F
ENCODING 623
SWIDTH 500 0
DWIDTH 6 0
BBX 6 6 0 0
BITMAP
DC
58
58
58
58
7C
ENDCHAR
STARTCHAR 0270
ENCODING 624
SWIDTH 500 0
DWIDTH 6 0
BBX 6 8 0 -2
BITMAP
DC
58
58
58
58
78
08
04
ENDCHAR
STARTCHAR 0271
ENCODING 625
SWIDTH 500 0
DWIDTH 6 0
BBX 5 7 0 0
BITMAP
F8
58
58
58
58
88
08
ENDCHAR
STARTCHAR 0272
ENCODING 626
SWIDTH 500 0
DWIDTH 6 0
BBX 6 7 0 0
BITMAP
78
28
28
28
28
24
E0
ENDCHAR
STARTCHAR 0273
ENCODING 627
SWIDTH 500 0
DWIDTH 6 0
BBX 6 7 0 0
BITMAP
F0
50
50
50
50
90
1C
ENDCHAR
STARTCHAR 0275
ENCODING 629
SWIDTH 500 0
DWIDTH 6 0
BBX 4 6 1 0
BITMAP
E0
90
F0
90
90
60
ENDCHAR
STARTCHAR 0279
ENCODING 633
SWIDTH 500 0
DWIDTH 6 0
BBX 5 6 0 0
BITMAP
38
10
10
10
B0
D8
ENDCHAR
STARTCHAR 027A
ENCODING 634
SWIDTH 500 0
DWIDTH 6 0
BBX 5 9 0 0
BITMAP
38
10
10
10
10
10
10
B0
D8
ENDCHAR
STARTCHAR 027B
ENCODING 635
SWIDTH 500 0
DWIDTH 6 0
BBX 6 7 0 -1
BITMAP
38
10
10
10
B0
D0
1C
ENDCHAR
STARTCHAR 027D
ENCODING 637
SWIDTH 500 0
DWIDTH 6 0
BBX 5 7 1 0
BITMAP
D8
60
40
40
40
40
70
ENDCHAR
STARTCHAR 027E
ENCODING 638
SWIDTH 500 0
DWIDTH 6 0
BBX 3 5 2 1
BITMAP
E0
80
80
80
80
ENDCHAR
STARTCHAR 0281
ENCODING 641
SWIDTH 500 0
DWIDTH 6 0
BBX 6 5 0 1
BITMAP
EC
50
70
48
F8
ENDCHAR
STARTCHAR 0282
ENCODING 642
SWIDTH 500 0
DWIDTH 6 0
BBX 4 7 1 -1
BITMAP
F0
90
80
60
90
70
C0
ENDCHAR
STARTCHAR 0283
ENCODING 643
SWIDTH 500 0
DWIDTH 6 0
BBX 5 10 1 -1
BITMAP
38
20
20
20
20
20
20
20
20
E0
ENDCHAR
STARTCHAR 0284
ENCODING 644
SWIDTH 500 0
DWIDTH 6 0
BBX 6 10 0 -1
BITMAP
1C
10
10
10
10
10
78
10
10
E0
ENDCHAR
STARTCHAR 0288
ENCODING 648
SWIDTH 500 0
DWIDTH 6 0
BBX 4 9 1 -1
BITMAP
40
40
F0
40
40
40
40
40
70
ENDCHAR
STARTCHAR 0289
ENCODING 649
SWIDTH 500 0
DWIDTH 6 0
BBX 6 6 0 1
BITMAP
D8
48
FC
48
48
3C
ENDCHAR
STARTCHAR 028A
ENCODING 650
SWIDTH 500 0
DWIDTH 6 0
BBX 4 6 1 0
BITMAP
F0
90
90
90
90
60
ENDCHAR
STARTCHAR 028B
ENCODING 651
SWIDTH 500 0
DWIDTH 6 0
BBX 5 6 0 1
BITMAP
C8
48
48
48
58
70
ENDCHAR
STARTCHAR 028C
ENCODING 652
SWIDTH 500 0
DWIDTH 6 0
BBX 4 6 1 1
BITMAP
40
60
60
A0
90
90
ENDCHAR
STARTCHAR 028D
ENCODING 653
SWIDTH 500 0
DWIDTH 6 0
BBX 6 6 0 1
BITMAP
50
48
78
A8
A8
A4
ENDCHAR
STARTCHAR 028E
ENCODING 654
SWIDTH 500 0
DWIDTH 6 0
BBX 6 8 0 1
BITMAP
0C
10
20
20
50
50
88
88
ENDCHAR
STARTCHAR 0290
ENCODING 656
SWIDTH 500 0
DWIDTH 6 0
BBX 5 7 1 -1
BITMAP
E0
40
40
A0
E0
20
18
ENDCHAR
STARTCHAR 0291
ENCODING 657
SWIDTH 500 0
DWIDTH 6 0
BBX 4 6 1 -1
BITMAP
F0
20
40
B0
F0
80
ENDCHAR
STARTCHAR 0292
ENCODING 658
SWIDTH 500 0
DWIDTH 6 0
BBX 4 7 1 -1
BITMAP
F0
20
C0
E0
10
10
E0
ENDCHAR
STARTCHAR 0294
ENCODING 660
SWIDTH 500 0
DWIDTH 6 0
BBX 4 8 1 1
BITMAP
E0
90
10
10
20
40
40
40
ENDCHAR
STARTCHAR 0295
ENCODING 661
SWIDTH 500 0
DWIDTH 6 0
BBX 4 8 1 1
BITMAP
70
90
80
80
40
20
20
20
ENDCHAR
STARTCHAR 0298
ENCODING 664
SWIDTH 500 0
DWIDTH 6 0
BBX 4 6 1 0
BITMAP
60
90
F0
F0
90
60
ENDCHAR
STARTCHAR 029D
ENCODING 669
SWIDTH 500 0
DWIDTH 6 0
BBX 4 10 0 -1
BITMAP
20
00
20
60
20
20
20
20
20
D0
ENDCHAR
STARTCHAR 02A1
ENCODING 673
SWIDTH 500 0
DWIDTH 6 0
BBX 4 8 1 1
BITMAP
E0
90
10
10
20
40
E0
40
ENDCHAR
STARTCHAR 02A2
ENCODING 674
SWIDTH 500 0
DWIDTH 6 0
BBX 4 8 1 1
BITMAP
70
90
80
80
40
20
70
20
ENDCHAR
STARTCHAR 02C7
ENCODING 711
SWIDTH 500 0
DWIDTH 6 0
BBX 4 1 1 8
BITMAP
F0
ENDCHAR
STARTCHAR 02C8
ENCODING 712
SWIDTH 500 0
DWIDTH 6 0
BBX 1 1 3 9
BITMAP
80
ENDCHAR
STARTCHAR 02CC
ENCODING 716
SWIDTH 500 0
DWIDTH 6 0
BBX 1 2 3 -1
BITMAP
80
80
ENDCHAR
STARTCHAR 02D0
ENCODING 720
SWIDTH 500 0
DWIDTH 6 0
BBX 2 5 2 1
BITMAP
C0
80
00
80
C0
ENDCHAR
STARTCHAR 02D1
ENCODING 721
SWIDTH 500 0
DWIDTH 6 0
BBX 2 2 2 4
BITMAP
C0
80
ENDCHAR
STARTCHAR 02D8
ENCODING 728
SWIDTH 500 0
DWIDTH 6 0
BBX 4 2 1 7
BITMAP
90
60
ENDCHAR
STARTCHAR 02D9
ENCODING 729
SWIDTH 500 0
DWIDTH 6 0
BBX 1 1 2 8
BITMAP
80
ENDCHAR
STARTCHAR 02DB
ENCODING 731
SWIDTH 500 0
DWIDTH 6 0
BBX 2 3 2 -1
BITMAP
80
80
C0
ENDCHAR
STARTCHAR 02DC
ENCODING 732
SWIDTH 500 0
DWIDTH 6 0
BBX 4 1 1 7
BITMAP
F0
ENDCHAR
STARTCHAR 02DD
ENCODING 733
SWIDTH 500 0
DWIDTH 6 0
BBX 4 1 1 8
BITMAP
F0
ENDCHAR
STARTCHAR 02DE
ENCODING 734
SWIDTH 500 0
DWIDTH 6 0
BBX 4 2 1 4
BITMAP
D0
30
ENDCHAR
STARTCHAR 02E5
ENCODING 741
SWIDTH 500 0
DWIDTH 6 0
BBX 3 12 1 -1
BITMAP
E0
20
20
20
20
20
20
20
20
20
20
20
ENDCHAR
STARTCHAR 02E6
ENCODING 742
SWIDTH 500 0
DWIDTH 6 0
BBX 3 12 1 -1
BITMAP
20
20
20
E0
20
20
20
20
20
20
20
20
ENDCHAR
STARTCHAR 02E7
ENCODING 743
SWIDTH 500 0
DWIDTH 6 0
BBX 3 12 1 -1
BITMAP
20
20
20
20
20
20
E0
20
20
20
20
20
ENDCHAR
STARTCHAR 02E8
ENCODING 744
SWIDTH 500 0
DWIDTH 6 0
BBX 3 12 1 -1
BITMAP
20
20
20
20
20
20
20
20
20
E0
20
20
ENDCHAR
STARTCHAR 02E9
ENCODING 745
SWIDTH 500 0
DWIDTH 6 0
BBX 3 12 1 -1
BITMAP
20
20
20
20
20
20
20
20
20
20
20
E0
ENDCHAR
STARTCHAR 0300
ENCODING 768
SWIDTH 500 0
DWIDTH 6 0
BBX 2 1 1 9
BITMAP
C0
ENDCHAR
STARTCHAR 0301
ENCODING 769
SWIDTH 500 0
DWIDTH 6 0
BBX 2 1 3 9
BITMAP
C0
ENDCHAR
STARTCHAR 0302
ENCODING 770
SWIDTH 500 0
DWIDTH 6 0
BBX 2 1 2 9
BITMAP
C0
ENDCHAR
STARTCHAR 0303
ENCODING 771
SWIDTH 500 0
DWIDTH 6 0
BBX 4 1 1 10
BITMAP
F0
ENDCHAR
STARTCHAR 0304
ENCODING 772
SWIDTH 500 0
DWIDTH 6 0
BBX 4 1 1 9
BITMAP
F0
ENDCHAR
STARTCHAR 0306
ENCODING 774
SWIDTH 500 0
DWIDTH 6 0
BBX 2 1 2 9
BITMAP
C0
ENDCHAR
STARTCHAR 0308
ENCODING 776
SWIDTH 500 0
DWIDTH 6 0
BBX 4 1 1 9
BITMAP
90
ENDCHAR
STARTCHAR 030B
ENCODING 779
SWIDTH 500 0
DWIDTH 6 0
BBX 4 1 2 9
BITMAP
F0
ENDCHAR
STARTCHAR 030C
ENCODING 780
SWIDTH 500 0
DWIDTH 6 0
BBX 2 1 2 9
BITMAP
C0
ENDCHAR
STARTCHAR 030F
ENCODING 783
SWIDTH 500 0
DWIDTH 6 0
BBX 4 1 0 9
BITMAP
F0
ENDCHAR
STARTCHAR 0318
ENCODING 792
SWIDTH 500 0
DWIDTH 6 0
BBX 1 1 2 -1
BITMAP
80
ENDCHAR
STARTCHAR 0319
ENCODING 793
SWIDTH 500 0
DWIDTH 6 0
BBX 1 1 3 -1
BITMAP
80
ENDCHAR
STARTCHAR 031A
ENCODING 794
SWIDTH 500 0
DWIDTH 6 0
BBX 3 1 3 9
BITMAP
E0
ENDCHAR
STARTCHAR 031C
ENCODING 796
SWIDTH 500 0
DWIDTH 6 0
BBX 1 1 2 -1
BITMAP
80
ENDCHAR
STARTCHAR 031D
ENCODING 797
SWIDTH 500 0
DWIDTH 6 0
BBX 2 1 2 -1
BITMAP
C0
ENDCHAR
STARTCHAR 031E
ENCODING 798
SWIDTH 500 0
DWIDTH 6 0
BBX 2 2 2 -1
BITMAP
C0
40
ENDCHAR
STARTCHAR 031F
ENCODING 799
SWIDTH 500 0
DWIDTH 6 0
BBX 2 1 2 -1
BITMAP
C0
ENDCHAR
STARTCHAR 0320
ENCODING 800
SWIDTH 500 0
DWIDTH 6 0
BBX 2 1 2 -1
BITMAP
C0
ENDCHAR
STARTCHAR 0324
ENCODING 804
SWIDTH 500 0
DWIDTH 6 0
BBX 4 1 1 -1
BITMAP
90
ENDCHAR
STARTCHAR 0325
ENCODING 805
SWIDTH 500 0
DWIDTH 6 0
BBX 2 1 2 -1
BITMAP
C0
ENDCHAR
STARTCHAR 0329
ENCODING 809
SWIDTH 500 0
DWIDTH 6 0
BBX 1 1 3 -1
BITMAP
80
ENDCHAR
STARTCHAR 032A
ENCODING 810
SWIDTH 500 0
DWIDTH 6 0
BBX 2 2 2 -1
BITMAP
C0
C0
ENDCHAR
STARTCHAR 032C
ENCODING 812
SWIDTH 500 0
DWIDTH 6 0
BBX 2 1 2 -1
BITMAP
C0
ENDCHAR
STARTCHAR 032F
ENCODING 815
SWIDTH 500 0
DWIDTH 6 0
BBX 2 1 2 -1
BITMAP
C0
ENDCHAR
STARTCHAR 0330
ENCODING 816
SWIDTH 500 0
DWIDTH 6 0
BBX 3 1 2 -1
BITMAP
E0
ENDCHAR
STARTCHAR 0334
ENCODING 820
SWIDTH 500 0
DWIDTH 6 0
BBX 4 1 1 5
BITMAP
F0
ENDCHAR
STARTCHAR 0339
ENCODING 825
SWIDTH 500 0
DWIDTH 6 0
BBX 1 1 3 -1
BITMAP
80
ENDCHAR
STARTCHAR 033A
ENCODING 826
SWIDTH 500 0
DWIDTH 6 0
BBX 2 1 2 -1
BITMAP
C0
ENDCHAR
STARTCHAR 033B
ENCODING 827
SWIDTH 500 0
DWIDTH 6 0
BBX 2 1 2 -1
BITMAP
C0
ENDCHAR
STARTCHAR 033C
ENCODING 828
SWIDTH 500 0
DWIDTH 6 0
BBX 4 1 1 -1
BITMAP
F0
ENDCHAR
STARTCHAR 033D
ENCODING 829
SWIDTH 500 0
DWIDTH 6 0
BBX 4 1 1 9
BITMAP
F0
ENDCHAR
STARTCHAR 0361
ENCODING 865
SWIDTH 500 0
DWIDTH 6 0
BBX 6 2 0 8
BITMAP
78
84
ENDCHAR
STARTCHAR 0391
ENCODING 913
SWIDTH 1000 0
DWIDTH 12 0
BBX 8 8 2 2
BITMAP
10
18
28
24
44
7E
42
81
ENDCHAR
STARTCHAR 0392
ENCODING 914
SWIDTH 1000 0
DWIDTH 12 0
BBX 7 8 2 1
BITMAP
FC
42
42
46
78
46
42
FC
ENDCHAR
STARTCHAR 0393
ENCODING 915
SWIDTH 1000 0
DWIDTH 12 0
BBX 7 8 3 1
BITMAP
FE
42
42
40
40
40
40
40
ENDCHAR
STARTCHAR 0394
ENCODING 916
SWIDTH 1000 0
DWIDTH 12 0
BBX 8 9 2 1
BITMAP
10
18
28
24
44
42
82
82
FF
ENDCHAR
STARTCHAR 0395
ENCODING 917
SWIDTH 1000 0
DWIDTH 12 0
BBX 7 8 2 1
BITMAP
FE
42
42
44
7C
44
42
FE
ENDCHAR
STARTCHAR 0396
ENCODING 918
SWIDTH 1000 0
DWIDTH 12 0
BBX 6 8 3 1
BITMAP
FC
84
08
10
20
44
84
FC
ENDCHAR
STARTCHAR 0397
ENCODING 919
SWIDTH 1000 0
DWIDTH 12 0
BBX 8 8 2 1
BITMAP
E7
42
42
42
7E
42
42
42
ENDCHAR
STARTCHAR 0398
ENCODING 920
SWIDTH 1000 0
DWIDTH 12 0
BBX 8 9 2 0
BITMAP
3C
42
83
C5
BD
C5
81
42
3C
ENDCHAR
STARTCHAR 0399
ENCODING 921
SWIDTH 1000 0
DWIDTH 12 0
BBX 3 8 5 1
BITMAP
E0
40
40
40
40
40
40
40
ENDCHAR
STARTCHAR 039A
ENCODING 922
SWIDTH 1000 0
DWIDTH 12 0
BBX 8 8 2 1
BITMAP
E7
44
48
50
68
44
46
43
ENDCHAR
STARTCHAR 039B
ENCODING 923
SWIDTH 1000 0
DWIDTH 12 0
BBX 8 9 2 1
BITMAP
10
18
28
28
24
44
46
82
83
ENDCHAR
STARTCHAR 039C
ENCODING 924
SWIDTH 1000 0
DWIDTH 12 0
BBX 10 8 1 1
BITMAP
E0C0
6180
5280
5280
5280
4C80
4C80
4880
ENDCHAR
STARTCHAR 039D
ENCODING 925
SWIDTH 1000 0
DWIDTH 12 0
BBX 8 9 2 0
BITMAP
E7
62
52
52
4A
4A
46
42
A0
ENDCHAR
STARTCHAR 039E
ENCODING 926
SWIDTH 1000 0
DWIDTH 12 0
BBX 6 8 3 1
BITMAP
FC
04
00
88
78
88
04
FC
ENDCHAR
STARTCHAR 039F
ENCODING 927
SWIDTH 1000 0
DWIDTH 12 0
BBX 8 9 2 0
BITMAP
3C
42
81
81
81
81
83
46
3C
ENDCHAR
STARTCHAR 03A0
ENCODING 928
SWIDTH 1000 0
DWIDTH 12 0
BBX 8 8 2 1
BITMAP
FF
42
42
42
42
42
42
42
ENDCHAR
STARTCHAR 03A1
ENCODING 929
SWIDTH 1000 0
DWIDTH 12 0
BBX 7 8 3 1
BITMAP
FC
42
42
42
7C
40
40
40
ENDCHAR
STARTCHAR 03A3
ENCODING 931
SWIDTH 1000 0
DWIDTH 12 0
BBX 7 8 3 1
BITMAP
FE
42
20
10
18
22
C2
FE
ENDCHAR
STARTCHAR 03A4
ENCODING 932
SWIDTH 1000 0
DWIDTH 12 0
BBX 8 8 2 1
BITMAP
FF
89
09
08
08
08
08
08
ENDCHAR
STARTCHAR 03A5
ENCODING 933
SWIDTH 1000 0
DWIDTH 12 0
BBX 9 8 2 1
BITMAP
7700
9900
8880
0800
0800
0800
0800
0800
ENDCHAR
STARTCHAR 03A6
ENCODING 934
SWIDTH 1000 0
DWIDTH 12 0
BBX 9 8 2 1
BITMAP
1C00
1E00
6900
8880
8880
4900
3E00
0800
ENDCHAR
STARTCHAR 03A7
ENCODING 935
SWIDTH 1000 0
DWIDTH 12 0
BBX 8 8 2 1
BITMAP
E7
24
28
10
18
24
42
C3
ENDCHAR
STARTCHAR 03A8
ENCODING 936
SWIDTH 1000 0
DWIDTH 12 0
BBX 10 8 1 1
BITMAP
6F80
A540
2500
2500
2500
1600
0C00
0400
ENDCHAR
STARTCHAR 03A9
ENCODING 937
SWIDTH 1000 0
DWIDTH 12 0
BBX 8 8 2 1
BITMAP
3C
42
81
81
81
42
2D
E7
ENDCHAR
STARTCHAR 03B1
ENCODING 945
SWIDTH 1000 0
DWIDTH 12 0
BBX 7 6 2 0
BITMAP
3E
4C
C8
88
9A
EC
ENDCHAR
STARTCHAR 03B2
ENCODING 946
SWIDTH 1000 0
DWIDTH 12 0
BBX 6 10 2 -1
BITMAP
1C
24
24
58
44
44
44
4C
B8
80
ENDCHAR
STARTCHAR 03B3
ENCODING 947
SWIDTH 1000 0
DWIDTH 12 0
BBX 7 7 2 -1
BITMAP
62
94
18
18
10
10
10
ENDCHAR
STARTCHAR 03B4
ENCODING 948
SWIDTH 1000 0
DWIDTH 12 0
BBX 6 9 3 0
BITMAP
7C
40
20
50
88
88
88
90
70
ENDCHAR
STARTCHAR 03B5
ENCODING 949
SWIDTH 1000 0
DWIDTH 12 0
BBX 5 6 3 0
BITMAP
78
40
70
80
88
70
ENDCHAR
STARTCHAR 03B6
ENCODING 950
SWIDTH 1000 0
DWIDTH 12 0
BBX 6 10 3 0
BITMAP
6C
50
20
40
80
80
80
60
18
38
ENDCHAR
STARTCHAR 03B7
ENCODING 951
SWIDTH 1000 0
DWIDTH 12 0
BBX 5 7 3 -1
BITMAP
F8
68
48
48
90
10
10
ENDCHAR
STARTCHAR 03B8
ENCODING 952
SWIDTH 1000 0
DWIDTH 12 0
BBX 6 9 3 0
BITMAP
38
64
44
84
FC
8C
88
98
70
ENDCHAR
STARTCHAR 03B9
ENCODING 953
SWIDTH 1000 0
DWIDTH 12 0
BBX 3 6 4 0
BITMAP
40
40
80
80
A0
E0
ENDCHAR
STARTCHAR 03BA
ENCODING 954
SWIDTH 1000 0
DWIDTH 12 0
BBX 6 6 3 0
BITMAP
6C
70
70
90
94
18
ENDCHAR
STARTCHAR 03BB
ENCODING 955
SWIDTH 1000 0
DWIDTH 12 0
BBX 7 9 2 0
BITMAP
38
08
08
18
18
28
4A
4A
84
ENDCHAR
STARTCHAR 03BC
ENCODING 956
SWIDTH 1000 0
DWIDTH 12 0
BBX 7 8 2 -1
BITMAP
24
26
44
48
48
CA
B6
80
ENDCHAR
STARTCHAR 03BD
ENCODING 957
SWIDTH 1000 0
DWIDTH 12 0
BBX 6 6 3 0
BITMAP
C4
44
44
48
70
40
ENDCHAR
STARTCHAR 03BE
ENCODING 958
SWIDTH 1000 0
DWIDTH 12 0
BBX 4 10 4 0
BITMAP
70
40
40
40
70
80
80
40
20
E0
ENDCHAR
STARTCHAR 03BF
ENCODING 959
SWIDTH 1000 0
DWIDTH 12 0
BBX 5 6 4 0
BITMAP
70
C8
88
88
98
70
ENDCHAR
STARTCHAR 03C0
ENCODING 960
SWIDTH 1000 0
DWIDTH 12 0
BBX 7 7 2 0
BITMAP
02
7E
A8
28
28
4A
0C
ENDCHAR
STARTCHAR 03C1
ENCODING 961
SWIDTH 1000 0
DWIDTH 12 0
BBX 7 7 2 -1
BITMAP
1C
62
42
46
7C
40
80
ENDCHAR
STARTCHAR 03C2
ENCODING 962
SWIDTH 500 0
DWIDTH 6 0
BBX 4 7 1 -1
BITMAP
70
90
80
80
40
20
E0
ENDCHAR
STARTCHAR 03C3
ENCODING 963
SWIDTH 1000 0
DWIDTH 12 0
BBX 6 7 4 0
BITMAP
7C
D0
88
88
88
90
70
ENDCHAR
STARTCHAR 03C4
ENCODING 964
SWIDTH 1000 0
DWIDTH 12 0
BBX 7 7 2 0
BITMAP
02
7E
90
10
20
24
38
ENDCHAR
STARTCHAR 03C5
ENCODING 965
SWIDTH 1000 0
DWIDTH 12 0
BBX 6 6 3 0
BITMAP
CC
44
44
84
88
70
ENDCHAR
STARTCHAR 03C6
ENCODING 966
SWIDTH 1000 0
DWIDTH 12 0
BBX 6 9 3 -1
BITMAP
08
10
78
94
A4
A4
A8
50
40
ENDCHAR
STARTCHAR 03C7
ENCODING 967
SWIDTH 1000 0
DWIDTH 12 0
BBX 6 7 3 -1
BITMAP
C4
28
10
20
20
54
98
ENDCHAR
STARTCHAR 03C8
ENCODING 968
SWIDTH 1000 0
DWIDTH 12 0
BBX 6 9 3 -1
BITMAP
08
10
54
94
A4
A4
A8
70
40
ENDCHAR
STARTCHAR 03C9
ENCODING 969
SWIDTH 1000 0
DWIDTH 12 0
BBX 8 7 2 1
BITMAP
22
41
89
89
91
92
6C
ENDCHAR
STARTCHAR 0401
ENCODING 1025
SWIDTH 1000 0
DWIDTH 12 0
BBX 7 9 2 1
BITMAP
22
FE
42
42
44
7C
44
42
FE
ENDCHAR
STARTCHAR 0410
ENCODING 1040
SWIDTH 1000 0
DWIDTH 12 0
BBX 8 8 2 2
BITMAP
10
18
28
24
44
7E
42
81
ENDCHAR
STARTCHAR 0411
ENCODING 1041
SWIDTH 1000 0
DWIDTH 12 0
BBX 8 8 2 1
BITMAP
FE
42
42
40
7E
41
41
FE
ENDCHAR
STARTCHAR 0412
ENCODING 1042
SWIDTH 1000 0
DWIDTH 12 0
BBX 7 8 2 1
BITMAP
FC
42
42
46
78
46
42
FC
ENDCHAR
STARTCHAR 0413
ENCODING 1043
SWIDTH 1000 0
DWIDTH 12 0
BBX 7 8 3 1
BITMAP
FE
42
42
40
40
40
40
40
ENDCHAR
STARTCHAR 0414
ENCODING 1044
SWIDTH 1000 0
DWIDTH 12 0
BBX 8 10 2 -1
BITMAP
7F
22
22
22
42
42
82
FF
81
01
ENDCHAR
STARTCHAR 0415
ENCODING 1045
SWIDTH 1000 0
DWIDTH 12 0
BBX 7 8 2 1
BITMAP
FE
42
42
44
7C
44
42
FE
ENDCHAR
STARTCHAR 0416
ENCODING 1046
SWIDTH 1000 0
DWIDTH 12 0
BBX 11 8 1 1
BITMAP
CE60
4480
2500
1500
1F00
2480
2480
4440
ENDCHAR
STARTCHAR 0417
ENCODING 1047
SWIDTH 1000 0
DWIDTH 12 0
BBX 6 9 3 0
BITMAP
F8
84
04
04
38
0C
04
84
F8
ENDCHAR
STARTCHAR 0418
ENCODING 1048
SWIDTH 1000 0
DWIDTH 12 0
BBX 8 8 2 1
BITMAP
E7
42
46
4A
52
62
42
42
ENDCHAR
STARTCHAR 0419
ENCODING 1049
SWIDTH 1000 0
DWIDTH 12 0
BBX 8 9 2 1
BITMAP
3C
C3
42
46
4A
52
62
42
42
ENDCHAR
STARTCHAR 041A
ENCODING 1050
SWIDTH 1000 0
DWIDTH 12 0
BBX 8 8 2 2
BITMAP
E3
44
48
50
68
44
46
43
ENDCHAR
STARTCHAR 041B
ENCODING 1051
SWIDTH 1000 0
DWIDTH 12 0
BBX 9 9 1 0
BITMAP
3F80
1100
1100
1100
1100
1100
D100
9100
E280
ENDCHAR
STARTCHAR 041C
ENCODING 1052
SWIDTH 1000 0
DWIDTH 12 0
BBX 10 8 1 1
BITMAP
E1C0
6280
5280
5480
9480
8C80
8880
8080
ENDCHAR
STARTCHAR 041D
ENCODING 1053
SWIDTH 1000 0
DWIDTH 12 0
BBX 8 8 2 1
BITMAP
E7
42
42
42
7E
42
42
42
ENDCHAR
STARTCHAR 041E
ENCODING 1054
SWIDTH 1000 0
DWIDTH 12 0
BBX 8 9 2 0
BITMAP
3C
42
81
81
81
81
83
46
3C
ENDCHAR
STARTCHAR 041F
ENCODING 1055
SWIDTH 1000 0
DWIDTH 12 0
BBX 8 8 2 1
BITMAP
FF
42
42
42
42
42
42
42
ENDCHAR
STARTCHAR 0420
ENCODING 1056
SWIDTH 1000 0
DWIDTH 12 0
BBX 7 8 3 1
BITMAP
FC
42
42
42
7C
40
40
40
ENDCHAR
STARTCHAR 0421
ENCODING 1057
SWIDTH 1000 0
DWIDTH 12 0
BBX 8 9 2 0
BITMAP
3F
41
80
80
80
81
C1
61
3E
ENDCHAR
STARTCHAR 0422
ENCODING 1058
SWIDTH 1000 0
DWIDTH 12 0
BBX 8 8 2 1
BITMAP
FF
89
09
08
08
08
08
08
ENDCHAR
STARTCHAR 0423
ENCODING 1059
SWIDTH 1000 0
DWIDTH 12 0
BBX 8 9 2 0
BITMAP
E7
24
24
14
18
08
D0
D0
60
ENDCHAR
STARTCHAR 0424
ENCODING 1060
SWIDTH 1000 0
DWIDTH 12 0
BBX 9 8 2 1
BITMAP
1C00
1E00
6900
8880
8880
4900
3E00
0800
ENDCHAR
STARTCHAR 0425
ENCODING 1061
SWIDTH 1000 0
DWIDTH 12 0
BBX 8 8 2 1
BITMAP
E7
24
28
10
18
24
42
C3
ENDCHAR
STARTCHAR 0426
ENCODING 1062
SWIDTH 1000 0
DWIDTH 12 0
BBX 8 10 2 -1
BITMAP
E7
42
42
42
42
42
42
FF
01
01
ENDCHAR
STARTCHAR 0427
ENCODING 1063
SWIDTH 1000 0
DWIDTH 12 0
BBX 8 8 2 1
BITMAP
E7
42
42
42
3E
02
02
02
ENDCHAR
STARTCHAR 0428
ENCODING 1064
SWIDTH 1000 0
DWIDTH 12 0
BBX 10 8 1 1
BITMAP
EFC0
4480
4480
4480
4480
4480
4480
FFC0
ENDCHAR
STARTCHAR 0429
ENCODING 1065
SWIDTH 1000 0
DWIDTH 12 0
BBX 10 10 1 -1
BITMAP
FDC0
4880
4880
4880
4880
4880
4880
FFC0
0040
0040
ENDCHAR
STARTCHAR 042A
ENCODING 1066
SWIDTH 1000 0
DWIDTH 12 0
BBX 8 8 2 1
BITMAP
F0
20
20
20
3E
21
21
7E
ENDCHAR
STARTCHAR 042B
ENCODING 1067
SWIDTH 1000 0
DWIDTH 12 0
BBX 10 8 1 1
BITMAP
E1C0
4080
4080
4080
7C80
4280
4280
FDC0
ENDCHAR
STARTCHAR 042C
ENCODING 1068
SWIDTH 1000 0
DWIDTH 12 0
BBX 7 8 3 1
BITMAP
E0
40
40
40
7C
42
42
FC
ENDCHAR
STARTCHAR 042D
ENCODING 1069
SWIDTH 1000 0
DWIDTH 12 0
BBX 8 9 2 0
BITMAP
FC
86
03
7F
01
03
03
86
7C
ENDCHAR
STARTCHAR 042E
ENCODING 1070
SWIDTH 1000 0
DWIDTH 12 0
BBX 10 9 1 0
BITMAP
E700
4880
5040
5040
7040
5040
5040
4880
A700
ENDCHAR
STARTCHAR 042F
ENCODING 1071
SWIDTH 1000 0
DWIDTH 12 0
BBX 8 9 2 0
BITMAP
3F
42
42
42
3E
12
22
42
85
ENDCHAR
STARTCHAR 0430
ENCODING 1072
SWIDTH 1000 0
DWIDTH 12 0
BBX 7 6 3 0
BITMAP
78
C8
38
C8
88
7E
ENDCHAR
STARTCHAR 0431
ENCODING 1073
SWIDTH 1000 0
DWIDTH 12 0
BBX 6 9 3 1
BITMAP
04
78
80
F8
84
84
84
CC
78
ENDCHAR
STARTCHAR 0432
ENCODING 1074
SWIDTH 1000 0
DWIDTH 12 0
BBX 6 5 3 1
BITMAP
FC
44
78
44
F8
ENDCHAR
STARTCHAR 0433
ENCODING 1075
SWIDTH 1000 0
DWIDTH 12 0
BBX 6 5 3 1
BITMAP
FC
44
40
40
40
ENDCHAR
STARTCHAR 0434
ENCODING 1076
SWIDTH 1000 0
DWIDTH 12 0
BBX 6 7 3 -1
BITMAP
7C
48
48
88
FC
04
04
ENDCHAR
STARTCHAR 0435
ENCODING 1077
SWIDTH 1000 0
DWIDTH 12 0
BBX 6 6 3 0
BITMAP
78
88
FC
80
C4
78
ENDCHAR
STARTCHAR 0436
ENCODING 1078
SWIDTH 1000 0
DWIDTH 12 0
BBX 9 5 2 1
BITMAP
DD80
4A00
3E00
4900
4900
ENDCHAR
STARTCHAR 0437
ENCODING 1079
SWIDTH 1000 0
DWIDTH 12 0
BBX 4 6 4 0
BITMAP
F0
10
60
10
10
E0
ENDCHAR
STARTCHAR 0438
ENCODING 1080
SWIDTH 1000 0
DWIDTH 12 0
BBX 6 5 3 1
BITMAP
FC
48
78
48
48
ENDCHAR
STARTCHAR 0439
ENCODING 1081
SWIDTH 1000 0
DWIDTH 12 0
BBX 6 7 3 1
BITMAP
30
30
CC
48
78
48
48
ENDCHAR
STARTCHAR 043A
ENCODING 1082
SWIDTH 1000 0
DWIDTH 12 0
BBX 7 5 3 1
BITMAP
EE
48
70
48
44
ENDCHAR
STARTCHAR 043B
ENCODING 1083
SWIDTH 1000 0
DWIDTH 12 0
BBX 8 6 1 0
BITMAP
3F
12
12
12
E2
E5
ENDCHAR
STARTCHAR 043C
ENCODING 1084
SWIDTH 1000 0
DWIDTH 12 0
BBX 8 5 2 1
BITMAP
E3
66
6A
5A
52
ENDCHAR
STARTCHAR 043D
ENCODING 1085
SWIDTH 1000 0
DWIDTH 12 0
BBX 6 5 3 1
BITMAP
FC
48
78
48
48
ENDCHAR
STARTCHAR 043E
ENCODING 1086
SWIDTH 1000 0
DWIDTH 12 0
BBX 6 6 3 0
BITMAP
78
C4
84
84
CC
78
ENDCHAR
STARTCHAR 043F
ENCODING 1087
SWIDTH 1000 0
DWIDTH 12 0
BBX 6 5 3 1
BITMAP
FC
48
48
48
48
ENDCHAR
STARTCHAR 0440
ENCODING 1088
SWIDTH 1000 0
DWIDTH 12 0
BBX 6 7 3 0
BITMAP
F8
44
44
44
78
40
40
ENDCHAR
STARTCHAR 0441
ENCODING 1089
SWIDTH 1000 0
DWIDTH 12 0
BBX 6 6 3 0
BITMAP
78
C8
80
80
CC
78
ENDCHAR
STARTCHAR 0442
ENCODING 1090
SWIDTH 1000 0
DWIDTH 12 0
BBX 6 5 3 1
BITMAP
FC
94
10
10
10
ENDCHAR
STARTCHAR 0443
ENCODING 1091
SWIDTH 1000 0
DWIDTH 12 0
BBX 7 7 3 -1
BITMAP
EE
48
28
30
10
20
E0
ENDCHAR
STARTCHAR 0444
ENCODING 1092
SWIDTH 1000 0
DWIDTH 12 0
BBX 7 11 3 -1
BITMAP
10
30
10
10
7C
92
92
92
7C
10
10
ENDCHAR
STARTCHAR 0445
ENCODING 1093
SWIDTH 1000 0
DWIDTH 12 0
BBX 6 5 3 1
BITMAP
DC
30
30
58
8C
ENDCHAR
STARTCHAR 0446
ENCODING 1094
SWIDTH 1000 0
DWIDTH 12 0
BBX 6 7 3 -1
BITMAP
FC
48
48
48
FC
04
04
ENDCHAR
STARTCHAR 0447
ENCODING 1095
SWIDTH 1000 0
DWIDTH 12 0
BBX 6 5 3 1
BITMAP
FC
48
78
08
08
ENDCHAR
STARTCHAR 0448
ENCODING 1096
SWIDTH 1000 0
DWIDTH 12 0
BBX 10 5 1 1
BITMAP
EFC0
4480
4480
4480
FFC0
ENDCHAR
STARTCHAR 0449
ENCODING 1097
SWIDTH 1000 0
DWIDTH 12 0
BBX 10 7 1 -1
BITMAP
EFC0
4480
4480
4480
FFC0
0040
0040
ENDCHAR
STARTCHAR 044A
ENCODING 1098
SWIDTH 1000 0
DWIDTH 12 0
BBX 6 5 3 1
BITMAP
E0
40
7C
44
FC
ENDCHAR
STARTCHAR 044B
ENCODING 1099
SWIDTH 1000 0
DWIDTH 12 0
BBX 8 5 2 1
BITMAP
E7
42
7A
4A
FF
ENDCHAR
STARTCHAR 044C
ENCODING 1100
SWIDTH 1000 0
DWIDTH 12 0
BBX 6 5 3 1
BITMAP
E0
40
7C
44
FC
ENDCHAR
STARTCHAR 044D
ENCODING 1101
SWIDTH 1000 0
DWIDTH 12 0
BBX 6 6 2 0
BITMAP
78
84
3C
44
84
78
ENDCHAR
STARTCHAR 044E
ENCODING 1102
SWIDTH 1000 0
DWIDTH 12 0
BBX 9 6 2 0
BITMAP
EF00
5980
7080
5080
4980
AF00
ENDCHAR
STARTCHAR 044F
ENCODING 1103
SWIDTH 1000 0
DWIDTH 12 0
BBX 7 6 2 0
BITMAP
7E
44
7C
24
44
8A
ENDCHAR
STARTCHAR 0451
ENCODING 1105
SWIDTH 1000 0
DWIDTH 12 0
BBX 6 8 3 0
BITMAP
48
00
78
88
FC
80
C4
78
ENDCHAR
STARTCHAR 1E3E
ENCODING 7742
SWIDTH 500 0
DWIDTH 6 0
BBX 6 9 0 1
BITMAP
30
CC
48
68
78
68
68
68
68
ENDCHAR
STARTCHAR 1E3F
ENCODING 7743
SWIDTH 500 0
DWIDTH 6 0
BBX 5 7 0 1
BITMAP
30
00
F8
58
58
58
58
ENDCHAR
STARTCHAR 1F70
ENCODING 8048
SWIDTH 500 0
DWIDTH 6 0
BBX 5 8 1 0
BITMAP
C0
20
70
90
90
90
90
78
ENDCHAR
STARTCHAR 1F71
ENCODING 8049
SWIDTH 500 0
DWIDTH 6 0
BBX 5 8 1 0
BITMAP
30
40
70
90
90
90
90
78
ENDCHAR
STARTCHAR 1F72
ENCODING 8050
SWIDTH 500 0
DWIDTH 6 0
BBX 4 8 1 0
BITMAP
C0
20
F0
80
60
80
90
F0
ENDCHAR
STARTCHAR 1F73
ENCODING 8051
SWIDTH 500 0
DWIDTH 6 0
BBX 4 8 1 0
BITMAP
30
40
F0
80
60
80
90
F0
ENDCHAR
STARTCHAR 2010
ENCODING 8208
SWIDTH 1000 0
DWIDTH 12 0
BBX 4 1 4 4
BITMAP
F0
ENDCHAR
STARTCHAR 2013
ENCODING 8211
SWIDTH 500 0
DWIDTH 6 0
BBX 2 1 2 4
BITMAP
C0
ENDCHAR
STARTCHAR 2014
ENCODING 8212
SWIDTH 1000 0
DWIDTH 12 0
BBX 10 1 1 4
BITMAP
FFC0
ENDCHAR
STARTCHAR 2015
ENCODING 8213
SWIDTH 1000 0
DWIDTH 12 0
BBX 10 1 1 4
BITMAP
FFC0
ENDCHAR
STARTCHAR 2016
ENCODING 8214
SWIDTH 1000 0
DWIDTH 12 0
BBX 2 12 5 -1
BITMAP
C0
C0
C0
C0
C0
C0
C0
C0
C0
C0
C0
C0
ENDCHAR
STARTCHAR 2018
ENCODING 8216
SWIDTH 1000 0
DWIDTH 12 0
BBX 2 3 9 8
BITMAP
40
80
C0
ENDCHAR
STARTCHAR 2019
ENCODING 8217
SWIDTH 1000 0
DWIDTH 12 0
BBX 2 3 1 6
BITMAP
C0
C0
80
ENDCHAR
STARTCHAR 201C
ENCODING 8220
SWIDTH 1000 0
DWIDTH 12 0
BBX 4 3 7 8
BITMAP
D0
A0
F0
ENDCHAR
STARTCHAR 201D
ENCODING 8221
SWIDTH 1000 0
DWIDTH 12 0
BBX 4 3 1 6
BITMAP
F0
D0
A0
ENDCHAR
STARTCHAR 2020
ENCODING 8224
SWIDTH 1000 0
DWIDTH 12 0
BBX 5 11 4 -1
BITMAP
70
70
F8
F8
20
20
20
20
20
20
20
ENDCHAR
STARTCHAR 2021
ENCODING 8225
SWIDTH 1000 0
DWIDTH 12 0
BBX 4 11 4 -1
BITMAP
60
60
F0
40
40
40
40
40
F0
60
60
ENDCHAR
STARTCHAR 2022
ENCODING 8226
SWIDTH 500 0
DWIDTH 6 0
BBX 2 3 2 3
BITMAP
40
C0
C0
ENDCHAR
STARTCHAR 2025
ENCODING 8229
SWIDTH 1000 0
DWIDTH 12 0
BBX 8 2 2 4
BITMAP
C3
C3
ENDCHAR
STARTCHAR 2026
ENCODING 8230
SWIDTH 1000 0
DWIDTH 12 0
BBX 9 1 1 4
BITMAP
8880
ENDCHAR
STARTCHAR 2030
ENCODING 8240
SWIDTH 1000 0
DWIDTH 12 0
BBX 10 11 1 -1
BITMAP
4400
A800
A800
B000
5000
2000
2880
5540
5540
9540
8880
ENDCHAR
STARTCHAR 2032
ENCODING 8242
SWIDTH 1000 0
DWIDTH 12 0
BBX 2 3 0 6
BITMAP
40
40
80
ENDCHAR
STARTCHAR 2033
ENCODING 8243
SWIDTH 1000 0
DWIDTH 12 0
BBX 4 3 0 6
BITMAP
50
50
A0
ENDCHAR
STARTCHAR 203B
ENCODING 8251
SWIDTH 1000 0
DWIDTH 12 0
BBX 10 11 1 -1
BITMAP
0C00
8CC0
4100
2200
D4C0
C8C0
1400
2200
4D00
8C80
0040
ENDCHAR
STARTCHAR 203C
ENCODING 8252
SWIDTH 500 0
DWIDTH 6 0
BBX 4 11 1 -1
BITMAP
90
90
90
90
90
90
90
A0
00
00
90
ENDCHAR
STARTCHAR 203E
ENCODING 8254
SWIDTH 1000 0
DWIDTH 12 0
BBX 12 1 0 10
BITMAP
FFF0
ENDCHAR
STARTCHAR 203F
ENCODING 8255
SWIDTH 500 0
DWIDTH 6 0
BBX 4 1 1 0
BITMAP
F0
ENDCHAR
STARTCHAR 2042
ENCODING 8258
SWIDTH 500 0
DWIDTH 6 0
BBX 6 7 0 1
BITMAP
30
20
30
00
FC
48
FC
ENDCHAR
STARTCHAR 2047
ENCODING 8263
SWIDTH 500 0
DWIDTH 6 0
BBX 6 11 0 -1
BITMAP
6C
B4
B4
24
48
48
48
48
00
00
88
ENDCHAR
STARTCHAR 2048
ENCODING 8264
SWIDTH 500 0
DWIDTH 6 0
BBX 5 11 1 -1
BITMAP
68
A8
A8
28
48
48
48
48
00
00
88
ENDCHAR
STARTCHAR 2049
ENCODING 8265
SWIDTH 500 0
DWIDTH 6 0
BBX 5 11 0 -1
BITMAP
98
E8
A8
88
90
90
90
90
00
00
A0
ENDCHAR
STARTCHAR 2051
ENCODING 8273
SWIDTH 1000 0
DWIDTH 12 0
BBX 4 9 4 0
BITMAP
40
F0
D0
40
00
40
D0
F0
40
ENDCHAR
STARTCHAR 20AC
ENCODING 8364
SWIDTH 500 0
DWIDTH 6 0
BBX 5 9 0 0
BITMAP
38
48
40
F0
40
F0
48
48
30
ENDCHAR
STARTCHAR 2103
ENCODING 8451
SWIDTH 1000 0
DWIDTH 12 0
BBX 10 10 0 0
BITMAP
E000
E7C0
0840
1040
1000
1000
1000
1040
0840
0780
ENDCHAR
STARTCHAR 210F
ENCODING 8463
SWIDTH 500 0
DWIDTH 6 0
BBX 6 9 0 0
BITMAP
60
30
20
58
68
48
48
8C
08
ENDCHAR
STARTCHAR 2113
ENCODING 8467
SWIDTH 500 0
DWIDTH 6 0
BBX 6 9 0 0
BITMAP
18
28
28
48
50
60
4C
C8
30
ENDCHAR
STARTCHAR 2116
ENCODING 8470
SWIDTH 1000 0
DWIDTH 12 0
BBX 12 9 0 0
BITMAP
EE00
6400
64C0
5520
5520
4D20
4520
44D0
A000
ENDCHAR
STARTCHAR 2121
ENCODING 8481
SWIDTH 1000 0
DWIDTH 12 0
BBX 10 8 1 1
BITMAP
F000
5000
4F80
4900
4D00
4D00
4D00
4940
ENDCHAR
STARTCHAR 2127
ENCODING 8487
SWIDTH 500 0
DWIDTH 6 0
BBX 4 9 1 0
BITMAP
F0
70
90
90
90
90
90
90
60
ENDCHAR
STARTCHAR 212B
ENCODING 8491
SWIDTH 1000 0
DWIDTH 12 0
BBX 7 9 2 1
BITMAP
38
18
10
28
28
44
3C
42
82
ENDCHAR
STARTCHAR 2135
ENCODING 8501
SWIDTH 500 0
DWIDTH 6 0
BBX 6 9 0 1
BITMAP
48
4C
34
30
50
50
48
48
88
ENDCHAR
STARTCHAR 2153
ENCODING 8531
SWIDTH 500 0
DWIDTH 6 0
BBX 6 11 0 0
BITMAP
CC
48
50
50
50
BC
24
48
44
84
9C
ENDCHAR
STARTCHAR 2154
ENCODING 8532
SWIDTH 500 0
DWIDTH 6 0
BBX 6 11 0 -1
BITMAP
E4
A8
28
50
90
E0
3C
48
44
84
9C
ENDCHAR
STARTCHAR 2155
ENCODING 8533
SWIDTH 500 0
DWIDTH 6 0
BBX 6 11 0 0
BITMAP
CC
48
48
50
50
AC
30
4C
44
84
98
ENDCHAR
STARTCHAR 2160
ENCODING 8544
SWIDTH 1000 0
DWIDTH 12 0
BBX 3 8 5 1
BITMAP
E0
40
40
40
40
40
40
40
ENDCHAR
STARTCHAR 2161
ENCODING 8545
SWIDTH 1000 0
DWIDTH 12 0
BBX 6 8 3 1
BITMAP
FC
48
48
48
48
48
48
FC
ENDCHAR
STARTCHAR 2162
ENCODING 8546
SWIDTH 1000 0
DWIDTH 12 0
BBX 10 8 1 1
BITMAP
FFC0
4480
4480
4480
4480
4480
4480
FFC0
ENDCHAR
STARTCHAR 2163
ENCODING 8547
SWIDTH 1000 0
DWIDTH 12 0
BBX 10 9 1 0
BITMAP
FCC0
4880
4880
4500
4500
4500
4200
4200
A000
ENDCHAR
STARTCHAR 2164
ENCODING 8548
SWIDTH 1000 0
DWIDTH 12 0
BBX 8 9 2 0
BITMAP
E7
42
62
24
24
18
18
18
10
ENDCHAR
STARTCHAR 2165
ENCODING 8549
SWIDTH 1000 0
DWIDTH 12 0
BBX 10 9 1 0
BITMAP
E7C0
8480
4480
4880
2880
2880
1080
1080
0140
ENDCHAR
STARTCHAR 2166
ENCODING 8550
SWIDTH 1000 0
DWIDTH 12 0
BBX 11 9 0 0
BITMAP
EFE0
4540
4940
2940
2940
3140
3140
1140
02A0
ENDCHAR
STARTCHAR 2167
ENCODING 8551
SWIDTH 1000 0
DWIDTH 12 0
BBX 11 9 1 0
BITMAP
DFE0
8B40
5340
5340
5340
3340
2340
2340
04A0
ENDCHAR
STARTCHAR 2168
ENCODING 8552
SWIDTH 1000 0
DWIDTH 12 0
BBX 10 8 1 1
BITMAP
FDC0
4900
4500
4200
4500
4500
4880
FDC0
ENDCHAR
STARTCHAR 2169
ENCODING 8553
SWIDTH 1000 0
DWIDTH 12 0
BBX 8 8 2 1
BITMAP
E7
24
28
10
18
24
42
C3
ENDCHAR
STARTCHAR 216A
ENCODING 8554
SWIDTH 1000 0
DWIDTH 12 0
BBX 10 8 1 1
BITMAP
EFC0
4880
2880
3080
1080
2880
4880
8480
ENDCHAR
STARTCHAR 216B
ENCODING 8555
SWIDTH 1000 0
DWIDTH 12 0
BBX 11 8 0 1
BITMAP
EFE0
4940
3140
1140
1140
6940
8940
8540
ENDCHAR
STARTCHAR 2170
ENCODING 8560
SWIDTH 1000 0
DWIDTH 12 0
BBX 2 8 5 2
BITMAP
40
00
40
C0
40
40
40
40
ENDCHAR
STARTCHAR 2171
ENCODING 8561
SWIDTH 1000 0
DWIDTH 12 0
BBX 5 8 3 2
BITMAP
48
00
48
D8
48
48
48
48
ENDCHAR
STARTCHAR 2172
ENCODING 8562
SWIDTH 1000 0
DWIDTH 12 0
BBX 8 8 2 2
BITMAP
4A
00
DA
4A
4A
4A
4A
FF
ENDCHAR
STARTCHAR 2173
ENCODING 8563
SWIDTH 1000 0
DWIDTH 12 0
BBX 9 9 2 1
BITMAP
4000
0000
0000
DD80
4900
4600
4600
4600
A000
ENDCHAR
STARTCHAR 2174
ENCODING 8564
SWIDTH 1000 0
DWIDTH 12 0
BBX 6 6 3 0
BITMAP
CC
88
48
30
30
20
ENDCHAR
STARTCHAR 2175
ENCODING 8565
SWIDTH 1000 0
DWIDTH 12 0
BBX 10 9 0 1
BITMAP
0080
0000
0000
E780
4480
2880
2880
1080
0140
ENDCHAR
STARTCHAR 2176
ENCODING 8566
SWIDTH 1000 0
DWIDTH 12 0
BBX 11 9 0 1
BITMAP
0140
0000
0000
EFC0
4940
2940
3140
1140
02A0
ENDCHAR
STARTCHAR 2177
ENCODING 8567
SWIDTH 1000 0
DWIDTH 12 0
BBX 12 9 0 0
BITMAP
02A0
0000
0000
EFE0
4AA0
32A0
32A0
22A0
0550
ENDCHAR
STARTCHAR 2178
ENCODING 8568
SWIDTH 1000 0
DWIDTH 12 0
BBX 9 8 2 2
BITMAP
4000
0000
0000
DD80
4600
4200
4D00
5100
ENDCHAR
STARTCHAR 2179
ENCODING 8569
SWIDTH 1000 0
DWIDTH 12 0
BBX 6 5 3 1
BITMAP
DC
30
30
58
8C
ENDCHAR
STARTCHAR 217A
ENCODING 8570
SWIDTH 1000 0
DWIDTH 12 0
BBX 8 8 1 2
BITMAP
01
00
00
DF
31
21
51
89
ENDCHAR
STARTCHAR 217B
ENCODING 8571
SWIDTH 1000 0
DWIDTH 12 0
BBX 9 8 1 2
BITMAP
0280
0000
0000
DF80
6280
2280
5280
8A80
ENDCHAR
STARTCHAR 2190
ENCODING 8592
SWIDTH 1000 0
DWIDTH 12 0
BBX 11 5 0 2
BITMAP
3000
4000
FFE0
4000
2000
ENDCHAR
STARTCHAR 2191
ENCODING 8593
SWIDTH 1000 0
DWIDTH 12 0
BBX 4 11 4 -1
BITMAP
20
60
B0
30
20
20
20
20
20
20
20
ENDCHAR
STARTCHAR 2192
ENCODING 8594
SWIDTH 1000 0
DWIDTH 12 0
BBX 11 5 1 2
BITMAP
0180
0040
FFE0
0040
0080
ENDCHAR
STARTCHAR 2193
ENCODING 8595
SWIDTH 1000 0
DWIDTH 12 0
BBX 4 11 4 -1
BITMAP
20
20
20
20
20
20
20
30
B0
60
20
ENDCHAR
STARTCHAR 2194
ENCODING 8596
SWIDTH 500 0
DWIDTH 6 0
BBX 6 5 0 2
BITMAP
48
48
FC
48
48
ENDCHAR
STARTCHAR 2196
ENCODING 8598
SWIDTH 500 0
DWIDTH 6 0
BBX 5 9 0 1
BITMAP
20
78
60
A0
10
10
08
08
08
ENDCHAR
STARTCHAR 2197
ENCODING 8599
SWIDTH 500 0
DWIDTH 6 0
BBX 5 9 0 1
BITMAP
10
78
18
28
20
40
40
40
80
ENDCHAR
STARTCHAR 2198
ENCODING 8600
SWIDTH 500 0
DWIDTH 6 0
BBX 5 9 0 0
BITMAP
80
40
40
40
20
28
98
78
10
ENDCHAR
STARTCHAR 2199
ENCODING 8601
SWIDTH 500 0
DWIDTH 6 0
BBX 5 9 0 0
BITMAP
08
08
10
10
10
A0
68
70
20
ENDCHAR
STARTCHAR 21C4
ENCODING 8644
SWIDTH 500 0
DWIDTH 6 0
BBX 4 9 1 0
BITMAP
20
20
F0
20
00
40
F0
80
40
ENDCHAR
STARTCHAR 21D2
ENCODING 8658
SWIDTH 1000 0
DWIDTH 12 0
BBX 10 8 1 0
BITMAP
0200
0100
FF80
0040
0040
FF80
0100
0200
ENDCHAR
STARTCHAR 21D4
ENCODING 8660
SWIDTH 1000 0
DWIDTH 12 0
BBX 10 8 1 0
BITMAP
2200
2100
7F80
8040
8040
7F80
2100
2200
ENDCHAR
STARTCHAR 21E6
ENCODING 8678
SWIDTH 500 0
DWIDTH 6 0
BBX 4 3 1 3
BITMAP
40
B0
60
ENDCHAR
STARTCHAR 21E7
ENCODING 8679
SWIDTH 500 0
DWIDTH 6 0
BBX 5 9 0 1
BITMAP
20
50
88
70
30
30
30
30
30
ENDCHAR
STARTCHAR 21E8
ENCODING 8680
SWIDTH 500 0
DWIDTH 6 0
BBX 5 3 1 3
BITMAP
20
D8
F0
ENDCHAR
STARTCHAR 21E9
ENCODING 8681
SWIDTH 500 0
DWIDTH 6 0
BBX 5 9 0 -1
BITMAP
30
30
30
30
30
30
C8
50
30
ENDCHAR
STARTCHAR 2200
ENCODING 8704
SWIDTH 1000 0
DWIDTH 12 0
BBX 10 10 1 -1
BITMAP
8040
8080
4080
3F00
2100
2200
1200
1400
0C00
0800
ENDCHAR
STARTCHAR 2202
ENCODING 8706
SWIDTH 1000 0
DWIDTH 12 0
BBX 6 9 3 0
BITMAP
38
04
04
74
CC
84
88
98
70
ENDCHAR
STARTCHAR 2203
ENCODING 8707
SWIDTH 1000 0
DWIDTH 12 0
BBX 8 9 2 0
BITMAP
FF
01
01
01
FF
01
01
01
FF
ENDCHAR
STARTCHAR 2205
ENCODING 8709
SWIDTH 500 0
DWIDTH 6 0
BBX 4 7 1 1
BITMAP
10
60
B0
D0
D0
E0
80
ENDCHAR
STARTCHAR 2207
ENCODING 8711
SWIDTH 1000 0
DWIDTH 12 0
BBX 10 9 1 -1
BITMAP
FFC0
4080
4100
2100
2200
1200
1400
0C00
0800
ENDCHAR
STARTCHAR 2208
ENCODING 8712
SWIDTH 1000 0
DWIDTH 12 0
BBX 9 9 2 0
BITMAP
3F80
4000
8000
8000
FF80
8000
8000
4000
3F80
ENDCHAR
STARTCHAR 2209
ENCODING 8713
SWIDTH 500 0
DWIDTH 6 0
BBX 5 8 0 1
BITMAP
10
38
50
A0
F8
A0
60
38
ENDCHAR
STARTCHAR 220B
ENCODING 8715
SWIDTH 1000 0
DWIDTH 12 0
BBX 9 9 1 0
BITMAP
FE00
0100
0080
0080
FF80
0080
0080
0100
FE00
ENDCHAR
STARTCHAR 2212
ENCODING 8722
SWIDTH 500 0
DWIDTH 6 0
BBX 4 1 1 4
BITMAP
F0
ENDCHAR
STARTCHAR 2213
ENCODING 8723
SWIDTH 500 0
DWIDTH 6 0
BBX 4 8 1 0
BITMAP
F0
20
20
20
F0
20
20
20
ENDCHAR
STARTCHAR 221A
ENCODING 8730
SWIDTH 1000 0
DWIDTH 12 0
BBX 12 12 0 -1
BITMAP
03F0
0400
0400
0400
0800
0800
1000
5000
5000
E000
2000
2000
ENDCHAR
STARTCHAR 221D
ENCODING 8733
SWIDTH 1000 0
DWIDTH 12 0
BBX 10 3 1 3
BITMAP
73C0
8C00
77C0
ENDCHAR
STARTCHAR 221E
ENCODING 8734
SWIDTH 1000 0
DWIDTH 12 0
BBX 10 5 1 2
BITMAP
7380
8C40
8840
8C40
7380
ENDCHAR
STARTCHAR 221F
ENCODING 8735
SWIDTH 1000 0
DWIDTH 12 0
BBX 9 10 2 0
BITMAP
8000
8000
8000
8000
8000
8000
8000
8000
8000
FF80
ENDCHAR
STARTCHAR 2220
ENCODING 8736
SWIDTH 1000 0
DWIDTH 12 0
BBX 9 10 2 1
BITMAP
0080
0100
0200
0400
0800
1000
2000
4000
8000
FF80
ENDCHAR
STARTCHAR 2225
ENCODING 8741
SWIDTH 1000 0
DWIDTH 12 0
BBX 6 11 3 -1
BITMAP
14
18
28
28
30
50
50
60
A0
A0
C0
ENDCHAR
STARTCHAR 2226
ENCODING 8742
SWIDTH 500 0
DWIDTH 6 0
BBX 6 11 0 -1
BITMAP
14
18
28
68
30
70
50
58
A0
A0
A0
ENDCHAR
STARTCHAR 2227
ENCODING 8743
SWIDTH 1000 0
DWIDTH 12 0
BBX 10 10 1 0
BITMAP
0800
0C00
1400
1200
2200
2100
4100
4080
8080
8040
ENDCHAR
STARTCHAR 2228
ENCODING 8744
SWIDTH 1000 0
DWIDTH 12 0
BBX 10 10 1 -1
BITMAP
8040
8080
4080
4100
2100
2200
1200
1400
0C00
0800
ENDCHAR
STARTCHAR 2229
ENCODING 8745
SWIDTH 1000 0
DWIDTH 12 0
BBX 8 9 2 0
BITMAP
3C
42
81
81
81
81
81
81
81
ENDCHAR
STARTCHAR 222A
ENCODING 8746
SWIDTH 1000 0
DWIDTH 12 0
BBX 8 9 2 0
BITMAP
81
81
81
81
81
81
81
42
3C
ENDCHAR
STARTCHAR 222B
ENCODING 8747
SWIDTH 1000 0
DWIDTH 12 0
BBX 6 11 3 -1
BITMAP
0C
14
10
10
20
20
20
20
20
A0
C0
ENDCHAR
STARTCHAR 222C
ENCODING 8748
SWIDTH 1000 0
DWIDTH 12 0
BBX 10 11 1 -1
BITMAP
0CC0
1540
1100
1200
1200
2200
2200
2200
2200
AA00
CC00
ENDCHAR
STARTCHAR 222E
ENCODING 8750
SWIDTH 1000 0
DWIDTH 12 0
BBX 6 11 3 -1
BITMAP
0C
14
10
20
78
68
68
30
20
A0
C0
ENDCHAR
STARTCHAR 2234
ENCODING 8756
SWIDTH 1000 0
DWIDTH 12 0
BBX 8 8 2 1
BITMAP
18
18
00
00
00
00
C3
C3
ENDCHAR
STARTCHAR 2235
ENCODING 8757
SWIDTH 1000 0
DWIDTH 12 0
BBX 8 8 2 1
BITMAP
C3
C3
00
00
00
00
18
18
ENDCHAR
STARTCHAR 223D
ENCODING 8765
SWIDTH 1000 0
DWIDTH 12 0
BBX 12 5 0 2
BITMAP
70E0
8310
8410
8410
78E0
ENDCHAR
STARTCHAR 2243
ENCODING 8771
SWIDTH 500 0
DWIDTH 6 0
BBX 4 4 1 3
BITMAP
F0
00
00
F0
ENDCHAR
STARTCHAR 2245
ENCODING 8773
SWIDTH 500 0
DWIDTH 6 0
BBX 5 5 0 2
BITMAP
60
98
00
78
78
ENDCHAR
STARTCHAR 2248
ENCODING 8776
SWIDTH 500 0
DWIDTH 6 0
BBX 4 4 1 2
BITMAP
F0
00
D0
30
ENDCHAR
STARTCHAR 2252
ENCODING 8786
SWIDTH 1000 0
DWIDTH 12 0
BBX 8 7 2 0
BITMAP
40
00
FF
00
FF
00
04
ENDCHAR
STARTCHAR 2260
ENCODING 8800
SWIDTH 1000 0
DWIDTH 12 0
BBX 8 9 2 0
BITMAP
04
04
08
FF
10
FF
20
20
40
ENDCHAR
STARTCHAR 2261
ENCODING 8801
SWIDTH 1000 0
DWIDTH 12 0
BBX 8 5 2 2
BITMAP
FF
00
FF
00
FF
ENDCHAR
STARTCHAR 2262
ENCODING 8802
SWIDTH 500 0
DWIDTH 6 0
BBX 4 7 1 1
BITMAP
20
F0
20
F0
40
F0
80
ENDCHAR
STARTCHAR 2266
ENCODING 8806
SWIDTH 1000 0
DWIDTH 12 0
BBX 8 10 2 0
BITMAP
01
0E
70
C0
38
07
00
FF
00
FF
ENDCHAR
STARTCHAR 2267
ENCODING 8807
SWIDTH 1000 0
DWIDTH 12 0
BBX 8 10 2 0
BITMAP
80
70
0E
03
1C
E0
00
FF
00
FF
ENDCHAR
STARTCHAR 226A
ENCODING 8810
SWIDTH 1000 0
DWIDTH 12 0
BBX 10 11 1 -1
BITMAP
02C0
0D00
1200
2400
4800
B000
5800
2400
1200
0900
0680
ENDCHAR
STARTCHAR 226B
ENCODING 8811
SWIDTH 1000 0
DWIDTH 12 0
BBX 10 11 1 -1
BITMAP
D000
2800
1600
0900
0480
0240
0480
0900
1200
2C00
5000
ENDCHAR
STARTCHAR 2276
ENCODING 8822
SWIDTH 500 0
DWIDTH 6 0
BBX 5 9 0 0
BITMAP
08
10
60
20
58
30
08
30
C0
ENDCHAR
STARTCHAR 2277
ENCODING 8823
SWIDTH 500 0
DWIDTH 6 0
BBX 4 9 1 0
BITMAP
80
40
30
20
D0
60
80
60
10
ENDCHAR
STARTCHAR 2282
ENCODING 8834
SWIDTH 1000 0
DWIDTH 12 0
BBX 9 9 2 0
BITMAP
3F80
4000
8000
8000
8000
8000
C000
6000
3F80
ENDCHAR
STARTCHAR 2283
ENCODING 8835
SWIDTH 1000 0
DWIDTH 12 0
BBX 9 9 1 0
BITMAP
FE00
0300
0180
0080
0080
0080
0080
0100
FE00
ENDCHAR
STARTCHAR 2284
ENCODING 8836
SWIDTH 500 0
DWIDTH 6 0
BBX 5 8 0 1
BITMAP
10
38
50
90
A0
A0
60
38
ENDCHAR
STARTCHAR 2285
ENCODING 8837
SWIDTH 500 0
DWIDTH 6 0
BBX 5 9 1 0
BITMAP
20
E0
30
28
48
48
50
E0
80
ENDCHAR
STARTCHAR 2286
ENCODING 8838
SWIDTH 1000 0
DWIDTH 12 0
BBX 10 9 1 0
BITMAP
3FC0
C000
8000
8000
C000
3FC0
0000
0000
FFC0
ENDCHAR
STARTCHAR 2287
ENCODING 8839
SWIDTH 1000 0
DWIDTH 12 0
BBX 10 9 1 0
BITMAP
FF00
00C0
0040
0040
00C0
FF00
0000
0000
FFC0
ENDCHAR
STARTCHAR 228A
ENCODING 8842
SWIDTH 500 0
DWIDTH 6 0
BBX 4 8 1 0
BITMAP
70
80
80
80
80
70
F0
40
ENDCHAR
STARTCHAR 228B
ENCODING 8843
SWIDTH 500 0
DWIDTH 6 0
BBX 4 8 1 0
BITMAP
E0
10
10
10
10
E0
F0
40
ENDCHAR
STARTCHAR 2295
ENCODING 8853
SWIDTH 500 0
DWIDTH 6 0
BBX 6 5 0 2
BITMAP
78
D4
FC
9C
78
ENDCHAR
STARTCHAR 2296
ENCODING 8854
SWIDTH 500 0
DWIDTH 6 0
BBX 6 5 0 2
BITMAP
78
C4
FC
8C
78
ENDCHAR
STARTCHAR 2297
ENCODING 8855
SWIDTH 500 0
DWIDTH 6 0
BBX 6 5 0 2
BITMAP
78
D4
BC
BC
78
ENDCHAR
STARTCHAR 22A5
ENCODING 8869
SWIDTH 1000 0
DWIDTH 12 0
BBX 10 10 1 0
BITMAP
0400
0400
0400
0400
0400
0400
0400
0400
0400
FFC0
ENDCHAR
STARTCHAR 22BF
ENCODING 8895
SWIDTH 1000 0
DWIDTH 12 0
BBX 10 10 1 1
BITMAP
0040
00C0
0140
0240
0440
0840
1040
2040
4040
FFC0
ENDCHAR
STARTCHAR 22DA
ENCODING 8922
SWIDTH 500 0
DWIDTH 6 0
BBX 5 10 0 0
BITMAP
18
60
30
08
78
80
60
18
30
40
ENDCHAR
STARTCHAR 22DB
ENCODING 8923
SWIDTH 500 0
DWIDTH 6 0
BBX 5 10 0 0
BITMAP
60
18
30
C0
78
08
10
60
30
08
ENDCHAR
STARTCHAR 2305
ENCODING 8965
SWIDTH 500 0
DWIDTH 6 0
BBX 4 6 1 1
BITMAP
F0
40
60
60
A0
90
ENDCHAR
STARTCHAR 2306
ENCODING 8966
SWIDTH 500 0
DWIDTH 6 0
BBX 4 7 1 1
BITMAP
F0
00
F0
40
60
A0
90
ENDCHAR
STARTCHAR 2312
ENCODING 8978
SWIDTH 1000 0
DWIDTH 12 0
BBX 12 3 0 6
BITMAP
1F80
6060
8010
ENDCHAR
STARTCHAR 2318
ENCODING 8984
SWIDTH 1000 0
DWIDTH 12 0
BBX 12 11 0 -1
BITMAP
6060
9090
9090
7FE0
1080
1080
1080
7FE0
9090
9090
6060
ENDCHAR
STARTCHAR 23BE
ENCODING 9150
SWIDTH 1000 0
DWIDTH 12 0
BBX 6 12 6 -1
BITMAP
FC
80
80
80
80
80
80
80
80
80
80
80
ENDCHAR
STARTCHAR 23BF
ENCODING 9151
SWIDTH 1000 0
DWIDTH 12 0
BBX 6 12 6 -1
BITMAP
80
80
80
80
80
80
80
80
80
80
80
FC
ENDCHAR
STARTCHAR 23C0
ENCODING 9152
SWIDTH 1000 0
DWIDTH 12 0
BBX 9 12 2 -1
BITMAP
0800
0C00
7B00
4900
8880
8880
8880
8880
8900
4A00
3C00
0800
ENDCHAR
STARTCHAR 23C1
ENCODING 9153
SWIDTH 1000 0
DWIDTH 12 0
BBX 12 12 0 -1
BITMAP
FFF0
0200
0F80
1240
2220
2220
2220
2220
2240
1240
0F80
0200
ENDCHAR
STARTCHAR 23C2
ENCODING 9154
SWIDTH 1000 0
DWIDTH 12 0
BBX 12 12 0 -1
BITMAP
0200
0700
1AC0
3240
2220
2220
2220
2220
1240
0A80
0700
FFF0
ENDCHAR
STARTCHAR 23C3
ENCODING 9155
SWIDTH 1000 0
DWIDTH 12 0
BBX 11 12 1 -1
BITMAP
0400
0400
0400
0E00
1600
2500
2480
4480
4440
8440
FFE0
0400
ENDCHAR
STARTCHAR 23C4
ENCODING 9156
SWIDTH 1000 0
DWIDTH 12 0
BBX 12 12 0 -1
BITMAP
FFF0
0200
0200
0700
0B00
0A80
1280
2240
2240
4220
7FE0
0200
ENDCHAR
STARTCHAR 23C5
ENCODING 9157
SWIDTH 1000 0
DWIDTH 12 0
BBX 12 12 0 -1
BITMAP
0200
0200
0200
0700
0B00
1280
1280
2240
2240
4220
7FE0
FFF0
ENDCHAR
STARTCHAR 23C6
ENCODING 9158
SWIDTH 1000 0
DWIDTH 12 0
BBX 11 12 1 -1
BITMAP
0400
0400
0400
0400
0400
FC00
07E0
0400
0400
0400
0400
0400
ENDCHAR
STARTCHAR 23C7
ENCODING 9159
SWIDTH 1000 0
DWIDTH 12 0
BBX 12 12 0 -1
BITMAP
FFF0
0200
0200
0200
0200
7A00
0720
02E0
0200
0200
0200
0200
ENDCHAR
STARTCHAR 23C8
ENCODING 9160
SWIDTH 1000 0
DWIDTH 12 0
BBX 12 12 0 -1
BITMAP
0200
0200
0200
0200
3A00
C600
03E0
0200
0200
0200
0200
FFF0
ENDCHAR
STARTCHAR 23C9
ENCODING 9161
SWIDTH 1000 0
DWIDTH 12 0
BBX 12 12 0 -1
BITMAP
FFF0
0200
0200
0200
0200
0200
0200
0200
0200
0200
0200
0200
ENDCHAR
STARTCHAR 23CA
ENCODING 9162
SWIDTH 1000 0
DWIDTH 12 0
BBX 12 12 0 -1
BITMAP
0200
0200
0200
0200
0200
0200
0200
0200
0200
0200
0200
FFF0
ENDCHAR
STARTCHAR 23CB
ENCODING 9163
SWIDTH 1000 0
DWIDTH 12 0
BBX 6 12 0 -1
BITMAP
FC
04
04
04
04
04
04
04
04
04
04
04
ENDCHAR
STARTCHAR 23CC
ENCODING 9164
SWIDTH 1000 0
DWIDTH 12 0
BBX 6 12 0 -1
BITMAP
04
04
04
04
04
04
04
04
04
04
04
FC
ENDCHAR
STARTCHAR 23CE
ENCODING 9166
SWIDTH 1000 0
DWIDTH 12 0
BBX 11 10 0 -1
BITMAP
01E0
0120
0120
0920
1920
6F20
8020
4FC0
3800
0800
ENDCHAR
STARTCHAR 2423
ENCODING 9251
SWIDTH 1000 0
DWIDTH 12 0
BBX 10 2 1 0
BITMAP
8040
FFC0
ENDCHAR
STARTCHAR 2460
ENCODING 9312
SWIDTH 1000 0
DWIDTH 12 0
BBX 11 11 1 -1
BITMAP
1F00
6180
4C40
8460
8420
8420
8420
8420
8440
6A80
1F00
ENDCHAR
STARTCHAR 2461
ENCODING 9313
SWIDTH 1000 0
DWIDTH 12 0
BBX 10 11 1 -1
BITMAP
1E00
6D80
5280
9240
8240
8440
8A40
9240
5E80
2100
1E00
ENDCHAR
STARTCHAR 2462
ENCODING 9314
SWIDTH 1000 0
DWIDTH 12 0
BBX 11 11 0 -1
BITMAP
0F00
31C0
4E40
8960
8120
8620
8120
9120
5940
2E80
1F00
ENDCHAR
STARTCHAR 2463
ENCODING 9315
SWIDTH 1000 0
DWIDTH 12 0
BBX 11 11 1 -1
BITMAP
1E00
6180
4440
9C40
9420
A420
BF20
8420
8440
6A80
1F00
ENDCHAR
STARTCHAR 2464
ENCODING 9316
SWIDTH 1000 0
DWIDTH 12 0
BBX 10 11 1 -1
BITMAP
1E00
6100
5E80
90C0
9040
AE40
9140
9140
A380
5F00
3E00
ENDCHAR
STARTCHAR 2465
ENCODING 9317
SWIDTH 1000 0
DWIDTH 12 0
BBX 10 11 1 -1
BITMAP
1E00
6180
4E80
92C0
9040
9C40
9240
9240
8C80
6100
1E00
ENDCHAR
STARTCHAR 2466
ENCODING 9318
SWIDTH 1000 0
DWIDTH 12 0
BBX 11 11 1 -1
BITMAP
1F00
6180
5F40
9260
A220
8220
8420
8420
8440
6480
1F00
ENDCHAR
STARTCHAR 2467
ENCODING 9319
SWIDTH 1000 0
DWIDTH 12 0
BBX 10 11 1 -1
BITMAP
1E00
6180
4E80
92C0
9240
8C40
B340
A140
9E80
6100
1E00
ENDCHAR
STARTCHAR 2468
ENCODING 9320
SWIDTH 1000 0
DWIDTH 12 0
BBX 10 11 1 -1
BITMAP
1E00
6180
5C80
92C0
9240
8E40
8240
9240
9C80
6100
1E00
ENDCHAR
STARTCHAR 2469
ENCODING 9321
SWIDTH 1000 0
DWIDTH 12 0
BBX 11 11 1 -1
BITMAP
1F00
6180
7340
94E0
94A0
94A0
94A0
94A0
9340
6880
1F00
ENDCHAR
STARTCHAR 246A
ENCODING 9322
SWIDTH 1000 0
DWIDTH 12 0
BBX 10 11 1 -1
BITMAP
1E00
6100
7680
9240
9240
9240
9240
9240
9280
6D00
1E00
ENDCHAR
STARTCHAR 246B
ENCODING 9323
SWIDTH 1000 0
DWIDTH 12 0
BBX 10 11 1 -1
BITMAP
1F00
6180
7780
9540
9140
9240
9440
9540
7780
2900
1E00
ENDCHAR
STARTCHAR 246C
ENCODING 9324
SWIDTH 1000 0
DWIDTH 12 0
BBX 11 11 1 -1
BITMAP
1F00
6180
7740
9560
9120
9220
91A0
94A0
9740
6880
1F00
ENDCHAR
STARTCHAR 246D
ENCODING 9325
SWIDTH 1000 0
DWIDTH 12 0
BBX 11 11 1 -1
BITMAP
1E00
6180
7240
9640
9A20
9A20
9FA0
9220
9240
6580
1F00
ENDCHAR
STARTCHAR 246E
ENCODING 9326
SWIDTH 1000 0
DWIDTH 12 0
BBX 11 11 1 -1
BITMAP
1F00
6180
73C0
9460
9420
9320
90A0
94A0
9740
6880
1F00
ENDCHAR
STARTCHAR 246F
ENCODING 9327
SWIDTH 1000 0
DWIDTH 12 0
BBX 11 11 1 -1
BITMAP
1F00
2180
73C0
96E0
9420
97A0
94A0
94A0
5340
2880
1F00
ENDCHAR
STARTCHAR 2470
ENCODING 9328
SWIDTH 1000 0
DWIDTH 12 0
BBX 10 11 1 -1
BITMAP
1E00
6100
7780
9940
9240
9240
9240
9240
9280
6900
1E00
ENDCHAR
STARTCHAR 2471
ENCODING 9329
SWIDTH 1000 0
DWIDTH 12 0
BBX 11 11 1 -1
BITMAP
1F00
6180
73C0
92E0
92A0
9320
94A0
94A0
9340
6880
1F00
ENDCHAR
STARTCHAR 2472
ENCODING 9330
SWIDTH 1000 0
DWIDTH 12 0
BBX 11 11 1 -1
BITMAP
1F00
6180
7340
94E0
94A0
93A0
90A0
96A0
9740
6880
1F00
ENDCHAR
STARTCHAR 2473
ENCODING 9331
SWIDTH 1000 0
DWIDTH 12 0
BBX 12 11 0 -1
BITMAP
1F80
60C0
7CA0
A570
8550
8950
9150
A550
7CA0
3040
0F80
ENDCHAR
STARTCHAR 24D0
ENCODING 9424
SWIDTH 1000 0
DWIDTH 12 0
BBX 11 11 1 -1
BITMAP
1F00
6180
4040
9E60
9220
8E20
9220
9F20
8040
6080
1F00
ENDCHAR
STARTCHAR 24D1
ENCODING 9425
SWIDTH 1000 0
DWIDTH 12 0
BBX 11 11 0 -1
BITMAP
1F00
21C0
5840
8860
8F20
88A0
88A0
88A0
4F40
2080
1F00
ENDCHAR
STARTCHAR 24D2
ENCODING 9426
SWIDTH 1000 0
DWIDTH 12 0
BBX 10 11 1 -1
BITMAP
1E00
6180
4080
8EC0
9240
9040
9240
8C40
8080
6100
1E00
ENDCHAR
STARTCHAR 24D3
ENCODING 9427
SWIDTH 1000 0
DWIDTH 12 0
BBX 11 11 1 -1
BITMAP
1F00
6180
4640
8260
9E20
A220
A220
A220
9F40
6080
1F00
ENDCHAR
STARTCHAR 24D4
ENCODING 9428
SWIDTH 1000 0
DWIDTH 12 0
BBX 10 11 1 -1
BITMAP
1E00
6180
4080
9E40
9240
AC40
9240
8C40
8080
6100
1E00
ENDCHAR
STARTCHAR 24D5
ENCODING 9429
SWIDTH 1000 0
DWIDTH 12 0
BBX 11 11 0 -1
BITMAP
1F00
61C0
4740
8460
8E20
8420
8420
8420
4440
2A80
1F00
ENDCHAR
STARTCHAR 24D6
ENCODING 9430
SWIDTH 1000 0
DWIDTH 12 0
BBX 10 11 1 -1
BITMAP
1E00
6180
4F80
92C0
9240
9C40
9E40
9240
9E80
6100
1E00
ENDCHAR
STARTCHAR 24D7
ENCODING 9431
SWIDTH 1000 0
DWIDTH 12 0
BBX 11 11 0 -1
BITMAP
0F00
3180
5840
8860
8F20
8920
8920
8920
4940
3680
1F00
ENDCHAR
STARTCHAR 24D8
ENCODING 9432
SWIDTH 1000 0
DWIDTH 12 0
BBX 11 11 1 -1
BITMAP
1F00
2180
4440
8060
8C20
8420
8420
8420
8440
6A80
1F00
ENDCHAR
STARTCHAR 24D9
ENCODING 9433
SWIDTH 1000 0
DWIDTH 12 0
BBX 12 11 0 -1
BITMAP
0F00
32C0
4020
8230
8610
8210
8210
8210
4A20
3C40
0F80
ENDCHAR
STARTCHAR 24DA
ENCODING 9434
SWIDTH 1000 0
DWIDTH 12 0
BBX 11 11 0 -1
BITMAP
1F00
2180
5840
8860
8BA0
8A20
8E20
8A20
8940
7480
1F00
ENDCHAR
STARTCHAR 24DB
ENCODING 9435
SWIDTH 1000 0
DWIDTH 12 0
BBX 11 11 1 -1
BITMAP
1F00
2180
4C40
8460
8420
8420
8420
8420
8440
6A80
1F00
ENDCHAR
STARTCHAR 24DC
ENCODING 9436
SWIDTH 1000 0
DWIDTH 12 0
BBX 11 11 0 -1
BITMAP
0F00
3080
4040
7DE0
92A0
92A0
92A0
92A0
6C40
2080
1F00
ENDCHAR
STARTCHAR 24DD
ENCODING 9437
SWIDTH 1000 0
DWIDTH 12 0
BBX 11 11 0 -1
BITMAP
0F00
3180
4040
9F60
8920
8920
8920
8920
56C0
2080
1F00
ENDCHAR
STARTCHAR 24DE
ENCODING 9438
SWIDTH 1000 0
DWIDTH 12 0
BBX 10 11 1 -1
BITMAP
1E00
6180
4080
9CC0
9240
9240
9240
8C40
8080
6100
1E00
ENDCHAR
STARTCHAR 24DF
ENCODING 9439
SWIDTH 1000 0
DWIDTH 12 0
BBX 11 11 0 -1
BITMAP
0F00
3180
4040
9F60
88A0
88A0
8F20
8820
4840
3480
1F00
ENDCHAR
STARTCHAR 24E0
ENCODING 9440
SWIDTH 1000 0
DWIDTH 12 0
BBX 11 11 1 -1
BITMAP
1E00
6180
4040
9E60
A220
A220
9E20
8220
8240
6580
1F00
ENDCHAR
STARTCHAR 24E1
ENCODING 9441
SWIDTH 1000 0
DWIDTH 12 0
BBX 12 11 0 -1
BITMAP
0F00
30C0
4020
8DA0
8610
8410
8410
8410
4A20
2040
1F80
ENDCHAR
STARTCHAR 24E2
ENCODING 9442
SWIDTH 1000 0
DWIDTH 12 0
BBX 12 11 0 -1
BITMAP
0F00
30C0
4020
8F30
8910
8610
9110
9910
4620
3040
0F80
ENDCHAR
STARTCHAR 24E3
ENCODING 9443
SWIDTH 1000 0
DWIDTH 12 0
BBX 12 11 0 -1
BITMAP
0F00
30C0
4020
8420
8F10
8410
8410
8710
4020
3040
1F80
ENDCHAR
STARTCHAR 24E4
ENCODING 9444
SWIDTH 1000 0
DWIDTH 12 0
BBX 12 11 0 -1
BITMAP
0F00
30C0
4020
9B30
8910
8910
8910
8F90
4020
3040
0F80
ENDCHAR
STARTCHAR 24E5
ENCODING 9445
SWIDTH 1000 0
DWIDTH 12 0
BBX 10 10 1 0
BITMAP
3F00
4180
8080
B340
9240
8C40
8C40
8880
4100
3E00
ENDCHAR
STARTCHAR 24E6
ENCODING 9446
SWIDTH 1000 0
DWIDTH 12 0
BBX 10 10 1 0
BITMAP
3F00
4180
8080
ED40
A540
9E40
9240
9280
4100
3E00
ENDCHAR
STARTCHAR 24E7
ENCODING 9447
SWIDTH 1000 0
DWIDTH 12 0
BBX 10 11 1 -1
BITMAP
1E00
6180
4080
BBC0
8C40
8440
9C40
9240
A180
4100
3E00
ENDCHAR
STARTCHAR 24E8
ENCODING 9448
SWIDTH 1000 0
DWIDTH 12 0
BBX 10 11 1 -1
BITMAP
1E00
6100
4080
BBC0
9240
8C40
8440
8840
9880
4100
3E00
ENDCHAR
STARTCHAR 24E9
ENCODING 9449
SWIDTH 1000 0
DWIDTH 12 0
BBX 11 11 0 -1
BITMAP
0F00
31C0
4040
8F60
8220
8420
8920
8F20
4040
2080
1F00
ENDCHAR
STARTCHAR 24EB
ENCODING 9451
SWIDTH 1000 0
DWIDTH 12 0
BBX 11 11 1 -1
BITMAP
1F00
3F80
5CC0
FEE0
FEE0
FEE0
FEE0
FEE0
7EC0
3F80
1F00
ENDCHAR
STARTCHAR 24EC
ENCODING 9452
SWIDTH 1000 0
DWIDTH 12 0
BBX 11 11 0 -1
BITMAP
1F00
3FC0
6D40
ED60
EF60
EEE0
EFE0
EDE0
6640
3F80
1F00
ENDCHAR
STARTCHAR 24ED
ENCODING 9453
SWIDTH 1000 0
DWIDTH 12 0
BBX 12 11 0 -1
BITMAP
1F00
3FC0
4DE0
EDF0
EFF0
EFF0
EFB0
EDB0
6DE0
3FC0
0F00
ENDCHAR
STARTCHAR 24EE
ENCODING 9454
SWIDTH 1000 0
DWIDTH 12 0
BBX 12 11 0 -1
BITMAP
0F00
3FC0
4F60
EF70
ED70
EB70
E830
EF70
6F60
3FC0
0F00
ENDCHAR
STARTCHAR 24EF
ENCODING 9455
SWIDTH 1000 0
DWIDTH 12 0
BBX 11 11 0 -1
BITMAP
1F00
3F80
4C40
EFE0
EFE0
EDE0
EFE0
EDE0
6FC0
3F80
1F00
ENDCHAR
STARTCHAR 24F0
ENCODING 9456
SWIDTH 1000 0
DWIDTH 12 0
BBX 11 11 0 -1
BITMAP
1F00
3F80
4F40
ED60
EFE0
EFE0
EFE0
EFE0
6FC0
3F80
1F00
ENDCHAR
STARTCHAR 24F1
ENCODING 9457
SWIDTH 1000 0
DWIDTH 12 0
BBX 11 11 0 -1
BITMAP
1F00
3F80
4C40
EFE0
EFE0
EFE0
EEE0
EEE0
6EC0
3F80
1F00
ENDCHAR
STARTCHAR 24F2
ENCODING 9458
SWIDTH 1000 0
DWIDTH 12 0
BBX 11 11 0 -1
BITMAP
1F00
3F80
4F40
EFE0
ED60
EEE0
EBE0
EBE0
6FC0
3F80
1F00
ENDCHAR
STARTCHAR 24F3
ENCODING 9459
SWIDTH 1000 0
DWIDTH 12 0
BBX 11 11 0 -1
BITMAP
1F00
3F80
4FC0
EFE0
EFE0
EFE0
EFE0
ED60
6FC0
3F80
1F00
ENDCHAR
STARTCHAR 24F4
ENCODING 9460
SWIDTH 1000 0
DWIDTH 12 0
BBX 12 11 0 -1
BITMAP
1F80
3FC0
7BE0
CAB0
FAB0
F6B0
EEB0
DAB0
43E0
3FC0
0F00
ENDCHAR
STARTCHAR 24F5
ENCODING 9461
SWIDTH 1000 0
DWIDTH 12 0
BBX 11 11 1 -1
BITMAP
3F00
7F80
4CC0
8460
8460
8460
8460
8460
44C0
6B80
3F00
ENDCHAR
STARTCHAR 24F6
ENCODING 9462
SWIDTH 1000 0
DWIDTH 12 0
BBX 10 11 1 -1
BITMAP
1E00
6100
4D80
92C0
82C0
84C0
88C0
92C0
5F80
6300
3E00
ENDCHAR
STARTCHAR 24F7
ENCODING 9463
SWIDTH 1000 0
DWIDTH 12 0
BBX 12 11 0 -1
BITMAP
0F00
30C0
4E60
8930
8130
8630
8130
C960
4E60
31C0
1F80
ENDCHAR
STARTCHAR 24F8
ENCODING 9464
SWIDTH 1000 0
DWIDTH 12 0
BBX 12 11 0 -1
BITMAP
1F80
3FC0
6260
CE30
CA30
D230
DFB0
C230
6260
35C0
1F80
ENDCHAR
STARTCHAR 24F9
ENCODING 9465
SWIDTH 1000 0
DWIDTH 12 0
BBX 12 11 0 -1
BITMAP
1F00
3FC0
4FA0
C850
8830
8E10
8110
C960
4E20
31C0
1F80
ENDCHAR
STARTCHAR 24FA
ENCODING 9466
SWIDTH 1000 0
DWIDTH 12 0
BBX 12 11 0 -1
BITMAP
1F00
3FC0
47A0
C950
8830
8E10
8910
C960
4620
31C0
1F80
ENDCHAR
STARTCHAR 24FB
ENCODING 9467
SWIDTH 1000 0
DWIDTH 12 0
BBX 11 11 0 -1
BITMAP
1F00
2F80
4FC0
9260
9260
8460
8460
8460
44C0
2180
1F00
ENDCHAR
STARTCHAR 24FC
ENCODING 9468
SWIDTH 1000 0
DWIDTH 12 0
BBX 12 11 0 -1
BITMAP
1F00
3FC0
47A0
C950
8930
8E10
8910
C960
4620
31C0
1F80
ENDCHAR
STARTCHAR 24FD
ENCODING 9469
SWIDTH 1000 0
DWIDTH 12 0
BBX 12 11 0 -1
BITMAP
1F00
3FC0
4EA0
C950
8930
8710
8110
C960
4E20
31C0
1F80
ENDCHAR
STARTCHAR 24FE
ENCODING 9470
SWIDTH 1000 0
DWIDTH 12 0
BBX 11 11 1 -1
BITMAP
3F00
7F80
53C0
B4E0
94E0
94E0
94E0
94E0
53C0
6980
3F00
ENDCHAR
STARTCHAR 2500
ENCODING 9472
SWIDTH 1000 0
DWIDTH 12 0
BBX 12 1 0 4
BITMAP
FFF0
ENDCHAR
STARTCHAR 2501
ENCODING 9473
SWIDTH 1000 0
DWIDTH 12 0
BBX 12 1 0 4
BITMAP
FFF0
ENDCHAR
STARTCHAR 2502
ENCODING 9474
SWIDTH 1000 0
DWIDTH 12 0
BBX 1 12 6 -1
BITMAP
80
80
80
80
80
80
80
80
80
80
80
80
ENDCHAR
STARTCHAR 2503
ENCODING 9475
SWIDTH 1000 0
DWIDTH 12 0
BBX 1 12 5 -1
BITMAP
80
80
80
80
80
80
80
80
80
80
80
80
ENDCHAR
STARTCHAR 250C
ENCODING 9484
SWIDTH 1000 0
DWIDTH 12 0
BBX 6 6 6 -1
BITMAP
FC
80
80
80
80
80
ENDCHAR
STARTCHAR 250F
ENCODING 9487
SWIDTH 1000 0
DWIDTH 12 0
BBX 7 6 5 -1
BITMAP
FE
80
80
80
80
80
ENDCHAR
STARTCHAR 2510
ENCODING 9488
SWIDTH 1000 0
DWIDTH 12 0
BBX 6 6 0 -1
BITMAP
FC
04
04
04
04
04
ENDCHAR
STARTCHAR 2513
ENCODING 9491
SWIDTH 1000 0
DWIDTH 12 0
BBX 7 6 0 -1
BITMAP
FE
02
02
02
02
02
ENDCHAR
STARTCHAR 2514
ENCODING 9492
SWIDTH 1000 0
DWIDTH 12 0
BBX 6 7 6 4
BITMAP
80
80
80
80
80
80
FC
ENDCHAR
STARTCHAR 2517
ENCODING 9495
SWIDTH 1000 0
DWIDTH 12 0
BBX 7 7 5 4
BITMAP
80
80
80
80
80
80
FE
ENDCHAR
STARTCHAR 2518
ENCODING 9496
SWIDTH 1000 0
DWIDTH 12 0
BBX 6 7 0 4
BITMAP
04
04
04
04
04
04
FC
ENDCHAR
STARTCHAR 251B
ENCODING 9499
SWIDTH 1000 0
DWIDTH 12 0
BBX 7 7 0 4
BITMAP
02
02
02
02
02
02
FE
ENDCHAR
STARTCHAR 251C
ENCODING 9500
SWIDTH 1000 0
DWIDTH 12 0
BBX 6 12 6 -1
BITMAP
80
80
80
80
80
80
FC
80
80
80
80
80
ENDCHAR
STARTCHAR 251D
ENCODING 9501
SWIDTH 1000 0
DWIDTH 12 0
BBX 6 12 6 -1
BITMAP
80
80
80
80
80
80
FC
80
80
80
80
80
ENDCHAR
STARTCHAR 2520
ENCODING 9504
SWIDTH 1000 0
DWIDTH 12 0
BBX 7 12 5 -1
BITMAP
80
80
80
80
80
80
FE
80
80
80
80
80
ENDCHAR
STARTCHAR 2523
ENCODING 9507
SWIDTH 1000 0
DWIDTH 12 0
BBX 7 12 5 -1
BITMAP
80
80
80
80
80
80
FE
80
80
80
80
80
ENDCHAR
STARTCHAR 2524
ENCODING 9508
SWIDTH 1000 0
DWIDTH 12 0
BBX 6 12 0 -1
BITMAP
04
04
04
04
04
04
FC
04
04
04
04
04
ENDCHAR
STARTCHAR 2525
ENCODING 9509
SWIDTH 1000 0
DWIDTH 12 0
BBX 6 12 0 -1
BITMAP
04
04
04
04
04
04
FC
04
04
04
04
04
ENDCHAR
STARTCHAR 2528
ENCODING 9512
SWIDTH 1000 0
DWIDTH 12 0
BBX 7 12 0 -1
BITMAP
02
02
02
02
02
02
FE
02
02
02
02
02
ENDCHAR
STARTCHAR 252B
ENCODING 9515
SWIDTH 1000 0
DWIDTH 12 0
BBX 7 12 0 -1
BITMAP
02
02
02
02
02
02
FE
02
02
02
02
02
ENDCHAR
STARTCHAR 252C
ENCODING 9516
SWIDTH 1000 0
DWIDTH 12 0
BBX 12 6 0 -1
BITMAP
FFF0
0200
0200
0200
0200
0200
ENDCHAR
STARTCHAR 252F
ENCODING 9519
SWIDTH 1000 0
DWIDTH 12 0
BBX 12 6 0 -1
BITMAP
FFF0
0200
0200
0200
0200
0200
ENDCHAR
STARTCHAR 2530
ENCODING 9520
SWIDTH 1000 0
DWIDTH 12 0
BBX 12 6 0 -1
BITMAP
FFF0
0400
0400
0400
0400
0400
ENDCHAR
STARTCHAR 2533
ENCODING 9523
SWIDTH 1000 0
DWIDTH 12 0
BBX 12 6 0 -1
BITMAP
FFF0
0400
0400
0400
0400
0400
ENDCHAR
STARTCHAR 2534
ENCODING 9524
SWIDTH 1000 0
DWIDTH 12 0
BBX 12 7 0 4
BITMAP
0200
0200
0200
0200
0200
0200
FFF0
ENDCHAR
STARTCHAR 2537
ENCODING 9527
SWIDTH 1000 0
DWIDTH 12 0
BBX 12 7 0 4
BITMAP
0200
0200
0200
0200
0200
0200
FFF0
ENDCHAR
STARTCHAR 2538
ENCODING 9528
SWIDTH 1000 0
DWIDTH 12 0
BBX 12 7 0 4
BITMAP
0400
0400
0400
0400
0400
0400
FFF0
ENDCHAR
STARTCHAR 253B
ENCODING 9531
SWIDTH 1000 0
DWIDTH 12 0
BBX 12 7 0 4
BITMAP
0400
0400
0400
0400
0400
0400
FFF0
ENDCHAR
STARTCHAR 253C
ENCODING 9532
SWIDTH 1000 0
DWIDTH 12 0
BBX 12 12 0 -1
BITMAP
0200
0200
0200
0200
0200
0200
FFF0
0200
0200
0200
0200
0200
ENDCHAR
STARTCHAR 253F
ENCODING 9535
SWIDTH 1000 0
DWIDTH 12 0
BBX 12 12 0 -1
BITMAP
0200
0200
0200
0200
0200
0200
FFF0
0200
0200
0200
0200
0200
ENDCHAR
STARTCHAR 2542
ENCODING 9538
SWIDTH 1000 0
DWIDTH 12 0
BBX 12 12 0 -1
BITMAP
0400
0400
0400
0400
0400
0400
FFF0
0400
0400
0400
0400
0400
ENDCHAR
STARTCHAR 254B
ENCODING 9547
SWIDTH 1000 0
DWIDTH 12 0
BBX 12 12 0 -1
BITMAP
0400
0400
0400
0400
0400
0400
FFF0
0400
0400
0400
0400
0400
ENDCHAR
STARTCHAR 25A0
ENCODING 9632
SWIDTH 1000 0
DWIDTH 12 0
BBX 8 9 2 0
BITMAP
FF
FF
FF
FF
FF
FF
FF
FF
FF
ENDCHAR
STARTCHAR 25A1
ENCODING 9633
SWIDTH 1000 0
DWIDTH 12 0
BBX 8 9 2 0
BITMAP
FF
81
81
81
81
81
81
81
FF
ENDCHAR
STARTCHAR 25B1
ENCODING 9649
SWIDTH 500 0
DWIDTH 6 0
BBX 5 3 1 3
BITMAP
F8
90
F0
ENDCHAR
STARTCHAR 25B2
ENCODING 9650
SWIDTH 1000 0
DWIDTH 12 0
BBX 10 9 1 1
BITMAP
0800
0C00
0C00
1E00
3F00
3F00
7F80
7F80
FFC0
ENDCHAR
STARTCHAR 25B3
ENCODING 9651
SWIDTH 1000 0
DWIDTH 12 0
BBX 10 10 1 0
BITMAP
0800
0C00
1400
1200
2200
2100
4100
4080
8080
FFC0
ENDCHAR
STARTCHAR 25B6
ENCODING 9654
SWIDTH 500 0
DWIDTH 6 0
BBX 5 6 1 1
BITMAP
80
C0
F0
F8
E0
C0
ENDCHAR
STARTCHAR 25B7
ENCODING 9655
SWIDTH 500 0
DWIDTH 6 0
BBX 5 7 1 1
BITMAP
80
C0
B0
88
90
E0
80
ENDCHAR
STARTCHAR 25BC
ENCODING 9660
SWIDTH 1000 0
DWIDTH 12 0
BBX 10 9 1 -1
BITMAP
FFC0
7F80
7F80
3F00
3F00
1E00
0C00
0C00
0800
ENDCHAR
STARTCHAR 25BD
ENCODING 9661
SWIDTH 1000 0
DWIDTH 12 0
BBX 10 10 1 -1
BITMAP
FFC0
8080
4080
4100
2100
2200
1200
1400
0C00
0800
ENDCHAR
STARTCHAR 25C0
ENCODING 9664
SWIDTH 500 0
DWIDTH 6 0
BBX 5 7 0 1
BITMAP
08
18
78
F8
38
18
08
ENDCHAR
STARTCHAR 25C1
ENCODING 9665
SWIDTH 500 0
DWIDTH 6 0
BBX 6 7 -1 1
BITMAP
04
1C
24
C4
64
14
0C
ENDCHAR
STARTCHAR 25C6
ENCODING 9670
SWIDTH 1000 0
DWIDTH 12 0
BBX 10 11 1 -1
BITMAP
0800
0C00
1E00
3F00
7F80
FFC0
7F80
3F00
1E00
0C00
0800
ENDCHAR
STARTCHAR 25C7
ENCODING 9671
SWIDTH 1000 0
DWIDTH 12 0
BBX 11 11 0 -1
BITMAP
0400
0A00
1100
2080
4040
8020
4040
2080
1100
0A00
0400
ENDCHAR
STARTCHAR 25C9
ENCODING 9673
SWIDTH 500 0
DWIDTH 6 0
BBX 6 5 0 2
BITMAP
78
BC
BC
FC
78
ENDCHAR
STARTCHAR 25CB
ENCODING 9675
SWIDTH 1000 0
DWIDTH 12 0
BBX 10 10 1 0
BITMAP
1E00
6180
4080
8040
8040
8040
8040
8080
4180
3E00
ENDCHAR
STARTCHAR 25CE
ENCODING 9678
SWIDTH 1000 0
DWIDTH 12 0
BBX 10 11 1 -1
BITMAP
1E00
2100
5E80
B140
A140
A140
B340
9E40
4080
2100
1E00
ENDCHAR
STARTCHAR 25CF
ENCODING 9679
SWIDTH 1000 0
DWIDTH 12 0
BBX 10 10 1 0
BITMAP
1E00
7F80
7F80
FFC0
FFC0
FFC0
FFC0
7F80
7F80
1E00
ENDCHAR
STARTCHAR 25D0
ENCODING 9680
SWIDTH 500 0
DWIDTH 6 0
BBX 6 5 0 2
BITMAP
78
E4
E4
E4
68
ENDCHAR
STARTCHAR 25D1
ENCODING 9681
SWIDTH 500 0
DWIDTH 6 0
BBX 6 5 0 2
BITMAP
78
9C
9C
9C
58
ENDCHAR
STARTCHAR 25D2
ENCODING 9682
SWIDTH 500 0
DWIDTH 6 0
BBX 6 6 0 2
BITMAP
78
8C
84
FC
FC
78
ENDCHAR
STARTCHAR 25D3
ENCODING 9683
SWIDTH 500 0
DWIDTH 6 0
BBX 6 6 0 2
BITMAP
78
FC
FC
84
88
70
ENDCHAR
STARTCHAR 25E6
ENCODING 9702
SWIDTH 500 0
DWIDTH 6 0
BBX 2 3 2 3
BITMAP
C0
C0
C0
ENDCHAR
STARTCHAR 25EF
ENCODING 9711
SWIDTH 1000 0
DWIDTH 12 0
BBX 10 11 1 -1
BITMAP
1E00
6180
4080
80C0
8040
8040
8040
8040
8080
6100
1E00
ENDCHAR
STARTCHAR 2600
ENCODING 9728
SWIDTH 1000 0
DWIDTH 12 0
BBX 12 11 0 -1
BITMAP
0200
2240
1080
0F00
1F80
FFF0
1F80
1F80
1F80
2240
0200
ENDCHAR
STARTCHAR 2601
ENCODING 9729
SWIDTH 1000 0
DWIDTH 12 0
BBX 10 9 1 -1
BITMAP
1C00
3E00
3EC0
3FC0
FFC0
FFC0
FFC0
77C0
0380
ENDCHAR
STARTCHAR 2602
ENCODING 9730
SWIDTH 1000 0
DWIDTH 12 0
BBX 12 11 0 -1
BITMAP
0200
0F80
3FE0
3FE0
D250
9250
0200
0200
0200
0200
0E00
ENDCHAR
STARTCHAR 2603
ENCODING 9731
SWIDTH 1000 0
DWIDTH 12 0
BBX 12 11 0 0
BITMAP
8520
1280
C440
1BA0
2680
6080
1690
E240
4040
4240
2080
ENDCHAR
STARTCHAR 2605
ENCODING 9733
SWIDTH 1000 0
DWIDTH 12 0
BBX 12 11 0 0
BITMAP
0400
0600
0600
0600
FFF0
3FC0
0F00
1F80
1980
1080
2040
ENDCHAR
STARTCHAR 2606
ENCODING 9734
SWIDTH 1000 0
DWIDTH 12 0
BBX 12 12 0 -1
BITMAP
0400
0600
0600
0A00
F9F0
4040
3080
1100
1480
2B80
1080
6040
ENDCHAR
STARTCHAR 260E
ENCODING 9742
SWIDTH 1000 0
DWIDTH 12 0
BBX 10 9 1 0
BITMAP
7F80
D2C0
D2C0
3F00
3300
6180
6180
F3C0
FFC0
ENDCHAR
STARTCHAR 2616
ENCODING 9750
SWIDTH 1000 0
DWIDTH 12 0
BBX 10 10 1 1
BITMAP
0C00
3300
4080
8080
8080
8080
8080
8040
8040
FFC0
ENDCHAR
STARTCHAR 2617
ENCODING 9751
SWIDTH 1000 0
DWIDTH 12 0
BBX 10 10 1 0
BITMAP
0800
1E00
7F80
7F80
7F80
7F80
7F80
FFC0
FFC0
FFC0
ENDCHAR
STARTCHAR 261E
ENCODING 9758
SWIDTH 1000 0
DWIDTH 12 0
BBX 10 5 1 2
BITMAP
FFC0
4FC0
7700
4B00
7600
ENDCHAR
STARTCHAR 2640
ENCODING 9792
SWIDTH 1000 0
DWIDTH 12 0
BBX 8 11 2 -1
BITMAP
3C
66
42
42
24
18
08
FF
08
08
08
ENDCHAR
STARTCHAR 2642
ENCODING 9794
SWIDTH 1000 0
DWIDTH 12 0
BBX 9 9 2 0
BITMAP
0780
0180
0280
0480
7800
8800
8800
8800
7000
ENDCHAR
STARTCHAR 2660
ENCODING 9824
SWIDTH 500 0
DWIDTH 6 0
BBX 6 7 0 1
BITMAP
20
30
78
FC
FC
FC
30
ENDCHAR
STARTCHAR 2661
ENCODING 9825
SWIDTH 500 0
DWIDTH 6 0
BBX 6 7 0 1
BITMAP
FC
A4
84
84
48
50
20
ENDCHAR
STARTCHAR 2662
ENCODING 9826
SWIDTH 500 0
DWIDTH 6 0
BBX 5 7 0 1
BITMAP
30
50
48
88
48
50
30
ENDCHAR
STARTCHAR 2663
ENCODING 9827
SWIDTH 500 0
DWIDTH 6 0
BBX 6 7 0 1
BITMAP
30
30
30
FC
FC
78
30
ENDCHAR
STARTCHAR 2664
ENCODING 9828
SWIDTH 500 0
DWIDTH 6 0
BBX 6 8 0 1
BITMAP
20
30
48
84
84
FC
30
30
ENDCHAR
STARTCHAR 2665
ENCODING 9829
SWIDTH 500 0
DWIDTH 6 0
BBX 6 7 0 1
BITMAP
FC
FC
FC
7C
78
30
20
ENDCHAR
STARTCHAR 2666
ENCODING 9830
SWIDTH 500 0
DWIDTH 6 0
BBX 4 7 1 1
BITMAP
60
60
F0
F0
F0
60
60
ENDCHAR
STARTCHAR 2667
ENCODING 9831
SWIDTH 500 0
DWIDTH 6 0
BBX 6 7 0 1
BITMAP
30
30
4C
84
FC
30
30
ENDCHAR
STARTCHAR 2668
ENCODING 9832
SWIDTH 1000 0
DWIDTH 12 0
BBX 10 10 1 0
BITMAP
0800
2900
2900
2900
2500
A580
A540
CA40
C0C0
3F00
ENDCHAR
STARTCHAR 2669
ENCODING 9833
SWIDTH 500 0
DWIDTH 6 0
BBX 3 7 1 1
BITMAP
20
20
20
20
20
E0
E0
ENDCHAR
STARTCHAR 266A
ENCODING 9834
SWIDTH 1000 0
DWIDTH 12 0
BBX 8 10 2 0
BITMAP
10
18
14
12
11
11
11
12
F0
F0
ENDCHAR
STARTCHAR 266B
ENCODING 9835
SWIDTH 500 0
DWIDTH 6 0
BBX 5 7 0 1
BITMAP
18
28
28
28
28
38
E0
ENDCHAR
STARTCHAR 266C
ENCODING 9836
SWIDTH 500 0
DWIDTH 6 0
BBX 5 7 0 1
BITMAP
18
28
38
28
28
38
E0
ENDCHAR
STARTCHAR 266D
ENCODING 9837
SWIDTH 1000 0
DWIDTH 12 0
BBX 5 10 4 -1
BITMAP
80
80
80
80
F0
88
88
90
A0
C0
ENDCHAR
STARTCHAR 266E
ENCODING 9838
SWIDTH 500 0
DWIDTH 6 0
BBX 2 7 2 1
BITMAP
80
C0
C0
C0
C0
40
40
ENDCHAR
STARTCHAR 266F
ENCODING 9839
SWIDTH 1000 0
DWIDTH 12 0
BBX 8 11 2 -1
BITMAP
04
24
24
2F
F4
24
27
FC
24
24
20
ENDCHAR
STARTCHAR 2713
ENCODING 10003
SWIDTH 1000 0
DWIDTH 12 0
BBX 8 8 3 1
BITMAP
01
02
04
08
08
90
A0
40
ENDCHAR
STARTCHAR 2756
ENCODING 10070
SWIDTH 1000 0
DWIDTH 12 0
BBX 10 11 1 -1
BITMAP
0800
0C00
1E00
4D00
6980
F3C0
6980
4D00
1E00
0C00
0800
ENDCHAR
STARTCHAR 2776
ENCODING 10102
SWIDTH 1000 0
DWIDTH 12 0
BBX 11 11 1 -1
BITMAP
1F00
3F80
7BC0
FBE0
FBE0
FBE0
FBE0
FBE0
7BC0
3F80
1F00
ENDCHAR
STARTCHAR 2777
ENCODING 10103
SWIDTH 1000 0
DWIDTH 12 0
BBX 10 11 1 -1
BITMAP
1E00
7380
6D80
EDC0
FFC0
FBC0
F7C0
FFC0
6180
3F00
1E00
ENDCHAR
STARTCHAR 2778
ENCODING 10104
SWIDTH 1000 0
DWIDTH 12 0
BBX 11 11 0 -1
BITMAP
0F00
3FC0
77C0
FEE0
FEE0
F9E0
FFE0
EFE0
6FC0
3180
1F00
ENDCHAR
STARTCHAR 2779
ENCODING 10105
SWIDTH 1000 0
DWIDTH 12 0
BBX 11 11 1 -1
BITMAP
1E00
3F80
7BC0
FBC0
EBE0
FBE0
C0E0
FBE0
7BC0
3F80
1F00
ENDCHAR
STARTCHAR 277A
ENCODING 10106
SWIDTH 1000 0
DWIDTH 12 0
BBX 10 11 1 -1
BITMAP
1E00
3F00
6180
EFC0
EFC0
FDC0
FEC0
EEC0
7C80
3100
1E00
ENDCHAR
STARTCHAR 277B
ENCODING 10107
SWIDTH 1000 0
DWIDTH 12 0
BBX 10 11 1 -1
BITMAP
1E00
7F80
7D80
EDC0
FFC0
EFC0
FFC0
FFC0
7F80
3F00
1E00
ENDCHAR
STARTCHAR 277C
ENCODING 10108
SWIDTH 1000 0
DWIDTH 12 0
BBX 11 11 1 -1
BITMAP
1F00
3F80
60C0
EFE0
FDE0
FDE0
FBE0
FBE0
7BC0
3F80
1F00
ENDCHAR
STARTCHAR 277D
ENCODING 10109
SWIDTH 1000 0
DWIDTH 12 0
BBX 10 11 1 -1
BITMAP
1E00
7F80
7D80
EDC0
EDC0
FBC0
DEC0
DEC0
6D80
3F00
1E00
ENDCHAR
STARTCHAR 277E
ENCODING 10110
SWIDTH 1000 0
DWIDTH 12 0
BBX 10 11 1 -1
BITMAP
1E00
7F80
7F80
FFC0
FFC0
FDC0
FFC0
EDC0
6F80
3F00
1E00
ENDCHAR
STARTCHAR 277F
ENCODING 10111
SWIDTH 1000 0
DWIDTH 12 0
BBX 11 11 0 -1
BITMAP
0F00
3F80
4FC0
EFE0
EFE0
EFE0
EFE0
EFE0
6F40
3F80
1F00
ENDCHAR
STARTCHAR 2934
ENCODING 10548
SWIDTH 500 0
DWIDTH 6 0
BBX 4 10 1 0
BITMAP
20
20
F0
20
20
20
20
20
20
C0
ENDCHAR
STARTCHAR 2935
ENCODING 10549
SWIDTH 500 0
DWIDTH 6 0
BBX 4 10 1 -1
BITMAP
C0
20
20
20
20
20
20
B0
60
20
ENDCHAR
STARTCHAR 29BF
ENCODING 10687
SWIDTH 1000 0
DWIDTH 12 0
BBX 10 11 1 -1
BITMAP
1E00
2100
4080
8040
9C40
9C40
9C40
8040
4080
2100
1E00
ENDCHAR
STARTCHAR 29FA
ENCODING 10746
SWIDTH 500 0
DWIDTH 6 0
BBX 4 7 1 1
BITMAP
60
60
60
F0
60
60
60
ENDCHAR
STARTCHAR 29FB
ENCODING 10747
SWIDTH 500 0
DWIDTH 6 0
BBX 4 7 1 1
BITMAP
B0
B0
B0
F0
B0
B0
B0
ENDCHAR
STARTCHAR 3000
ENCODING 12288
SWIDTH 1000 0
DWIDTH 12 0
BBX 0 0 0 0
BITMAP
ENDCHAR
STARTCHAR 3001
ENCODING 12289
SWIDTH 1000 0
DWIDTH 12 0
BBX 3 3 0 -1
BITMAP
80
60
20
ENDCHAR
STARTCHAR 3002
ENCODING 12290
SWIDTH 1000 0
DWIDTH 12 0
BBX 3 3 1 -1
BITMAP
C0
A0
E0
ENDCHAR
STARTCHAR 3003
ENCODING 12291
SWIDTH 1000 0
DWIDTH 12 0
BBX 5 5 3 2
BITMAP
28
48
50
90
A0
ENDCHAR
STARTCHAR 3005
ENCODING 12293
SWIDTH 1000 0
DWIDTH 12 0
BBX 7 8 2 1
BITMAP
20
10
22
3E
44
A8
18
04
ENDCHAR
STARTCHAR 3006
ENCODING 12294
SWIDTH 1000 0
DWIDTH 12 0
BBX 8 9 2 0
BITMAP
03
02
04
38
58
A4
A0
C0
80
ENDCHAR
STARTCHAR 3007
ENCODING 12295
SWIDTH 1000 0
DWIDTH 12 0
BBX 10 9 1 0
BITMAP
3E00
4180
8080
8040
8040
8040
4080
6180
1E00
ENDCHAR
STARTCHAR 3008
ENCODING 12296
SWIDTH 1000 0
DWIDTH 12 0
BBX 5 11 6 -1
BITMAP
08
10
20
20
40
80
40
20
20
10
08
ENDCHAR
STARTCHAR 3009
ENCODING 12297
SWIDTH 1000 0
DWIDTH 12 0
BBX 4 11 1 -1
BITMAP
80
80
40
20
10
10
10
20
40
80
80
ENDCHAR
STARTCHAR 300A
ENCODING 12298
SWIDTH 1000 0
DWIDTH 12 0
BBX 6 11 6 -1
BITMAP
1C
28
30
50
60
C0
60
50
30
28
18
ENDCHAR
STARTCHAR 300B
ENCODING 12299
SWIDTH 1000 0
DWIDTH 12 0
BBX 6 11 0 -1
BITMAP
A0
60
50
30
18
14
18
30
50
60
A0
ENDCHAR
STARTCHAR 300C
ENCODING 12300
SWIDTH 1000 0
DWIDTH 12 0
BBX 3 9 8 1
BITMAP
E0
80
80
80
80
80
80
80
80
ENDCHAR
STARTCHAR 300D
ENCODING 12301
SWIDTH 1000 0
DWIDTH 12 0
BBX 3 9 1 -1
BITMAP
20
20
20
20
20
20
20
20
E0
ENDCHAR
STARTCHAR 300E
ENCODING 12302
SWIDTH 1000 0
DWIDTH 12 0
BBX 4 9 7 1
BITMAP
F0
F0
C0
C0
C0
C0
C0
C0
C0
ENDCHAR
STARTCHAR 300F
ENCODING 12303
SWIDTH 1000 0
DWIDTH 12 0
BBX 4 9 1 -1
BITMAP
30
30
30
30
30
30
F0
90
F0
ENDCHAR
STARTCHAR 3010
ENCODING 12304
SWIDTH 1000 0
DWIDTH 12 0
BBX 2 11 8 -1
BITMAP
C0
80
80
00
00
00
00
00
80
80
C0
ENDCHAR
STARTCHAR 3011
ENCODING 12305
SWIDTH 1000 0
DWIDTH 12 0
BBX 2 11 2 -1
BITMAP
C0
40
40
40
40
40
40
40
40
40
C0
ENDCHAR
STARTCHAR 3012
ENCODING 12306
SWIDTH 1000 0
DWIDTH 12 0
BBX 8 10 2 -1
BITMAP
FF
00
00
FF
10
10
10
10
10
10
ENDCHAR
STARTCHAR 3013
ENCODING 12307
SWIDTH 1000 0
DWIDTH 12 0
BBX 8 5 2 2
BITMAP
FF
00
00
FF
FF
ENDCHAR
STARTCHAR 3014
ENCODING 12308
SWIDTH 1000 0
DWIDTH 12 0
BBX 2 11 9 0
BITMAP
40
80
80
80
80
80
80
80
80
80
40
ENDCHAR
STARTCHAR 3015
ENCODING 12309
SWIDTH 1000 0
DWIDTH 12 0
BBX 3 11 1 0
BITMAP
80
60
20
20
20
20
20
20
20
20
C0
ENDCHAR
STARTCHAR 3016
ENCODING 12310
SWIDTH 1000 0
DWIDTH 12 0
BBX 4 11 8 -1
BITMAP
F0
A0
A0
A0
A0
A0
A0
A0
A0
A0
F0
ENDCHAR
STARTCHAR 3017
ENCODING 12311
SWIDTH 1000 0
DWIDTH 12 0
BBX 4 11 0 -1
BITMAP
F0
90
50
50
50
50
50
50
50
90
F0
ENDCHAR
STARTCHAR 3018
ENCODING 12312
SWIDTH 1000 0
DWIDTH 12 0
BBX 3 11 8 0
BITMAP
20
E0
C0
C0
C0
C0
C0
C0
C0
A0
60
ENDCHAR
STARTCHAR 3019
ENCODING 12313
SWIDTH 1000 0
DWIDTH 12 0
BBX 3 11 1 0
BITMAP
80
E0
60
20
20
20
20
20
60
A0
C0
ENDCHAR
STARTCHAR 301C
ENCODING 12316
SWIDTH 1000 0
DWIDTH 12 0
BBX 10 3 1 3
BITMAP
7000
8CC0
0300
ENDCHAR
STARTCHAR 301D
ENCODING 12317
SWIDTH 1000 0
DWIDTH 12 0
BBX 3 5 8 5
BITMAP
80
40
A0
40
20
ENDCHAR
STARTCHAR 301F
ENCODING 12319
SWIDTH 1000 0
DWIDTH 12 0
BBX 4 5 0 -1
BITMAP
80
60
90
60
10
ENDCHAR
STARTCHAR 3020
ENCODING 12320
SWIDTH 1000 0
DWIDTH 12 0
BBX 10 7 1 1
BITMAP
7F80
0000
7F80
A940
E9C0
A280
7D00
ENDCHAR
STARTCHAR 3033
ENCODING 12339
SWIDTH 1000 0
DWIDTH 12 0
BBX 4 10 3 0
BITMAP
10
10
10
20
20
40
40
40
80
80
ENDCHAR
STARTCHAR 3034
ENCODING 12340
SWIDTH 1000 0
DWIDTH 12 0
BBX 7 10 3 0
BITMAP
10
10
10
20
20
44
4A
44
80
80
ENDCHAR
STARTCHAR 3035
ENCODING 12341
SWIDTH 1000 0
DWIDTH 12 0
BBX 5 11 3 0
BITMAP
80
80
40
40
20
20
10
10
08
08
08
ENDCHAR
STARTCHAR 303B
ENCODING 12347
SWIDTH 1000 0
DWIDTH 12 0
BBX 5 8 3 1
BITMAP
20
10
20
20
10
18
60
80
ENDCHAR
STARTCHAR 303C
ENCODING 12348
SWIDTH 1000 0
DWIDTH 12 0
BBX 10 11 1 -1
BITMAP
FFC0
80C0
8140
8240
8440
8840
9040
9040
A040
C040
FFC0
ENDCHAR
STARTCHAR 303D
ENCODING 12349
SWIDTH 1000 0
DWIDTH 12 0
BBX 9 11 2 -1
BITMAP
4000
A800
3400
0400
0400
0200
0200
0200
0100
0100
0180
ENDCHAR
STARTCHAR 3041
ENCODING 12353
SWIDTH 1000 0
DWIDTH 12 0
BBX 8 9 2 -1
BITMAP
10
14
78
2C
7B
B1
91
F2
0C
ENDCHAR
STARTCHAR 3042
ENCODING 12354
SWIDTH 1000 0
DWIDTH 12 0
BBX 10 11 1 -1
BITMAP
1000
0800
7E00
1400
0F00
3CC0
4C40
8840
9880
E900
0600
ENDCHAR
STARTCHAR 3043
ENCODING 12355
SWIDTH 1000 0
DWIDTH 12 0
BBX 9 7 1 0
BITMAP
8000
4100
4100
5080
5080
6000
1000
ENDCHAR
STARTCHAR 3044
ENCODING 12356
SWIDTH 1000 0
DWIDTH 12 0
BBX 10 8 1 1
BITMAP
8200
8100
8080
9040
9040
6000
6000
2000
ENDCHAR
STARTCHAR 3045
ENCODING 12357
SWIDTH 1000 0
DWIDTH 12 0
BBX 6 9 3 -1
BITMAP
40
70
00
F8
04
04
04
08
70
ENDCHAR
STARTCHAR 3046
ENCODING 12358
SWIDTH 1000 0
DWIDTH 12 0
BBX 7 11 2 -1
BITMAP
20
1C
20
3C
C2
02
02
02
04
08
30
ENDCHAR
STARTCHAR 3047
ENCODING 12359
SWIDTH 1000 0
DWIDTH 12 0
BBX 8 9 2 -1
BITMAP
20
1C
0C
74
18
18
28
44
87
ENDCHAR
STARTCHAR 3048
ENCODING 12360
SWIDTH 1000 0
DWIDTH 12 0
BBX 9 10 2 0
BITMAP
2000
1C00
2000
0600
7C00
0800
1800
2400
4400
8380
ENDCHAR
STARTCHAR 3049
ENCODING 12361
SWIDTH 1000 0
DWIDTH 12 0
BBX 8 8 2 0
BITMAP
40
22
F9
20
2E
71
A1
EE
ENDCHAR
STARTCHAR 304A
ENCODING 12362
SWIDTH 1000 0
DWIDTH 12 0
BBX 9 9 2 1
BITMAP
6200
2180
F880
2000
2F00
3080
E080
A080
6F00
ENDCHAR
STARTCHAR 304B
ENCODING 12363
SWIDTH 1000 0
DWIDTH 12 0
BBX 10 9 1 1
BITMAP
1000
1200
9D80
E440
2440
25C0
4400
9800
8800
ENDCHAR
STARTCHAR 304C
ENCODING 12364
SWIDTH 1000 0
DWIDTH 12 0
BBX 11 10 1 1
BITMAP
0060
10C0
1200
9D80
E440
2440
25C0
4400
9800
8800
ENDCHAR
STARTCHAR 304D
ENCODING 12365
SWIDTH 1000 0
DWIDTH 12 0
BBX 8 10 2 1
BITMAP
30
16
78
0B
FC
02
0E
40
40
3E
ENDCHAR
STARTCHAR 304E
ENCODING 12366
SWIDTH 1000 0
DWIDTH 12 0
BBX 10 11 2 0
BITMAP
0080
3140
1680
7800
0B00
FC00
0200
0E00
4000
4000
3E00
ENDCHAR
STARTCHAR 304F
ENCODING 12367
SWIDTH 1000 0
DWIDTH 12 0
BBX 6 11 3 -1
BITMAP
10
08
30
40
80
80
60
10
08
0C
04
ENDCHAR
STARTCHAR 3050
ENCODING 12368
SWIDTH 1000 0
DWIDTH 12 0
BBX 7 11 3 -1
BITMAP
10
08
30
4A
84
80
60
10
08
0C
04
ENDCHAR
STARTCHAR 3051
ENCODING 12369
SWIDTH 1000 0
DWIDTH 12 0
BBX 9 11 2 -1
BITMAP
0600
8200
8200
BF80
8200
8200
C200
8200
8400
8400
1800
ENDCHAR
STARTCHAR 3052
ENCODING 12370
SWIDTH 1000 0
DWIDTH 12 0
BBX 10 11 2 0
BITMAP
06C0
8380
8200
BF80
8200
8200
C200
8200
8400
8400
1800
ENDCHAR
STARTCHAR 3053
ENCODING 12371
SWIDTH 1000 0
DWIDTH 12 0
BBX 8 9 2 0
BITMAP
78
0E
10
00
00
00
80
83
7E
ENDCHAR
STARTCHAR 3054
ENCODING 12372
SWIDTH 1000 0
DWIDTH 12 0
BBX 10 10 2 1
BITMAP
00C0
7900
0E00
1000
0000
0000
0000
8000
8300
7E00
ENDCHAR
STARTCHAR 3055
ENCODING 12373
SWIDTH 1000 0
DWIDTH 12 0
BBX 8 10 2 0
BITMAP
10
30
13
FC
04
04
0E
80
40
3C
ENDCHAR
STARTCHAR 3056
ENCODING 12374
SWIDTH 1000 0
DWIDTH 12 0
BBX 10 10 2 1
BITMAP
12C0
3180
1300
FC00
0400
0400
0E00
8000
4000
3C00
ENDCHAR
STARTCHAR 3057
ENCODING 12375
SWIDTH 1000 0
DWIDTH 12 0
BBX 7 9 3 1
BITMAP
80
80
80
80
80
82
82
C4
78
ENDCHAR
STARTCHAR 3058
ENCODING 12376
SWIDTH 1000 0
DWIDTH 12 0
BBX 7 9 3 1
BITMAP
80
94
88
80
80
82
82
C4
78
ENDCHAR
STARTCHAR 3059
ENCODING 12377
SWIDTH 1000 0
DWIDTH 12 0
BBX 11 11 0 -1
BITMAP
0600
0200
83E0
7E00
0E00
0A00
0A00
0E00
0200
0400
0800
ENDCHAR
STARTCHAR 305A
ENCODING 12378
SWIDTH 1000 0
DWIDTH 12 0
BBX 11 11 0 0
BITMAP
06A0
0240
83E0
7E00
0E00
0A00
0A00
0E00
0200
0400
0800
ENDCHAR
STARTCHAR 305B
ENCODING 12379
SWIDTH 1000 0
DWIDTH 12 0
BBX 11 9 0 1
BITMAP
3180
1100
10E0
FF00
1100
1300
1100
1000
0FC0
ENDCHAR
STARTCHAR 305C
ENCODING 12380
SWIDTH 1000 0
DWIDTH 12 0
BBX 12 10 0 1
BITMAP
00B0
31C0
1100
10E0
FF00
1100
1300
1100
1000
0FC0
ENDCHAR
STARTCHAR 305D
ENCODING 12381
SWIDTH 1000 0
DWIDTH 12 0
BBX 10 9 1 1
BITMAP
3F00
0600
0800
37C0
FC00
0800
0800
0800
0700
ENDCHAR
STARTCHAR 305E
ENCODING 12382
SWIDTH 1000 0
DWIDTH 12 0
BBX 11 10 1 1
BITMAP
0160
3FC0
0600
0800
37C0
FC00
0800
0800
0800
0700
ENDCHAR
STARTCHAR 305F
ENCODING 12383
SWIDTH 1000 0
DWIDTH 12 0
BBX 10 10 1 0
BITMAP
1000
0800
1400
7800
2380
2600
2000
4000
C800
87C0
ENDCHAR
STARTCHAR 3060
ENCODING 12384
SWIDTH 1000 0
DWIDTH 12 0
BBX 10 10 1 0
BITMAP
1080
0940
1480
7800
2380
2600
2000
4000
C800
87C0
ENDCHAR
STARTCHAR 3061
ENCODING 12385
SWIDTH 1000 0
DWIDTH 12 0
BBX 9 11 1 -1
BITMAP
2000
1000
9400
6800
2000
2700
3880
2080
0100
0200
0C00
ENDCHAR
STARTCHAR 3062
ENCODING 12386
SWIDTH 1000 0
DWIDTH 12 0
BBX 9 11 1 0
BITMAP
2080
1100
9400
6800
2000
2700
3880
2080
0100
0200
0C00
ENDCHAR
STARTCHAR 3063
ENCODING 12387
SWIDTH 1000 0
DWIDTH 12 0
BBX 8 6 2 0
BITMAP
3E
C1
01
01
02
1C
ENDCHAR
STARTCHAR 3064
ENCODING 12388
SWIDTH 1000 0
DWIDTH 12 0
BBX 10 8 1 0
BITMAP
0F80
30C0
C040
0040
0040
0080
0700
1800
ENDCHAR
STARTCHAR 3065
ENCODING 12389
SWIDTH 1000 0
DWIDTH 12 0
BBX 11 10 1 1
BITMAP
0160
00C0
0F80
30C0
C040
0040
0040
0080
0700
1800
ENDCHAR
STARTCHAR 3066
ENCODING 12390
SWIDTH 1000 0
DWIDTH 12 0
BBX 9 9 1 0
BITMAP
0F80
F400
0800
1000
1000
1000
1000
0800
0780
ENDCHAR
STARTCHAR 3067
ENCODING 12391
SWIDTH 1000 0
DWIDTH 12 0
BBX 10 9 1 0
BITMAP
0F80
F400
0880
11C0
1080
1000
1000
0800
0780
ENDCHAR
STARTCHAR 3068
ENCODING 12392
SWIDTH 1000 0
DWIDTH 12 0
BBX 7 9 3 1
BITMAP
C0
48
4C
50
60
C0
80
80
7E
ENDCHAR
STARTCHAR 3069
ENCODING 12393
SWIDTH 1000 0
DWIDTH 12 0
BBX 8 10 3 0
BITMAP
01
C3
48
4C
50
60
C0
80
80
7E
ENDCHAR
STARTCHAR 306A
ENCODING 12394
SWIDTH 1000 0
DWIDTH 12 0
BBX 10 10 1 0
BITMAP
1000
1000
7D00
2180
2200
4200
4200
8E00
1380
0E40
ENDCHAR
STARTCHAR 306B
ENCODING 12395
SWIDTH 1000 0
DWIDTH 12 0
BBX 9 9 2 1
BITMAP
8000
9F00
8800
8000
8000
C000
9000
8F80
8000
ENDCHAR
STARTCHAR 306C
ENCODING 12396
SWIDTH 1000 0
DWIDTH 12 0
BBX 10 10 1 0
BITMAP
0800
4400
4600
3980
6840
6840
B040
9380
B4C0
C700
ENDCHAR
STARTCHAR 306D
ENCODING 12397
SWIDTH 1000 0
DWIDTH 12 0
BBX 10 10 1 0
BITMAP
2000
1000
1000
F780
2880
3080
6080
A380
A4C0
2340
ENDCHAR
STARTCHAR 306E
ENCODING 12398
SWIDTH 1000 0
DWIDTH 12 0
BBX 10 9 1 0
BITMAP
1F00
2980
48C0
8840
9840
9040
B080
6080
0700
ENDCHAR
STARTCHAR 306F
ENCODING 12399
SWIDTH 1000 0
DWIDTH 12 0
BBX 10 9 1 1
BITMAP
4200
4200
5F80
8200
8200
C200
CE00
93C0
9E00
ENDCHAR
STARTCHAR 3070
ENCODING 12400
SWIDTH 1000 0
DWIDTH 12 0
BBX 10 10 1 1
BITMAP
0140
4280
4200
5F80
8200
8200
C200
CE00
93C0
9E00
ENDCHAR
STARTCHAR 3071
ENCODING 12401
SWIDTH 1000 0
DWIDTH 12 0
BBX 10 10 1 1
BITMAP
00C0
42C0
4200
5F80
8200
8200
C200
CE00
93C0
9E00
ENDCHAR
STARTCHAR 3072
ENCODING 12402
SWIDTH 1000 0
DWIDTH 12 0
BBX 10 9 1 0
BITMAP
1A00
F300
2180
2140
4100
4100
4100
6200
3C00
ENDCHAR
STARTCHAR 3073
ENCODING 12403
SWIDTH 1000 0
DWIDTH 12 0
BBX 11 10 1 1
BITMAP
0060
1AC0
F300
2180
2140
4100
4100
4100
6200
3C00
ENDCHAR
STARTCHAR 3074
ENCODING 12404
SWIDTH 1000 0
DWIDTH 12 0
BBX 11 10 1 0
BITMAP
00E0
1AE0
F300
2180
2140
4100
4100
4100
6200
3C00
ENDCHAR
STARTCHAR 3075
ENCODING 12405
SWIDTH 1000 0
DWIDTH 12 0
BBX 11 9 0 1
BITMAP
0F00
0400
0000
0400
04C0
1220
A120
4100
0F00
ENDCHAR
STARTCHAR 3076
ENCODING 12406
SWIDTH 1000 0
DWIDTH 12 0
BBX 11 9 0 1
BITMAP
0F20
0460
0000
0400
04C0
1220
A120
4100
0F00
ENDCHAR
STARTCHAR 3077
ENCODING 12407
SWIDTH 1000 0
DWIDTH 12 0
BBX 11 9 0 1
BITMAP
0F60
0460
0000
0400
04C0
1220
A120
4100
0F00
ENDCHAR
STARTCHAR 3078
ENCODING 12408
SWIDTH 1000 0
DWIDTH 12 0
BBX 10 6 1 2
BITMAP
1800
1400
2600
4300
8080
0040
ENDCHAR
STARTCHAR 3079
ENCODING 12409
SWIDTH 1000 0
DWIDTH 12 0
BBX 10 7 1 3
BITMAP
0100
1B80
1400
2600
4300
8080
0040
ENDCHAR
STARTCHAR 307A
ENCODING 12410
SWIDTH 1000 0
DWIDTH 12 0
BBX 10 7 1 2
BITMAP
0180
1980
1400
2600
4300
8080
0040
ENDCHAR
STARTCHAR 307B
ENCODING 12411
SWIDTH 1000 0
DWIDTH 12 0
BBX 9 9 2 1
BITMAP
9F00
8400
8400
BF80
8400
C400
9E00
A380
9E00
ENDCHAR
STARTCHAR 307C
ENCODING 12412
SWIDTH 1000 0
DWIDTH 12 0
BBX 10 10 2 1
BITMAP
01C0
9E80
8400
8400
BF80
8400
C400
9E00
A380
9E00
ENDCHAR
STARTCHAR 307D
ENCODING 12413
SWIDTH 1000 0
DWIDTH 12 0
BBX 10 10 2 1
BITMAP
00C0
9EC0
8400
8400
BF80
8400
C400
9E00
A380
9E00
ENDCHAR
STARTCHAR 307E
ENCODING 12414
SWIDTH 1000 0
DWIDTH 12 0
BBX 8 10 2 0
BITMAP
18
08
FB
0C
08
7E
08
78
8E
F9
ENDCHAR
STARTCHAR 307F
ENCODING 12415
SWIDTH 1000 0
DWIDTH 12 0
BBX 10 10 1 -1
BITMAP
3C00
0400
0800
0880
3C80
D380
A0C0
C140
0200
0400
ENDCHAR
STARTCHAR 3080
ENCODING 12416
SWIDTH 1000 0
DWIDTH 12 0
BBX 10 10 1 1
BITMAP
3000
1C00
F080
2040
60C0
A040
E100
2100
2100
3F80
ENDCHAR
STARTCHAR 3081
ENCODING 12417
SWIDTH 1000 0
DWIDTH 12 0
BBX 10 11 1 -1
BITMAP
0800
4400
2600
3980
6840
A840
B040
9040
F080
0100
0E00
ENDCHAR
STARTCHAR 3082
ENCODING 12418
SWIDTH 1000 0
DWIDTH 12 0
BBX 9 10 1 0
BITMAP
1000
1000
1000
7E00
1000
A400
7880
1080
1180
0F00
ENDCHAR
STARTCHAR 3083
ENCODING 12419
SWIDTH 1000 0
DWIDTH 12 0
BBX 8 9 2 -1
BITMAP
10
C8
4E
31
E1
1E
10
08
08
ENDCHAR
STARTCHAR 3084
ENCODING 12420
SWIDTH 1000 0
DWIDTH 12 0
BBX 10 11 1 -1
BITMAP
1000
6C00
2000
2780
3840
D040
1780
0800
0800
0400
0400
ENDCHAR
STARTCHAR 3085
ENCODING 12421
SWIDTH 1000 0
DWIDTH 12 0
BBX 8 9 2 -1
BITMAP
08
88
9E
A9
C9
C9
9A
94
10
ENDCHAR
STARTCHAR 3086
ENCODING 12422
SWIDTH 1000 0
DWIDTH 12 0
BBX 10 11 1 -1
BITMAP
0400
8400
4780
5A40
6240
6240
6240
4C80
4700
0800
1000
ENDCHAR
STARTCHAR 3087
ENCODING 12423
SWIDTH 1000 0
DWIDTH 12 0
BBX 6 9 3 -1
BITMAP
20
20
2C
30
20
20
F8
94
70
ENDCHAR
STARTCHAR 3088
ENCODING 12424
SWIDTH 1000 0
DWIDTH 12 0
BBX 8 10 2 0
BITMAP
18
08
10
17
18
10
10
78
8F
F8
ENDCHAR
STARTCHAR 3089
ENCODING 12425
SWIDTH 1000 0
DWIDTH 12 0
BBX 7 11 3 -1
BITMAP
80
70
40
80
80
9C
E2
82
02
0C
30
ENDCHAR
STARTCHAR 308A
ENCODING 12426
SWIDTH 1000 0
DWIDTH 12 0
BBX 6 10 3 0
BITMAP
88
84
84
C4
84
84
04
08
10
60
ENDCHAR
STARTCHAR 308B
ENCODING 12427
SWIDTH 1000 0
DWIDTH 12 0
BBX 8 9 2 0
BITMAP
7C
08
10
20
7E
43
F1
49
3E
ENDCHAR
STARTCHAR 308C
ENCODING 12428
SWIDTH 1000 0
DWIDTH 12 0
BBX 11 10 1 0
BITMAP
2000
1000
2380
D480
2880
3080
60A0
A0C0
E0C0
2000
ENDCHAR
STARTCHAR 308D
ENCODING 12429
SWIDTH 1000 0
DWIDTH 12 0
BBX 8 10 2 -1
BITMAP
7C
08
10
20
7E
61
81
03
0C
30
ENDCHAR
STARTCHAR 308E
ENCODING 12430
SWIDTH 1000 0
DWIDTH 12 0
BBX 9 9 1 -1
BITMAP
3000
1000
7700
1880
2080
6080
D080
3700
1000
ENDCHAR
STARTCHAR 308F
ENCODING 12431
SWIDTH 1000 0
DWIDTH 12 0
BBX 10 10 1 0
BITMAP
2000
2000
2000
D780
28C0
3040
6040
A040
6180
2600
ENDCHAR
STARTCHAR 3090
ENCODING 12432
SWIDTH 1000 0
DWIDTH 12 0
BBX 10 9 1 1
BITMAP
3C00
0400
0800
1F00
70C0
5040
9E40
A980
C700
ENDCHAR
STARTCHAR 3091
ENCODING 12433
SWIDTH 1000 0
DWIDTH 12 0
BBX 10 10 1 0
BITMAP
0600
3C00
0800
3E00
5900
1500
0E00
3000
7380
8C40
ENDCHAR
STARTCHAR 3092
ENCODING 12434
SWIDTH 1000 0
DWIDTH 12 0
BBX 8 10 2 0
BITMAP
10
10
FC
20
71
D6
98
68
40
3F
ENDCHAR
STARTCHAR 3093
ENCODING 12435
SWIDTH 1000 0
DWIDTH 12 0
BBX 10 9 1 1
BITMAP
0800
0800
1000
2000
3800
6440
4480
8480
8700
ENDCHAR
STARTCHAR 3094
ENCODING 12436
SWIDTH 1000 0
DWIDTH 12 0
BBX 9 11 2 0
BITMAP
2380
1D00
2000
3C00
C200
0200
0200
0200
0400
0800
3000
ENDCHAR
STARTCHAR 3095
ENCODING 12437
SWIDTH 1000 0
DWIDTH 12 0
BBX 10 8 1 0
BITMAP
1000
1000
9D00
7480
2440
25C0
5800
4800
ENDCHAR
STARTCHAR 3096
ENCODING 12438
SWIDTH 1000 0
DWIDTH 12 0
BBX 8 9 2 -1
BITMAP
86
42
5F
42
42
42
42
44
48
ENDCHAR
STARTCHAR 3099
ENCODING 12441
SWIDTH 1000 0
DWIDTH 12 0
BBX 2 3 9 7
BITMAP
80
C0
80
ENDCHAR
STARTCHAR 309A
ENCODING 12442
SWIDTH 1000 0
DWIDTH 12 0
BBX 2 2 9 8
BITMAP
C0
C0
ENDCHAR
STARTCHAR 309B
ENCODING 12443
SWIDTH 1000 0
DWIDTH 12 0
BBX 2 3 1 7
BITMAP
80
C0
80
ENDCHAR
STARTCHAR 309C
ENCODING 12444
SWIDTH 1000 0
DWIDTH 12 0
BBX 2 2 1 8
BITMAP
C0
C0
ENDCHAR
STARTCHAR 309D
ENCODING 12445
SWIDTH 1000 0
DWIDTH 12 0
BBX 5 7 3 2
BITMAP
80
40
20
10
08
18
60
ENDCHAR
STARTCHAR 309E
ENCODING 12446
SWIDTH 1000 0
DWIDTH 12 0
BBX 7 8 3 1
BITMAP
08
96
48
20
10
08
18
60
ENDCHAR
STARTCHAR 309F
ENCODING 12447
SWIDTH 1000 0
DWIDTH 12 0
BBX 8 11 2 -1
BITMAP
10
08
1F
20
20
5C
64
84
44
48
30
ENDCHAR
STARTCHAR 30A0
ENCODING 12448
SWIDTH 1000 0
DWIDTH 12 0
BBX 6 3 3 3
BITMAP
FC
00
FC
ENDCHAR
STARTCHAR 30A1
ENCODING 12449
SWIDTH 1000 0
DWIDTH 12 0
BBX 8 8 2 0
BITMAP
FF
02
1C
10
10
10
20
40
ENDCHAR
STARTCHAR 30A2
ENCODING 12450
SWIDTH 1000 0
DWIDTH 12 0
BBX 9 10 1 -1
BITMAP
8180
7F00
0200
0C00
0800
0800
0800
1000
1000
6000
ENDCHAR
STARTCHAR 30A3
ENCODING 12451
SWIDTH 1000 0
DWIDTH 12 0
BBX 7 9 2 -1
BITMAP
02
02
04
18
68
88
08
08
08
ENDCHAR
STARTCHAR 30A4
ENCODING 12452
SWIDTH 1000 0
DWIDTH 12 0
BBX 9 11 1 -1
BITMAP
0200
0180
0100
0600
0C00
3400
C400
0400
0400
0400
0400
ENDCHAR
STARTCHAR 30A5
ENCODING 12453
SWIDTH 1000 0
DWIDTH 12 0
BBX 7 9 3 0
BITMAP
30
14
EA
84
84
04
08
10
60
ENDCHAR
STARTCHAR 30A6
ENCODING 12454
SWIDTH 1000 0
DWIDTH 12 0
BBX 8 11 2 -1
BITMAP
10
08
93
ED
81
82
82
04
08
10
20
ENDCHAR
STARTCHAR 30A7
ENCODING 12455
SWIDTH 1000 0
DWIDTH 12 0
BBX 9 5 2 2
BITMAP
7F00
0800
0800
0800
FF80
ENDCHAR
STARTCHAR 30A8
ENCODING 12456
SWIDTH 1000 0
DWIDTH 12 0
BBX 11 7 1 1
BITMAP
7FC0
0400
0400
0400
0400
8460
7B80
ENDCHAR
STARTCHAR 30A9
ENCODING 12457
SWIDTH 1000 0
DWIDTH 12 0
BBX 8 9 2 -1
BITMAP
0C
04
FF
14
14
24
44
8C
04
ENDCHAR
STARTCHAR 30AA
ENCODING 12458
SWIDTH 1000 0
DWIDTH 12 0
BBX 10 10 1 0
BITMAP
0600
0200
0200
7FC0
0600
0A00
1200
2200
4A00
8600
ENDCHAR
STARTCHAR 30AB
ENCODING 12459
SWIDTH 1000 0
DWIDTH 12 0
BBX 9 11 1 -1
BITMAP
0800
0400
0400
7F80
0880
0880
1100
1100
2500
4200
8000
ENDCHAR
STARTCHAR 30AC
ENCODING 12460
SWIDTH 1000 0
DWIDTH 12 0
BBX 10 11 1 0
BITMAP
0840
0480
0400
7F80
0880
0880
1100
1100
2500
4200
8000
ENDCHAR
STARTCHAR 30AD
ENCODING 12461
SWIDTH 1000 0
DWIDTH 12 0
BBX 10 11 1 -1
BITMAP
1800
0800
0980
0E00
7800
08C0
7F00
8400
0400
0200
0200
ENDCHAR
STARTCHAR 30AE
ENCODING 12462
SWIDTH 1000 0
DWIDTH 12 0
BBX 10 11 1 -1
BITMAP
1840
08C0
0980
0E00
7800
08C0
7F00
8400
0400
0200
0200
ENDCHAR
STARTCHAR 30AF
ENCODING 12463
SWIDTH 1000 0
DWIDTH 12 0
BBX 8 10 2 0
BITMAP
10
1F
23
42
82
04
08
10
60
80
ENDCHAR
STARTCHAR 30B0
ENCODING 12464
SWIDTH 1000 0
DWIDTH 12 0
BBX 10 11 2 0
BITMAP
01C0
1080
1F00
2300
4200
8200
0400
0800
1000
6000
8000
ENDCHAR
STARTCHAR 30B1
ENCODING 12465
SWIDTH 1000 0
DWIDTH 12 0
BBX 10 10 1 0
BITMAP
3000
1000
3FC0
4400
8400
0400
0400
0800
1000
2000
ENDCHAR
STARTCHAR 30B2
ENCODING 12466
SWIDTH 1000 0
DWIDTH 12 0
BBX 11 11 1 0
BITMAP
00E0
3040
1000
3FC0
4400
8400
0400
0400
0800
1000
2000
ENDCHAR
STARTCHAR 30B3
ENCODING 12467
SWIDTH 1000 0
DWIDTH 12 0
BBX 8 7 2 1
BITMAP
83
7E
02
02
02
02
86
ENDCHAR
STARTCHAR 30B4
ENCODING 12468
SWIDTH 1000 0
DWIDTH 12 0
BBX 10 9 2 1
BITMAP
0080
0140
8300
7E00
0200
0200
0200
0200
8600
ENDCHAR
STARTCHAR 30B5
ENCODING 12469
SWIDTH 1000 0
DWIDTH 12 0
BBX 11 11 0 -1
BITMAP
0200
1100
1100
F1E0
1F00
1100
1100
0200
0200
0C00
1000
ENDCHAR
STARTCHAR 30B6
ENCODING 12470
SWIDTH 1000 0
DWIDTH 12 0
BBX 11 11 0 0
BITMAP
02A0
1140
1100
F1E0
1F00
1100
1100
0200
0200
0C00
1000
ENDCHAR
STARTCHAR 30B7
ENCODING 12471
SWIDTH 1000 0
DWIDTH 12 0
BBX 10 9 1 1
BITMAP
3000
0840
C080
2080
0100
0200
0400
4800
3000
ENDCHAR
STARTCHAR 30B8
ENCODING 12472
SWIDTH 1000 0
DWIDTH 12 0
BBX 10 10 1 1
BITMAP
01C0
3080
0840
C080
2080
0100
0200
0400
4800
3000
ENDCHAR
STARTCHAR 30B9
ENCODING 12473
SWIDTH 1000 0
DWIDTH 12 0
BBX 10 9 1 0
BITMAP
0300
3F00
0200
0400
0400
0B00
1080
2040
C000
ENDCHAR
STARTCHAR 30BA
ENCODING 12474
SWIDTH 1000 0
DWIDTH 12 0
BBX 10 10 1 1
BITMAP
0140
0380
3F00
0200
0400
0400
0B00
1080
2040
C000
ENDCHAR
STARTCHAR 30BB
ENCODING 12475
SWIDTH 1000 0
DWIDTH 12 0
BBX 10 9 1 1
BITMAP
3000
1000
11C0
FE80
1300
1000
1000
1000
0F80
ENDCHAR
STARTCHAR 30BC
ENCODING 12476
SWIDTH 1000 0
DWIDTH 12 0
BBX 11 10 1 1
BITMAP
0060
30C0
1000
11C0
FE80
1300
1000
1000
1000
0F80
ENDCHAR
STARTCHAR 30BD
ENCODING 12477
SWIDTH 1000 0
DWIDTH 12 0
BBX 8 9 2 -1
BITMAP
03
81
41
42
02
04
08
10
60
ENDCHAR
STARTCHAR 30BE
ENCODING 12478
SWIDTH 1000 0
DWIDTH 12 0
BBX 10 10 2 0
BITMAP
01C0
0380
8100
4100
4200
0200
0400
0800
1000
6000
ENDCHAR
STARTCHAR 30BF
ENCODING 12479
SWIDTH 1000 0
DWIDTH 12 0
BBX 8 10 2 0
BITMAP
10
1F
23
62
9C
04
0A
10
60
80
ENDCHAR
STARTCHAR 30C0
ENCODING 12480
SWIDTH 1000 0
DWIDTH 12 0
BBX 10 11 2 0
BITMAP
01C0
1080
1F00
2300
6200
9C00
0400
0A00
1000
6000
8000
ENDCHAR
STARTCHAR 30C1
ENCODING 12481
SWIDTH 1000 0
DWIDTH 12 0
BBX 10 10 1 -1
BITMAP
0200
0300
3C00
4400
05C0
FE00
0800
0800
0800
3000
ENDCHAR
STARTCHAR 30C2
ENCODING 12482
SWIDTH 1000 0
DWIDTH 12 0
BBX 11 10 1 0
BITMAP
02E0
0340
3C00
4400
05C0
FE00
0800
0800
0800
3000
ENDCHAR
STARTCHAR 30C3
ENCODING 12483
SWIDTH 1000 0
DWIDTH 12 0
BBX 8 8 2 0
BITMAP
23
D1
52
02
04
08
10
60
ENDCHAR
STARTCHAR 30C4
ENCODING 12484
SWIDTH 1000 0
DWIDTH 12 0
BBX 9 10 1 -1
BITMAP
1080
8880
4880
4100
0100
0200
0400
0800
1000
2000
ENDCHAR
STARTCHAR 30C5
ENCODING 12485
SWIDTH 1000 0
DWIDTH 12 0
BBX 11 11 1 0
BITMAP
00E0
1140
8880
4880
4100
0100
0200
0400
0800
1000
2000
ENDCHAR
STARTCHAR 30C6
ENCODING 12486
SWIDTH 1000 0
DWIDTH 12 0
BBX 10 10 1 -1
BITMAP
3F00
0000
0000
FFC0
0400
0400
0800
0800
1000
6000
ENDCHAR
STARTCHAR 30C7
ENCODING 12487
SWIDTH 1000 0
DWIDTH 12 0
BBX 11 11 1 0
BITMAP
00E0
3F40
0000
0000
FFC0
0400
0400
0800
0800
1000
6000
ENDCHAR
STARTCHAR 30C8
ENCODING 12488
SWIDTH 1000 0
DWIDTH 12 0
BBX 6 11 3 -1
BITMAP
80
40
40
40
60
58
44
40
40
40
40
ENDCHAR
STARTCHAR 30C9
ENCODING 12489
SWIDTH 1000 0
DWIDTH 12 0
BBX 7 11 3 -1
BITMAP
80
44
4A
44
60
58
44
40
40
40
40
ENDCHAR
STARTCHAR 30CA
ENCODING 12490
SWIDTH 1000 0
DWIDTH 12 0
BBX 10 10 1 -1
BITMAP
0C00
0400
0400
FFC0
0400
0400
0800
0800
1000
2000
ENDCHAR
STARTCHAR 30CB
ENCODING 12491
SWIDTH 1000 0
DWIDTH 12 0
BBX 10 6 1 1
BITMAP
0180
7E00
0000
0000
0000
FFC0
ENDCHAR
STARTCHAR 30CC
ENCODING 12492
SWIDTH 1000 0
DWIDTH 12 0
BBX 8 9 2 0
BITMAP
82
7E
04
64
18
0E
11
20
C0
ENDCHAR
STARTCHAR 30CD
ENCODING 12493
SWIDTH 1000 0
DWIDTH 12 0
BBX 9 11 1 -1
BITMAP
1800
0400
0300
3F00
0400
0C00
1700
2480
C400
0400
0800
ENDCHAR
STARTCHAR 30CE
ENCODING 12494
SWIDTH 1000 0
DWIDTH 12 0
BBX 7 9 2 0
BITMAP
06
02
02
04
04
08
10
20
C0
ENDCHAR
STARTCHAR 30CF
ENCODING 12495
SWIDTH 1000 0
DWIDTH 12 0
BBX 10 7 1 1
BITMAP
1200
1100
2080
2080
4040
4040
8000
ENDCHAR
STARTCHAR 30D0
ENCODING 12496
SWIDTH 1000 0
DWIDTH 12 0
BBX 10 9 1 2
BITMAP
02C0
0180
1200
1100
2080
2080
4040
4040
8000
ENDCHAR
STARTCHAR 30D1
ENCODING 12497
SWIDTH 1000 0
DWIDTH 12 0
BBX 10 9 1 1
BITMAP
00C0
00C0
1200
1100
2080
2080
4040
4040
8000
ENDCHAR
STARTCHAR 30D2
ENCODING 12498
SWIDTH 1000 0
DWIDTH 12 0
BBX 9 9 2 1
BITMAP
C000
4200
4300
4C00
7000
4000
4000
4000
3F80
ENDCHAR
STARTCHAR 30D3
ENCODING 12499
SWIDTH 1000 0
DWIDTH 12 0
BBX 10 10 2 1
BITMAP
0080
C1C0
4200
4300
4C00
7000
4000
4000
4000
3F80
ENDCHAR
STARTCHAR 30D4
ENCODING 12500
SWIDTH 1000 0
DWIDTH 12 0
BBX 10 10 2 0
BITMAP
01C0
C1C0
4200
4300
4C00
7000
4000
4000
4000
3F80
ENDCHAR
STARTCHAR 30D5
ENCODING 12501
SWIDTH 1000 0
DWIDTH 12 0
BBX 8 8 2 0
BITMAP
FF
01
02
02
04
08
10
60
ENDCHAR
STARTCHAR 30D6
ENCODING 12502
SWIDTH 1000 0
DWIDTH 12 0
BBX 10 10 2 0
BITMAP
01C0
0080
FF00
0100
0200
0200
0400
0800
1000
6000
ENDCHAR
STARTCHAR 30D7
ENCODING 12503
SWIDTH 1000 0
DWIDTH 12 0
BBX 10 10 2 -1
BITMAP
00C0
00C0
FF00
0100
0200
0200
0400
0800
1000
6000
ENDCHAR
STARTCHAR 30D8
ENCODING 12504
SWIDTH 1000 0
DWIDTH 12 0
BBX 10 6 1 2
BITMAP
1800
1400
2200
4100
8080
0040
ENDCHAR
STARTCHAR 30D9
ENCODING 12505
SWIDTH 1000 0
DWIDTH 12 0
BBX 10 7 1 2
BITMAP
0080
1980
1400
2200
4100
8080
0040
ENDCHAR
STARTCHAR 30DA
ENCODING 12506
SWIDTH 1000 0
DWIDTH 12 0
BBX 10 7 1 2
BITMAP
0180
1980
1580
2200
4100
8080
0040
ENDCHAR
STARTCHAR 30DB
ENCODING 12507
SWIDTH 1000 0
DWIDTH 12 0
BBX 9 10 1 0
BITMAP
1000
0800
0800
FF80
0800
4A00
4900
4880
A880
1800
ENDCHAR
STARTCHAR 30DC
ENCODING 12508
SWIDTH 1000 0
DWIDTH 12 0
BBX 10 10 1 1
BITMAP
10C0
09C0
0800
FF80
0800
4A00
4900
4880
A880
1800
ENDCHAR
STARTCHAR 30DD
ENCODING 12509
SWIDTH 1000 0
DWIDTH 12 0
BBX 10 10 1 0
BITMAP
10C0
08C0
08C0
FF80
0800
4A00
4900
4880
A880
1800
ENDCHAR
STARTCHAR 30DE
ENCODING 12510
SWIDTH 1000 0
DWIDTH 12 0
BBX 9 8 1 0
BITMAP
FF80
0080
0100
2200
1C00
0C00
0400
0400
ENDCHAR
STARTCHAR 30DF
ENCODING 12511
SWIDTH 1000 0
DWIDTH 12 0
BBX 6 9 3 0
BITMAP
F0
08
00
F0
08
00
E0
18
04
ENDCHAR
STARTCHAR 30E0
ENCODING 12512
SWIDTH 1000 0
DWIDTH 12 0
BBX 9 9 1 1
BITMAP
0800
0800
1000
1000
1200
2100
2100
DE80
6080
ENDCHAR
STARTCHAR 30E1
ENCODING 12513
SWIDTH 1000 0
DWIDTH 12 0
BBX 7 9 2 1
BITMAP
06
02
44
34
0C
16
22
40
80
ENDCHAR
STARTCHAR 30E2
ENCODING 12514
SWIDTH 1000 0
DWIDTH 12 0
BBX 10 9 1 0
BITMAP
0300
7C00
0800
0980
FE40
0800
0800
0800
0780
ENDCHAR
STARTCHAR 30E3
ENCODING 12515
SWIDTH 1000 0
DWIDTH 12 0
BBX 8 9 2 -1
BITMAP
20
20
27
FA
14
10
10
08
08
ENDCHAR
STARTCHAR 30E4
ENCODING 12516
SWIDTH 1000 0
DWIDTH 12 0
BBX 10 10 1 0
BITMAP
3000
10C0
1780
F900
0A00
0800
0800
0400
0400
0400
ENDCHAR
STARTCHAR 30E5
ENCODING 12517
SWIDTH 1000 0
DWIDTH 12 0
BBX 8 6 2 1
BITMAP
02
7E
04
04
04
FF
ENDCHAR
STARTCHAR 30E6
ENCODING 12518
SWIDTH 1000 0
DWIDTH 12 0
BBX 11 7 0 1
BITMAP
2080
1F80
0080
0100
0100
8160
7E80
ENDCHAR
STARTCHAR 30E7
ENCODING 12519
SWIDTH 1000 0
DWIDTH 12 0
BBX 6 6 3 1
BITMAP
FC
04
04
7C
04
F4
ENDCHAR
STARTCHAR 30E8
ENCODING 12520
SWIDTH 1000 0
DWIDTH 12 0
BBX 8 7 2 2
BITMAP
FF
02
02
7E
02
02
FE
ENDCHAR
STARTCHAR 30E9
ENCODING 12521
SWIDTH 1000 0
DWIDTH 12 0
BBX 8 10 2 -1
BITMAP
7E
00
01
FF
02
04
04
08
30
40
ENDCHAR
STARTCHAR 30EA
ENCODING 12522
SWIDTH 1000 0
DWIDTH 12 0
BBX 6 11 3 -1
BITMAP
08
C4
C4
84
84
44
44
08
08
30
40
ENDCHAR
STARTCHAR 30EB
ENCODING 12523
SWIDTH 1000 0
DWIDTH 12 0
BBX 12 9 0 1
BITMAP
0200
1A00
0A00
0A30
0A20
1240
1280
2300
C200
ENDCHAR
STARTCHAR 30EC
ENCODING 12524
SWIDTH 1000 0
DWIDTH 12 0
BBX 8 9 3 0
BITMAP
80
80
82
83
84
88
90
E0
80
ENDCHAR
STARTCHAR 30ED
ENCODING 12525
SWIDTH 1000 0
DWIDTH 12 0
BBX 8 8 2 1
BITMAP
83
FD
81
82
82
82
8F
F0
ENDCHAR
STARTCHAR 30EE
ENCODING 12526
SWIDTH 1000 0
DWIDTH 12 0
BBX 7 8 3 0
BITMAP
FE
86
84
84
08
10
20
40
ENDCHAR
STARTCHAR 30EF
ENCODING 12527
SWIDTH 1000 0
DWIDTH 12 0
BBX 9 9 1 -1
BITMAP
8080
7F80
4100
2100
2100
0200
0200
0400
1800
ENDCHAR
STARTCHAR 30F0
ENCODING 12528
SWIDTH 1000 0
DWIDTH 12 0
BBX 10 11 1 -1
BITMAP
0400
0400
0400
7F80
1400
1400
95C0
6E00
0400
0400
0400
ENDCHAR
STARTCHAR 30F1
ENCODING 12529
SWIDTH 1000 0
DWIDTH 12 0
BBX 10 7 1 2
BITMAP
3F80
0100
0E00
0400
0400
0400
FFC0
ENDCHAR
STARTCHAR 30F2
ENCODING 12530
SWIDTH 1000 0
DWIDTH 12 0
BBX 8 9 2 -1
BITMAP
01
FF
02
FE
02
04
08
10
20
ENDCHAR
STARTCHAR 30F3
ENCODING 12531
SWIDTH 1000 0
DWIDTH 12 0
BBX 9 9 2 0
BITMAP
8000
6000
2180
0100
0200
0400
0800
9000
6000
ENDCHAR
STARTCHAR 30F4
ENCODING 12532
SWIDTH 1000 0
DWIDTH 12 0
BBX 10 11 2 0
BITMAP
12C0
0980
9300
ED00
8100
8200
8200
0400
0800
1000
2000
ENDCHAR
STARTCHAR 30F5
ENCODING 12533
SWIDTH 1000 0
DWIDTH 12 0
BBX 8 9 2 -1
BITMAP
18
08
77
19
12
22
2A
44
80
ENDCHAR
STARTCHAR 30F6
ENCODING 12534
SWIDTH 1000 0
DWIDTH 12 0
BBX 8 8 2 -1
BITMAP
20
20
3F
48
88
08
10
20
ENDCHAR
STARTCHAR 30F7
ENCODING 12535
SWIDTH 1000 0
DWIDTH 12 0
BBX 11 10 1 0
BITMAP
00E0
81C0
7E80
4100
2100
2100
0200
0200
0400
1800
ENDCHAR
STARTCHAR 30F8
ENCODING 12536
SWIDTH 1000 0
DWIDTH 12 0
BBX 10 11 1 0
BITMAP
0840
0480
0400
7F80
1400
1400
95C0
6E00
0400
0400
0400
ENDCHAR
STARTCHAR 30F9
ENCODING 12537
SWIDTH 1000 0
DWIDTH 12 0
BBX 11 9 1 2
BITMAP
00A0
0040
3F80
0100
0E00
0400
0400
0400
FFC0
ENDCHAR
STARTCHAR 30FA
ENCODING 12538
SWIDTH 1000 0
DWIDTH 12 0
BBX 10 10 2 0
BITMAP
01C0
0180
FF00
0200
FE00
0200
0400
0800
0800
3000
ENDCHAR
STARTCHAR 30FB
ENCODING 12539
SWIDTH 1000 0
DWIDTH 12 0
BBX 2 2 5 4
BITMAP
C0
C0
ENDCHAR
STARTCHAR 30FC
ENCODING 12540
SWIDTH 1000 0
DWIDTH 12 0
BBX 10 2 1 4
BITMAP
00C0
FF00
ENDCHAR
STARTCHAR 30FD
ENCODING 12541
SWIDTH 1000 0
DWIDTH 12 0
BBX 5 6 3 2
BITMAP
80
40
20
10
08
08
ENDCHAR
STARTCHAR 30FE
ENCODING 12542
SWIDTH 1000 0
DWIDTH 12 0
BBX 7 7 3 2
BITMAP
04
8A
44
20
10
08
08
ENDCHAR
STARTCHAR 30FF
ENCODING 12543
SWIDTH 1000 0
DWIDTH 12 0
BBX 9 9 1 0
BITMAP
8180
7F00
0100
0100
0100
0100
0100
0100
0100
ENDCHAR
STARTCHAR 31F0
ENCODING 12784
SWIDTH 1000 0
DWIDTH 12 0
BBX 7 9 2 -1
BITMAP
20
12
3E
24
44
88
10
20
40
ENDCHAR
STARTCHAR 31F1
ENCODING 12785
SWIDTH 1000 0
DWIDTH 12 0
BBX 8 7 2 1
BITMAP
30
11
E2
02
04
18
60
ENDCHAR
STARTCHAR 31F2
ENCODING 12786
SWIDTH 1000 0
DWIDTH 12 0
BBX 8 7 2 -1
BITMAP
7C
04
08
08
14
22
C1
ENDCHAR
STARTCHAR 31F3
ENCODING 12787
SWIDTH 1000 0
DWIDTH 12 0
BBX 5 8 5 0
BITMAP
80
80
80
C0
B0
88
80
80
ENDCHAR
STARTCHAR 31F4
ENCODING 12788
SWIDTH 1000 0
DWIDTH 12 0
BBX 7 8 2 -1
BITMAP
7E
04
44
38
14
22
40
80
ENDCHAR
STARTCHAR 31F5
ENCODING 12789
SWIDTH 1000 0
DWIDTH 12 0
BBX 9 6 1 0
BITMAP
1400
1200
2100
2080
4080
8000
ENDCHAR
STARTCHAR 31F6
ENCODING 12790
SWIDTH 1000 0
DWIDTH 12 0
BBX 6 7 3 1
BITMAP
80
84
98
E0
80
80
7C
ENDCHAR
STARTCHAR 31F7
ENCODING 12791
SWIDTH 1000 0
DWIDTH 12 0
BBX 6 8 3 -1
BITMAP
04
FC
04
08
08
10
60
80
ENDCHAR
STARTCHAR 31F8
ENCODING 12792
SWIDTH 1000 0
DWIDTH 12 0
BBX 8 5 2 1
BITMAP
30
28
44
82
01
ENDCHAR
STARTCHAR 31F9
ENCODING 12793
SWIDTH 1000 0
DWIDTH 12 0
BBX 8 8 2 0
BITMAP
10
10
F6
18
56
91
91
B0
ENDCHAR
STARTCHAR 31FA
ENCODING 12794
SWIDTH 1000 0
DWIDTH 12 0
BBX 8 7 2 1
BITMAP
10
10
20
24
42
5D
E1
ENDCHAR
STARTCHAR 31FB
ENCODING 12795
SWIDTH 1000 0
DWIDTH 12 0
BBX 6 8 3 0
BITMAP
F8
00
FC
08
08
10
20
40
ENDCHAR
STARTCHAR 31FC
ENCODING 12796
SWIDTH 1000 0
DWIDTH 12 0
BBX 5 9 3 -1
BITMAP
18
88
88
88
88
88
10
20
40
ENDCHAR
STARTCHAR 31FD
ENCODING 12797
SWIDTH 1000 0
DWIDTH 12 0
BBX 9 7 2 0
BITMAP
0800
2800
2900
2980
4A00
4C00
8800
ENDCHAR
STARTCHAR 31FE
ENCODING 12798
SWIDTH 1000 0
DWIDTH 12 0
BBX 7 7 3 1
BITMAP
C0
40
42
84
88
B0
40
ENDCHAR
STARTCHAR 31FF
ENCODING 12799
SWIDTH 1000 0
DWIDTH 12 0
BBX 6 6 3 1
BITMAP
FC
84
84
84
84
F8
ENDCHAR
STARTCHAR 3231
ENCODING 12849
SWIDTH 1000 0
DWIDTH 12 0
BBX 12 11 0 -1
BITMAP
4040
5320
9D60
BFD0
9510
9FD0
F910
D390
9560
5120
4040
ENDCHAR
STARTCHAR 3232
ENCODING 12850
SWIDTH 1000 0
DWIDTH 12 0
BBX 11 11 1 -1
BITMAP
8040
8840
88A0
FFA0
9F20
9120
FF20
DF20
9120
9740
8040
ENDCHAR
STARTCHAR 3239
ENCODING 12857
SWIDTH 1000 0
DWIDTH 12 0
BBX 11 11 0 -1
BITMAP
4040
4B20
92A0
9260
9FA0
F220
9120
9160
90E0
5060
4040
ENDCHAR
STARTCHAR 3251
ENCODING 12881
SWIDTH 1000 0
DWIDTH 12 0
BBX 10 11 1 -1
BITMAP
1E00
6180
7A80
AA40
8A40
9240
A240
AA40
7A80
2100
1E00
ENDCHAR
STARTCHAR 3252
ENCODING 12882
SWIDTH 1000 0
DWIDTH 12 0
BBX 12 11 0 -1
BITMAP
1F80
60C0
7FE0
A670
8450
8890
9110
A650
7FE0
3040
0F80
ENDCHAR
STARTCHAR 3253
ENCODING 12883
SWIDTH 1000 0
DWIDTH 12 0
BBX 11 11 0 -1
BITMAP
1F00
2180
7FC0
A6E0
84A0
8920
90A0
A2A0
7FC0
2080
1F00
ENDCHAR
STARTCHAR 3254
ENCODING 12884
SWIDTH 1000 0
DWIDTH 12 0
BBX 12 11 0 -1
BITMAP
0F00
30C0
7CA0
A4B0
8790
8A90
9290
A3D0
7CA0
2140
1F80
ENDCHAR
STARTCHAR 3255
ENCODING 12885
SWIDTH 1000 0
DWIDTH 12 0
BBX 12 11 0 -1
BITMAP
0F00
30C0
7DE0
A630
8610
89D0
9050
A550
7DA0
3040
0F80
ENDCHAR
STARTCHAR 3256
ENCODING 12886
SWIDTH 1000 0
DWIDTH 12 0
BBX 12 11 0 -1
BITMAP
1F80
60C0
7CE0
A530
8690
8950
9150
A550
7DA0
3040
0F80
ENDCHAR
STARTCHAR 3257
ENCODING 12887
SWIDTH 1000 0
DWIDTH 12 0
BBX 11 11 0 -1
BITMAP
1F00
2180
7FC0
A4E0
8520
8920
9120
A520
7D40
2080
1F00
ENDCHAR
STARTCHAR 3258
ENCODING 12888
SWIDTH 1000 0
DWIDTH 12 0
BBX 12 11 0 -1
BITMAP
1F80
60C0
7DE0
A570
8590
8990
9150
A550
7DE0
3040
0F80
ENDCHAR
STARTCHAR 3259
ENCODING 12889
SWIDTH 1000 0
DWIDTH 12 0
BBX 12 11 0 -1
BITMAP
1F80
60C0
7DA0
A570
8550
89D0
9050
A550
7DA0
3040
0F80
ENDCHAR
STARTCHAR 325A
ENCODING 12890
SWIDTH 1000 0
DWIDTH 12 0
BBX 11 11 0 -1
BITMAP
1F00
2180
7940
AAE0
8AA0
92A0
8AA0
8AA0
AAC0
7180
1F00
ENDCHAR
STARTCHAR 325B
ENCODING 12891
SWIDTH 1000 0
DWIDTH 12 0
BBX 11 11 0 -1
BITMAP
1F00
6180
7B40
A960
8920
9120
8920
A920
7940
2280
1F00
ENDCHAR
STARTCHAR 325C
ENCODING 12892
SWIDTH 1000 0
DWIDTH 12 0
BBX 12 11 0 -1
BITMAP
1F80
20C0
7BE0
AA70
8850
9090
8910
AA50
7BE0
3040
0F80
ENDCHAR
STARTCHAR 325D
ENCODING 12893
SWIDTH 1000 0
DWIDTH 12 0
BBX 11 11 0 -1
BITMAP
1F00
2180
7BC0
AAE0
88A0
9120
88A0
88A0
AAC0
7380
1F00
ENDCHAR
STARTCHAR 325E
ENCODING 12894
SWIDTH 1000 0
DWIDTH 12 0
BBX 12 11 0 -1
BITMAP
0F00
30C0
78A0
A8B0
8B90
9290
8E90
87D0
B8A0
6140
1F80
ENDCHAR
STARTCHAR 325F
ENCODING 12895
SWIDTH 1000 0
DWIDTH 12 0
BBX 11 11 0 -1
BITMAP
1F00
2180
7BC0
AA60
8B20
92A0
88A0
88A0
AAC0
7380
1F00
ENDCHAR
STARTCHAR 32A4
ENCODING 12964
SWIDTH 1000 0
DWIDTH 12 0
BBX 11 10 0 0
BITMAP
1F80
65C0
8440
8520
87A0
8420
8420
7FC0
2080
1F00
ENDCHAR
STARTCHAR 32A5
ENCODING 12965
SWIDTH 1000 0
DWIDTH 12 0
BBX 10 10 1 0
BITMAP
1C00
2300
4480
8540
BF40
A540
BF40
8480
4480
3F00
ENDCHAR
STARTCHAR 32A6
ENCODING 12966
SWIDTH 1000 0
DWIDTH 12 0
BBX 11 11 0 -1
BITMAP
0F00
3180
4040
BFE0
8420
8620
85A0
8420
8440
6480
1F00
ENDCHAR
STARTCHAR 32A7
ENCODING 12967
SWIDTH 1000 0
DWIDTH 12 0
BBX 11 11 1 -1
BITMAP
1F00
6980
90C0
FFE0
9020
9F20
A420
C520
BFC0
6080
1F00
ENDCHAR
STARTCHAR 32A8
ENCODING 12968
SWIDTH 1000 0
DWIDTH 12 0
BBX 11 11 1 -1
BITMAP
1E00
6980
8940
FFE0
9020
9F20
F120
9F20
5140
2080
1F00
ENDCHAR
STARTCHAR 32B1
ENCODING 12977
SWIDTH 1000 0
DWIDTH 12 0
BBX 11 11 0 -1
BITMAP
1F00
2180
79C0
AAE0
8A20
93A0
8AA0
8AA0
AAC0
7180
1F00
ENDCHAR
STARTCHAR 32B2
ENCODING 12978
SWIDTH 1000 0
DWIDTH 12 0
BBX 11 11 0 -1
BITMAP
1F00
2180
7BC0
ACE0
8920
9120
8920
8920
A940
7180
1F00
ENDCHAR
STARTCHAR 32B3
ENCODING 12979
SWIDTH 1000 0
DWIDTH 12 0
BBX 11 11 0 -1
BITMAP
1F00
2180
7BC0
AAE0
8AA0
9120
8AA0
8AA0
AAC0
7380
1F00
ENDCHAR
STARTCHAR 32B4
ENCODING 12980
SWIDTH 1000 0
DWIDTH 12 0
BBX 11 11 0 -1
BITMAP
1F00
2180
7940
AAE0
8AA0
92A0
89A0
88A0
AAC0
7380
1F00
ENDCHAR
STARTCHAR 32B5
ENCODING 12981
SWIDTH 1000 0
DWIDTH 12 0
BBX 11 11 1 -1
BITMAP
1E00
6180
5140
92E0
F2A0
D2A0
D2A0
FAA0
9140
6880
3F00
ENDCHAR
STARTCHAR 32B6
ENCODING 12982
SWIDTH 1000 0
DWIDTH 12 0
BBX 10 11 1 -1
BITMAP
1E00
6300
5280
92C0
F240
D240
D240
FA40
9280
6900
3E00
ENDCHAR
STARTCHAR 32B7
ENCODING 12983
SWIDTH 1000 0
DWIDTH 12 0
BBX 11 11 1 -1
BITMAP
1E00
6180
57C0
94E0
F0A0
D120
D220
FC20
97C0
6880
1F00
ENDCHAR
STARTCHAR 32B8
ENCODING 12984
SWIDTH 1000 0
DWIDTH 12 0
BBX 10 11 1 -1
BITMAP
1E00
6100
5780
95C0
F140
D240
D140
F940
9780
6900
3E00
ENDCHAR
STARTCHAR 32B9
ENCODING 12985
SWIDTH 1000 0
DWIDTH 12 0
BBX 11 11 1 -1
BITMAP
1E00
6180
5140
9160
F720
D520
D520
FFA0
9140
6A80
3F00
ENDCHAR
STARTCHAR 32BA
ENCODING 12986
SWIDTH 1000 0
DWIDTH 12 0
BBX 11 11 1 -1
BITMAP
1F00
6180
53C0
9260
B420
D3A0
D0A0
F8A0
93C0
6880
3F00
ENDCHAR
STARTCHAR 32BB
ENCODING 12987
SWIDTH 1000 0
DWIDTH 12 0
BBX 11 11 1 -1
BITMAP
1E00
6180
51C0
92E0
F220
D5A0
D2A0
FAA0
93C0
6880
3F00
ENDCHAR
STARTCHAR 32BC
ENCODING 12988
SWIDTH 1000 0
DWIDTH 12 0
BBX 10 11 1 -1
BITMAP
1E00
6100
5780
99C0
BA40
D240
D240
FA40
9280
6900
3E00
ENDCHAR
STARTCHAR 32BD
ENCODING 12989
SWIDTH 1000 0
DWIDTH 12 0
BBX 11 11 1 -1
BITMAP
1F00
6180
53C0
92E0
F2A0
D120
D2A0
FAA0
93C0
6880
3F00
ENDCHAR
STARTCHAR 32BE
ENCODING 12990
SWIDTH 1000 0
DWIDTH 12 0
BBX 11 11 1 -1
BITMAP
1E00
6180
5140
92E0
F2A0
D2A0
D3A0
F8A0
93C0
6880
3F00
ENDCHAR
STARTCHAR 32BF
ENCODING 12991
SWIDTH 1000 0
DWIDTH 12 0
BBX 10 11 1 -1
BITMAP
1E00
6180
7B80
C4C0
C4C0
B4C0
8CC0
CCC0
7380
4100
3E00
ENDCHAR
STARTCHAR 32D0
ENCODING 13008
SWIDTH 1000 0
DWIDTH 12 0
BBX 10 11 1 -1
BITMAP
1E00
6180
7F80
81C0
8A40
8440
8840
8840
9080
6100
1E00
ENDCHAR
STARTCHAR 32D1
ENCODING 13009
SWIDTH 1000 0
DWIDTH 12 0
BBX 10 11 1 -1
BITMAP
1E00
6180
4380
82C0
8C40
9840
E440
8440
8480
6500
1E00
ENDCHAR
STARTCHAR 32D2
ENCODING 13010
SWIDTH 1000 0
DWIDTH 12 0
BBX 10 11 1 -1
BITMAP
1E00
6980
4480
A7C0
B9C0
A140
A140
8240
8480
7900
1E00
ENDCHAR
STARTCHAR 32D3
ENCODING 13011
SWIDTH 1000 0
DWIDTH 12 0
BBX 11 11 1 -1
BITMAP
1F00
6180
4040
BFE0
8420
8420
8420
FDE0
8240
6080
1F00
ENDCHAR
STARTCHAR 32D4
ENCODING 13012
SWIDTH 1000 0
DWIDTH 12 0
BBX 10 11 1 -1
BITMAP
1E00
6580
4480
BFC0
8C40
8C40
9240
A240
4E80
2100
1E00
ENDCHAR
STARTCHAR 32D5
ENCODING 13013
SWIDTH 1000 0
DWIDTH 12 0
BBX 10 11 1 -1
BITMAP
1E00
6580
4480
BDC0
8AC0
8940
8940
9540
A280
6100
1E00
ENDCHAR
STARTCHAR 32D6
ENCODING 13014
SWIDTH 1000 0
DWIDTH 12 0
BBX 10 11 1 -1
BITMAP
1E00
7980
4880
8BC0
BC40
89C0
FE40
8440
8480
6500
1E00
ENDCHAR
STARTCHAR 32D7
ENCODING 13015
SWIDTH 1000 0
DWIDTH 12 0
BBX 10 11 1 -1
BITMAP
1E00
6980
4580
8BC0
9240
A240
8440
8840
9080
6100
1E00
ENDCHAR
STARTCHAR 32D8
ENCODING 13016
SWIDTH 1000 0
DWIDTH 12 0
BBX 10 11 1 -1
BITMAP
1E00
6180
5080
93C0
AC40
C440
8440
8440
8880
7100
1E00
ENDCHAR
STARTCHAR 32D9
ENCODING 13017
SWIDTH 1000 0
DWIDTH 12 0
BBX 10 11 1 -1
BITMAP
1E00
6180
4080
BFC0
8140
8140
8140
BE40
8180
6100
1E00
ENDCHAR
STARTCHAR 32DA
ENCODING 13018
SWIDTH 1000 0
DWIDTH 12 0
BBX 11 11 0 -1
BITMAP
1F00
2180
5B40
8960
BFE0
8920
8A20
8220
4440
2880
1F00
ENDCHAR
STARTCHAR 32DB
ENCODING 13019
SWIDTH 1000 0
DWIDTH 12 0
BBX 10 11 1 -1
BITMAP
1E00
6180
5880
88C0
A0C0
9140
8240
8C40
B080
6100
1E00
ENDCHAR
STARTCHAR 32DC
ENCODING 13020
SWIDTH 1000 0
DWIDTH 12 0
BBX 10 11 1 -1
BITMAP
1E00
6180
5E80
82C0
8440
8440
8B40
90C0
E080
2100
1E00
ENDCHAR
STARTCHAR 32DD
ENCODING 13021
SWIDTH 1000 0
DWIDTH 12 0
BBX 11 11 1 -1
BITMAP
1E00
6180
5040
9160
FFA0
9220
9020
9020
8F40
6080
1F00
ENDCHAR
STARTCHAR 32DE
ENCODING 13022
SWIDTH 1000 0
DWIDTH 12 0
BBX 10 11 1 -1
BITMAP
1E00
6180
4180
A1C0
9140
8240
8240
8440
8880
7100
1E00
ENDCHAR
STARTCHAR 32DF
ENCODING 13023
SWIDTH 1000 0
DWIDTH 12 0
BBX 10 11 1 -1
BITMAP
1E00
6980
4980
8FC0
9240
AA40
8640
8640
9880
6100
1E00
ENDCHAR
STARTCHAR 32E0
ENCODING 13024
SWIDTH 1000 0
DWIDTH 12 0
BBX 10 11 1 -1
BITMAP
1E00
6180
4380
BCC0
8440
FFC0
8440
8840
9080
6100
1E00
ENDCHAR
STARTCHAR 32E1
ENCODING 13025
SWIDTH 1000 0
DWIDTH 12 0
BBX 10 11 1 -1
BITMAP
1E00
6180
5080
C8C0
A8C0
A140
8240
8240
8C80
7100
1E00
ENDCHAR
STARTCHAR 32E2
ENCODING 13026
SWIDTH 1000 0
DWIDTH 12 0
BBX 10 11 1 -1
BITMAP
1E00
6180
5F80
80C0
FFC0
8440
8440
8840
8880
7100
1E00
ENDCHAR
STARTCHAR 32E3
ENCODING 13027
SWIDTH 1000 0
DWIDTH 12 0
BBX 10 11 1 -1
BITMAP
1E00
6180
5880
88C0
8840
8E40
8940
8840
8880
6100
1E00
ENDCHAR
STARTCHAR 32E5
ENCODING 13029
SWIDTH 1000 0
DWIDTH 12 0
BBX 10 11 1 -1
BITMAP
1E00
6180
4080
BFC0
8040
8040
FFC0
8040
8080
6100
1E00
ENDCHAR
STARTCHAR 32E9
ENCODING 13033
SWIDTH 1000 0
DWIDTH 12 0
BBX 10 11 1 -1
BITMAP
1E00
6180
4080
92C0
9140
A0C0
A0C0
C040
8080
6100
1E00
ENDCHAR
STARTCHAR 32EC
ENCODING 13036
SWIDTH 1000 0
DWIDTH 12 0
BBX 10 11 1 -1
BITMAP
1E00
6180
4080
98C0
9440
A240
C140
80C0
8080
6100
1E00
ENDCHAR
STARTCHAR 32ED
ENCODING 13037
SWIDTH 1000 0
DWIDTH 12 0
BBX 11 11 1 -1
BITMAP
1E00
6D80
4440
BDE0
C620
A520
A4A0
C4A0
9C40
6080
1F00
ENDCHAR
STARTCHAR 32FA
ENCODING 13050
SWIDTH 1000 0
DWIDTH 12 0
BBX 10 11 1 -1
BITMAP
1E00
6180
4080
BFC0
A140
A140
A140
A140
BE80
6100
1E00
ENDCHAR
STARTCHAR 3303
ENCODING 13059
SWIDTH 1000 0
DWIDTH 12 0
BBX 11 11 0 -1
BITMAP
7C00
0800
13E0
1000
2000
4000
3000
3200
3400
4800
9000
ENDCHAR
STARTCHAR 330D
ENCODING 13069
SWIDTH 1000 0
DWIDTH 12 0
BBX 11 11 0 -1
BITMAP
2000
7DE0
2920
4920
59E0
8000
4800
4800
4BE0
0800
3000
ENDCHAR
STARTCHAR 3314
ENCODING 13076
SWIDTH 1000 0
DWIDTH 12 0
BBX 10 11 1 -1
BITMAP
6000
2800
F000
1C00
E000
2000
17C0
0440
0440
0440
0780
ENDCHAR
STARTCHAR 3318
ENCODING 13080
SWIDTH 1000 0
DWIDTH 12 0
BBX 11 11 0 0
BITMAP
27C0
1800
69E0
9040
2040
4180
1000
1000
2800
4C00
7400
ENDCHAR
STARTCHAR 3322
ENCODING 13090
SWIDTH 1000 0
DWIDTH 12 0
BBX 12 12 0 -2
BITMAP
2100
2C90
F820
2040
3D80
0800
1C00
7000
1E00
1000
2000
4000
ENDCHAR
STARTCHAR 3323
ENCODING 13091
SWIDTH 1000 0
DWIDTH 12 0
BBX 12 11 0 -1
BITMAP
2200
2D90
F820
2040
3D80
4000
2000
1000
2C00
2000
2000
ENDCHAR
STARTCHAR 3326
ENCODING 13094
SWIDTH 1000 0
DWIDTH 12 0
BBX 10 11 1 -1
BITMAP
8000
9000
4000
B000
4000
4300
8500
0540
0680
0B00
1100
ENDCHAR
STARTCHAR 3327
ENCODING 13095
SWIDTH 1000 0
DWIDTH 12 0
BBX 10 11 1 -1
BITMAP
C000
4000
4000
7000
4000
4400
4240
0040
0080
0100
0600
ENDCHAR
STARTCHAR 332B
ENCODING 13099
SWIDTH 1000 0
DWIDTH 12 0
BBX 11 11 1 -1
BITMAP
0C00
2800
27E0
4400
8000
0080
4D80
F540
62A0
4280
7480
ENDCHAR
STARTCHAR 3336
ENCODING 13110
SWIDTH 1000 0
DWIDTH 12 0
BBX 11 11 0 0
BITMAP
00A0
2160
5A40
8480
0100
2200
3140
5D60
A360
21C0
C240
ENDCHAR
STARTCHAR 333B
ENCODING 13115
SWIDTH 1000 0
DWIDTH 12 0
BBX 11 11 0 -1
BITMAP
0C00
3C00
5BE0
C400
0000
0C00
3400
6400
0800
1000
2000
ENDCHAR
STARTCHAR 3349
ENCODING 13129
SWIDTH 1000 0
DWIDTH 12 0
BBX 9 11 1 -1
BITMAP
C000
2000
E000
0000
C080
2480
0480
0480
0080
0100
0600
ENDCHAR
STARTCHAR 334A
ENCODING 13130
SWIDTH 1000 0
DWIDTH 12 0
BBX 11 11 0 0
BITMAP
3140
0140
7140
6040
1880
0000
1980
51A0
4FA0
8940
8280
ENDCHAR
STARTCHAR 334D
ENCODING 13133
SWIDTH 1000 0
DWIDTH 12 0
BBX 10 11 1 0
BITMAP
1000
9000
67C0
5000
8000
4000
4300
6340
5340
4580
4900
ENDCHAR
STARTCHAR 3351
ENCODING 13137
SWIDTH 1000 0
DWIDTH 12 0
BBX 11 11 1 0
BITMAP
9000
9540
9540
1080
2100
4200
8300
4320
B340
8480
8880
ENDCHAR
STARTCHAR 3357
ENCODING 13143
SWIDTH 1000 0
DWIDTH 12 0
BBX 10 11 1 -1
BITMAP
8800
FD40
9580
1080
2100
4200
4000
4000
7000
4000
4000
ENDCHAR
STARTCHAR 337B
ENCODING 13179
SWIDTH 1000 0
DWIDTH 12 0
BBX 11 11 1 -2
BITMAP
1080
F940
AFE0
B480
B4A0
B7C0
FDC0
2580
26A0
2960
2920
ENDCHAR
STARTCHAR 337C
ENCODING 13180
SWIDTH 1000 0
DWIDTH 12 0
BBX 10 10 1 0
BITMAP
FB40
DEC0
EAC0
EFC0
DAC0
FBC0
EEC0
EAC0
BAC0
2A00
ENDCHAR
STARTCHAR 337D
ENCODING 13181
SWIDTH 1000 0
DWIDTH 12 0
BBX 10 10 1 0
BITMAP
2040
27C0
3100
F900
2500
25C0
6500
5500
5540
8FC0
ENDCHAR
STARTCHAR 337E
ENCODING 13182
SWIDTH 1000 0
DWIDTH 12 0
BBX 11 10 1 -1
BITMAP
FA80
EB80
FF40
EB60
EAA0
FDC0
ED40
2D40
4DC0
7D40
ENDCHAR
STARTCHAR 338E
ENCODING 13198
SWIDTH 1000 0
DWIDTH 12 0
BBX 12 8 0 -1
BITMAP
FCF0
5520
5520
54C0
5500
55E0
8120
01E0
ENDCHAR
STARTCHAR 338F
ENCODING 13199
SWIDTH 1000 0
DWIDTH 12 0
BBX 11 10 0 -1
BITMAP
C000
4000
4000
5DE0
5240
71C0
5200
4BC0
B620
01E0
ENDCHAR
STARTCHAR 339C
ENCODING 13212
SWIDTH 1000 0
DWIDTH 12 0
BBX 11 6 0 1
BITMAP
FFE0
56A0
56A0
56A0
56A0
56A0
ENDCHAR
STARTCHAR 339D
ENCODING 13213
SWIDTH 1000 0
DWIDTH 12 0
BBX 10 6 1 1
BITMAP
7FC0
9540
8540
8540
9540
6540
ENDCHAR
STARTCHAR 339E
ENCODING 13214
SWIDTH 1000 0
DWIDTH 12 0
BBX 11 8 0 1
BITMAP
C000
4000
4000
5FE0
62A0
52A0
52A0
4AA0
ENDCHAR
STARTCHAR 33A1
ENCODING 13217
SWIDTH 1000 0
DWIDTH 12 0
BBX 10 9 1 1
BITMAP
00C0
00C0
00C0
00C0
5B80
E480
4480
4480
4480
ENDCHAR
STARTCHAR 33C4
ENCODING 13252
SWIDTH 1000 0
DWIDTH 12 0
BBX 10 7 1 0
BITMAP
7380
D280
8400
8400
8400
DEC0
7380
ENDCHAR
STARTCHAR 33CB
ENCODING 13259
SWIDTH 1000 0
DWIDTH 12 0
BBX 10 8 1 1
BITMAP
EF80
4440
4440
4440
7F80
4400
4400
4400
ENDCHAR
STARTCHAR 33CD
ENCODING 13261
SWIDTH 1000 0
DWIDTH 12 0
BBX 11 8 0 1
BITMAP
F7C0
6280
6300
6300
6280
6280
5280
5A60
ENDCHAR
STARTCHAR 3402
ENCODING 13314
SWIDTH 1000 0
DWIDTH 12 0
BBX 11 11 0 -1
BITMAP
0800
0840
1F80
6880
0F80
0000
3520
39C0
E740
2520
3DE0
ENDCHAR
STARTCHAR 3406
ENCODING 13318
SWIDTH 1000 0
DWIDTH 12 0
BBX 8 11 1 0
BITMAP
07
3A
3F
21
3F
3F
21
3F
21
41
8E
ENDCHAR
STARTCHAR 342C
ENCODING 13356
SWIDTH 1000 0
DWIDTH 12 0
BBX 11 11 1 -1
BITMAP
0400
0440
FFC0
0A00
1180
7F40
2100
2D00
2940
49C0
8020
ENDCHAR
STARTCHAR 342E
ENCODING 13358
SWIDTH 1000 0
DWIDTH 12 0
BBX 11 12 1 -1
BITMAP
0440
FFC0
1A00
F3C0
7FC0
7F80
1240
FFC0
1C80
7340
9480
6860
ENDCHAR
STARTCHAR 3468
ENCODING 13416
SWIDTH 1000 0
DWIDTH 12 0
BBX 11 12 0 -2
BITMAP
1040
17C0
2440
27C0
2440
E7E0
A900
2FE0
2100
22C0
2420
0800
ENDCHAR
STARTCHAR 346A
ENCODING 13418
SWIDTH 1000 0
DWIDTH 12 0
BBX 12 12 0 -2
BITMAP
2100
1120
2FF0
2280
2180
6E70
B7C0
27C0
2440
2840
2840
1000
ENDCHAR
STARTCHAR 3492
ENCODING 13458
SWIDTH 1000 0
DWIDTH 12 0
BBX 12 11 0 -1
BITMAP
1280
1AA0
26E0
2FF0
2240
6FF0
AFE0
2FF0
2380
2560
3910
ENDCHAR
STARTCHAR 34B5
ENCODING 13493
SWIDTH 1000 0
DWIDTH 12 0
BBX 11 12 0 -1
BITMAP
0600
0440
3FC0
2040
3FC0
2040
3FC0
3000
1900
30C0
4020
8000
ENDCHAR
STARTCHAR 34BC
ENCODING 13500
SWIDTH 1000 0
DWIDTH 12 0
BBX 10 11 1 0
BITMAP
1280
FFC0
1200
1E00
7F80
4480
7680
5680
6F80
4480
4780
ENDCHAR
STARTCHAR 34C1
ENCODING 13505
SWIDTH 1000 0
DWIDTH 12 0
BBX 11 7 0 1
BITMAP
8040
7FE0
5240
9AC0
1240
23E0
C000
ENDCHAR
STARTCHAR 34C7
ENCODING 13511
SWIDTH 1000 0
DWIDTH 12 0
BBX 11 11 1 -1
BITMAP
8380
5E00
2200
4240
5FE0
8200
8300
8500
4480
4840
3060
ENDCHAR
STARTCHAR 34DB
ENCODING 13531
SWIDTH 1000 0
DWIDTH 12 0
BBX 10 12 1 -2
BITMAP
0080
0FC0
FA40
2240
2240
2240
2240
2C40
7440
8480
0B80
1000
ENDCHAR
STARTCHAR 351F
ENCODING 13599
SWIDTH 1000 0
DWIDTH 12 0
BBX 11 11 0 -1
BITMAP
1100
3180
7BC0
9540
7B60
12E0
6C20
7FC0
0440
0840
7380
ENDCHAR
STARTCHAR 355D
ENCODING 13661
SWIDTH 1000 0
DWIDTH 12 0
BBX 12 12 0 -2
BITMAP
0400
0220
FFF0
3FC0
2040
3FC0
0080
7FC0
1080
0D00
0780
7870
ENDCHAR
STARTCHAR 355E
ENCODING 13662
SWIDTH 1000 0
DWIDTH 12 0
BBX 12 11 0 -1
BITMAP
0400
7FF0
42A0
7EA0
48A0
7EA0
6AC0
6A40
AA60
AEA0
0B10
ENDCHAR
STARTCHAR 3563
ENCODING 13667
SWIDTH 1000 0
DWIDTH 12 0
BBX 10 11 1 -1
BITMAP
0400
0E00
1200
2100
2080
4040
BF00
2100
2100
3F00
2100
ENDCHAR
STARTCHAR 356E
ENCODING 13678
SWIDTH 1000 0
DWIDTH 12 0
BBX 10 10 1 -2
BITMAP
2500
E880
A840
B9C0
A500
E200
A200
8500
0880
1040
ENDCHAR
STARTCHAR 35A6
ENCODING 13734
SWIDTH 1000 0
DWIDTH 12 0
BBX 10 11 1 -1
BITMAP
0400
2280
FFC0
AF80
AA80
AF80
EF80
A700
8B00
12C0
2200
ENDCHAR
STARTCHAR 35A8
ENCODING 13736
SWIDTH 1000 0
DWIDTH 12 0
BBX 10 11 1 -1
BITMAP
0500
1780
F900
9700
9FC0
9A40
F380
9680
8AC0
0A40
0600
ENDCHAR
STARTCHAR 35C5
ENCODING 13765
SWIDTH 1000 0
DWIDTH 12 0
BBX 10 11 1 -1
BITMAP
0840
05C0
E540
BF40
A5C0
A540
BDC0
F540
9D40
1240
04C0
ENDCHAR
STARTCHAR 35DA
ENCODING 13786
SWIDTH 1000 0
DWIDTH 12 0
BBX 11 11 1 -1
BITMAP
0040
1FE0
E500
AFC0
AD40
AFC0
A240
FFE0
8700
0AC0
3220
ENDCHAR
STARTCHAR 35F4
ENCODING 13812
SWIDTH 1000 0
DWIDTH 12 0
BBX 10 11 1 -1
BITMAP
0480
0DC0
EDC0
AD40
ADC0
AF40
AD40
EF40
8F40
0840
08C0
ENDCHAR
STARTCHAR 3605
ENCODING 13829
SWIDTH 1000 0
DWIDTH 12 0
BBX 11 11 1 0
BITMAP
1440
37E0
E900
B620
ADE0
BE40
BD40
F640
9640
1740
19C0
ENDCHAR
STARTCHAR 364A
ENCODING 13898
SWIDTH 1000 0
DWIDTH 12 0
BBX 11 12 0 -2
BITMAP
2040
27E0
27C0
F440
27C0
2440
2FE0
2540
2D60
F480
8540
0A20
ENDCHAR
STARTCHAR 3691
ENCODING 13969
SWIDTH 1000 0
DWIDTH 12 0
BBX 10 12 1 -2
BITMAP
0200
3F00
0180
FFC0
0100
3F00
0480
FFC0
0400
0A00
1180
E040
ENDCHAR
STARTCHAR 3696
ENCODING 13974
SWIDTH 1000 0
DWIDTH 12 0
BBX 12 12 0 -2
BITMAP
0400
0280
3FC0
3FC0
2040
3FC0
0220
FFF0
0200
0580
1870
E000
ENDCHAR
STARTCHAR 3699
ENCODING 13977
SWIDTH 1000 0
DWIDTH 12 0
BBX 11 12 1 -1
BITMAP
2040
27C0
FE40
2A40
4BC0
9400
0440
FFE0
0400
0A00
1180
E060
ENDCHAR
STARTCHAR 36CF
ENCODING 14031
SWIDTH 1000 0
DWIDTH 12 0
BBX 11 11 1 -1
BITMAP
0400
6280
42C0
FFC0
5200
AE40
A780
E680
2A40
5260
8600
ENDCHAR
STARTCHAR 3761
ENCODING 14177
SWIDTH 1000 0
DWIDTH 12 0
BBX 11 12 1 -2
BITMAP
0400
0640
FFE0
8040
FFE0
7A40
4A40
7980
4880
F940
0A20
0400
ENDCHAR
STARTCHAR 3762
ENCODING 14178
SWIDTH 1000 0
DWIDTH 12 0
BBX 10 11 1 0
BITMAP
0480
7FC0
C280
3D00
3F00
2500
9E80
7F80
4680
7A80
4180
ENDCHAR
STARTCHAR 376B
ENCODING 14187
SWIDTH 1000 0
DWIDTH 12 0
BBX 11 11 0 0
BITMAP
0220
7FE0
C240
7BC0
5680
6B60
5FC0
53E0
77C0
4920
4FE0
ENDCHAR
STARTCHAR 376C
ENCODING 14188
SWIDTH 1000 0
DWIDTH 12 0
BBX 12 11 0 -1
BITMAP
1880
1480
7E80
95E0
7880
7CA0
FFF0
7C80
4560
7D30
4620
ENDCHAR
STARTCHAR 3775
ENCODING 14197
SWIDTH 1000 0
DWIDTH 12 0
BBX 11 11 1 -1
BITMAP
0100
3F80
3F80
2080
3F40
7FC0
0240
FFE0
2200
1200
0600
ENDCHAR
STARTCHAR 378D
ENCODING 14221
SWIDTH 1000 0
DWIDTH 12 0
BBX 11 12 0 -2
BITMAP
0080
3FC0
2040
3FC0
2200
2280
2F80
2280
4A80
46A0
49A0
90E0
ENDCHAR
STARTCHAR 37C1
ENCODING 14273
SWIDTH 1000 0
DWIDTH 12 0
BBX 10 11 1 -1
BITMAP
6040
4FC0
6800
DFC0
D900
D940
DFC0
F900
9900
8900
1100
ENDCHAR
STARTCHAR 37E2
ENCODING 14306
SWIDTH 1000 0
DWIDTH 12 0
BBX 10 11 1 -1
BITMAP
4480
4480
7F80
FFC0
0C00
7340
FFC0
7D00
7D00
4500
0300
ENDCHAR
STARTCHAR 37E8
ENCODING 14312
SWIDTH 1000 0
DWIDTH 12 0
BBX 11 11 1 -2
BITMAP
8200
6A40
DA40
DFC0
DFE0
D200
DFC0
FD40
9D40
8D40
0DC0
ENDCHAR
STARTCHAR 37F4
ENCODING 14324
SWIDTH 1000 0
DWIDTH 12 0
BBX 11 11 1 -2
BITMAP
0300
6440
4FC0
DA40
DFC0
DA40
D780
F5E0
95E0
8920
09E0
ENDCHAR
STARTCHAR 37FD
ENCODING 14333
SWIDTH 1000 0
DWIDTH 12 0
BBX 11 11 1 -1
BITMAP
0040
6FE0
4500
DFC0
DD40
D780
DFC0
FFE0
9A40
8A40
1600
ENDCHAR
STARTCHAR 3800
ENCODING 14336
SWIDTH 1000 0
DWIDTH 12 0
BBX 10 11 1 0
BITMAP
0800
3F00
3F00
3E00
3FC0
1FC0
9180
6480
4480
7F80
4080
ENDCHAR
STARTCHAR 382F
ENCODING 14383
SWIDTH 1000 0
DWIDTH 12 0
BBX 8 11 2 -1
BITMAP
02
FF
82
82
FE
80
FF
81
81
FF
81
ENDCHAR
STARTCHAR 3836
ENCODING 14390
SWIDTH 1000 0
DWIDTH 12 0
BBX 10 11 1 -1
BITMAP
6200
4300
F700
D500
D500
D500
D500
D500
F940
4940
51C0
ENDCHAR
STARTCHAR 3840
ENCODING 14400
SWIDTH 1000 0
DWIDTH 12 0
BBX 11 11 0 -1
BITMAP
0200
0B00
1280
2240
3FE0
E240
2E40
2B40
3340
2240
21C0
ENDCHAR
STARTCHAR 385C
ENCODING 14428
SWIDTH 1000 0
DWIDTH 12 0
BBX 10 11 1 0
BITMAP
6E80
47C0
FD80
DC80
D480
D740
D800
DFC0
FB00
4AC0
5600
ENDCHAR
STARTCHAR 3861
ENCODING 14433
SWIDTH 1000 0
DWIDTH 12 0
BBX 11 11 1 -1
BITMAP
4040
4FE0
EA40
FF40
EFE0
EE40
EFC0
EEC0
F440
5340
6CC0
ENDCHAR
STARTCHAR 38FA
ENCODING 14586
SWIDTH 1000 0
DWIDTH 12 0
BBX 10 10 1 0
BITMAP
1800
1000
1000
9480
9480
9240
9240
1000
9000
6000
ENDCHAR
STARTCHAR 3917
ENCODING 14615
SWIDTH 1000 0
DWIDTH 12 0
BBX 12 10 0 0
BITMAP
0640
7FE0
3FC0
7FE0
1080
2440
56B0
A540
2520
1C00
ENDCHAR
STARTCHAR 391A
ENCODING 14618
SWIDTH 1000 0
DWIDTH 12 0
BBX 12 11 0 0
BITMAP
2220
25E0
3800
B220
B5F0
A440
2C40
2440
2440
2440
25C0
ENDCHAR
STARTCHAR 396F
ENCODING 14703
SWIDTH 1000 0
DWIDTH 12 0
BBX 10 11 1 -1
BITMAP
0100
3E00
4780
BF40
7F80
3F00
FFC0
7F00
5480
9240
1F00
ENDCHAR
STARTCHAR 3A6E
ENCODING 14958
SWIDTH 1000 0
DWIDTH 12 0
BBX 11 11 0 -1
BITMAP
2780
2BC0
3FC0
7940
2FC0
3FE0
EB40
37A0
2FC0
2100
6700
ENDCHAR
STARTCHAR 3A73
ENCODING 14963
SWIDTH 1000 0
DWIDTH 12 0
BBX 11 11 1 -1
BITMAP
5580
5EC0
5FE0
FFC0
5FC0
77C0
DFE0
4480
4300
4380
DC60
ENDCHAR
STARTCHAR 3AD6
ENCODING 15062
SWIDTH 1000 0
DWIDTH 12 0
BBX 10 11 1 0
BITMAP
0400
0500
0780
0400
0480
FFC0
3F00
3F00
2100
3F00
2100
ENDCHAR
STARTCHAR 3AD7
ENCODING 15063
SWIDTH 1000 0
DWIDTH 12 0
BBX 12 11 0 -1
BITMAP
0040
3FC0
3FC0
2040
3FC0
3FC0
0500
FFF0
0200
0200
0E00
ENDCHAR
STARTCHAR 3AEA
ENCODING 15082
SWIDTH 1000 0
DWIDTH 12 0
BBX 11 11 0 0
BITMAP
0640
7FC0
0480
3FC0
7FE0
1100
77C0
97A0
1480
1780
1480
ENDCHAR
STARTCHAR 3B0E
ENCODING 15118
SWIDTH 1000 0
DWIDTH 12 0
BBX 10 11 1 -1
BITMAP
0100
7F80
7F80
7F80
2100
D6C0
7380
FFC0
2500
52C0
9240
ENDCHAR
STARTCHAR 3B1A
ENCODING 15130
SWIDTH 1000 0
DWIDTH 12 0
BBX 10 11 1 -1
BITMAP
2500
E500
BF40
ADC0
B680
E980
B780
FC80
B480
9540
1640
ENDCHAR
STARTCHAR 3B1C
ENCODING 15132
SWIDTH 1000 0
DWIDTH 12 0
BBX 11 11 1 -1
BITMAP
1040
FFE0
4F20
3140
FFC0
2140
FFE0
3F80
3F80
3F80
2080
ENDCHAR
STARTCHAR 3B22
ENCODING 15138
SWIDTH 1000 0
DWIDTH 12 0
BBX 11 11 1 0
BITMAP
2480
E540
AFC0
AFC0
FFE0
A780
BD40
FFE0
BDC0
05C0
0E60
ENDCHAR
STARTCHAR 3B6D
ENCODING 15213
SWIDTH 1000 0
DWIDTH 12 0
BBX 11 11 0 -1
BITMAP
2240
2E20
3AA0
FAA0
2EA0
24A0
76A0
AAA0
2A20
2A20
36E0
ENDCHAR
STARTCHAR 3B77
ENCODING 15223
SWIDTH 1000 0
DWIDTH 12 0
BBX 12 12 0 -2
BITMAP
2020
27E0
3520
FFE0
2520
37E0
7100
AFF0
A120
2220
24E0
0800
ENDCHAR
STARTCHAR 3B87
ENCODING 15239
SWIDTH 1000 0
DWIDTH 12 0
BBX 12 11 0 -1
BITMAP
2000
21E0
3700
FFF0
2280
3240
6D30
B5A0
2550
2940
2300
ENDCHAR
STARTCHAR 3B88
ENCODING 15240
SWIDTH 1000 0
DWIDTH 12 0
BBX 12 11 0 0
BITMAP
2100
2220
37E0
FA80
2480
37E0
6830
A7E0
A580
2960
2300
ENDCHAR
STARTCHAR 3B8D
ENCODING 15245
SWIDTH 1000 0
DWIDTH 12 0
BBX 10 11 1 -1
BITMAP
0200
1340
FFC0
7E80
5A80
6880
5980
FFC0
1E00
2580
C440
ENDCHAR
STARTCHAR 3BA4
ENCODING 15268
SWIDTH 1000 0
DWIDTH 12 0
BBX 12 11 0 0
BITMAP
0220
3FE0
4E20
13E0
6D00
3FC0
DFB0
7FE0
0600
1BC0
6230
ENDCHAR
STARTCHAR 3BB6
ENCODING 15286
SWIDTH 1000 0
DWIDTH 12 0
BBX 11 11 0 -1
BITMAP
3120
2DE0
26A0
7FE0
2BA0
3BA0
6BE0
AFA0
A2A0
2520
2960
ENDCHAR
STARTCHAR 3BC3
ENCODING 15299
SWIDTH 1000 0
DWIDTH 12 0
BBX 12 11 0 0
BITMAP
2120
2FE0
3300
FDE0
2900
3280
ED70
B340
23C0
2D20
2300
ENDCHAR
STARTCHAR 3BCD
ENCODING 15309
SWIDTH 1000 0
DWIDTH 12 0
BBX 11 11 0 -1
BITMAP
2A80
2AE0
3AA0
7B40
2FC0
32C0
7FE0
AB40
AAC0
2A40
32C0
ENDCHAR
STARTCHAR 3BF0
ENCODING 15344
SWIDTH 1000 0
DWIDTH 12 0
BBX 12 11 0 -1
BITMAP
2000
37E0
37E0
FD00
27F0
73C0
AFC0
A7C0
27C0
27F0
2400
ENDCHAR
STARTCHAR 3C0F
ENCODING 15375
SWIDTH 1000 0
DWIDTH 12 0
BBX 12 11 0 0
BITMAP
2EE0
2FF0
2B40
FFF0
27C0
3440
73A0
AFE0
2BA0
2AA0
2860
ENDCHAR
STARTCHAR 3C26
ENCODING 15398
SWIDTH 1000 0
DWIDTH 12 0
BBX 11 11 1 0
BITMAP
2200
2A40
2BC0
FD40
2540
F900
2300
5300
5A80
AC40
0860
ENDCHAR
STARTCHAR 3CC3
ENCODING 15555
SWIDTH 1000 0
DWIDTH 12 0
BBX 11 11 0 -1
BITMAP
4300
2280
0F80
9280
54A0
29E0
2120
5FE0
4100
4100
4100
ENDCHAR
STARTCHAR 3CD2
ENCODING 15570
SWIDTH 1000 0
DWIDTH 12 0
BBX 12 11 0 0
BITMAP
4100
2220
0FE0
9280
5440
2920
3230
4280
4440
67E0
2820
ENDCHAR
STARTCHAR 3D11
ENCODING 15633
SWIDTH 1000 0
DWIDTH 12 0
BBX 12 12 0 -2
BITMAP
0100
61A0
2FF0
9A60
6FF0
2880
2AA0
CBE0
4A80
5080
5100
0200
ENDCHAR
STARTCHAR 3D1E
ENCODING 15646
SWIDTH 1000 0
DWIDTH 12 0
BBX 11 11 0 -1
BITMAP
4060
2780
1A20
E540
60A0
2BE0
2A20
4BE0
CA20
4BE0
4A20
ENDCHAR
STARTCHAR 3D64
ENCODING 15716
SWIDTH 1000 0
DWIDTH 12 0
BBX 11 11 0 -1
BITMAP
7FE0
2660
FBA0
3140
3FE0
4940
4D40
D5A0
4240
4C20
1000
ENDCHAR
STARTCHAR 3D9A
ENCODING 15770
SWIDTH 1000 0
DWIDTH 12 0
BBX 10 11 1 -2
BITMAP
0040
DFC0
1FC0
BFC0
D840
5FC0
49C0
9DC0
BD40
8B40
4AC0
ENDCHAR
STARTCHAR 3DC0
ENCODING 15808
SWIDTH 1000 0
DWIDTH 12 0
BBX 11 11 0 -1
BITMAP
1100
5DC0
5500
2AC0
C480
7F80
0880
7FA0
08A0
0860
0820
ENDCHAR
STARTCHAR 3DD4
ENCODING 15828
SWIDTH 1000 0
DWIDTH 12 0
BBX 11 11 0 -1
BITMAP
2040
27A0
2D20
B2C0
A0A0
A5E0
2520
35E0
4D20
45E0
8520
ENDCHAR
STARTCHAR 3E05
ENCODING 15877
SWIDTH 1000 0
DWIDTH 12 0
BBX 12 11 0 -1
BITMAP
0100
2EA0
3FF0
BD40
AEE0
AEA0
2EA0
2CA0
5EA0
4AE0
8E80
ENDCHAR
STARTCHAR 3E3F
ENCODING 15935
SWIDTH 1000 0
DWIDTH 12 0
BBX 11 12 1 -2
BITMAP
2300
6240
AFC0
F280
AFC0
AFC0
3040
F500
2500
2540
29E0
1000
ENDCHAR
STARTCHAR 3E60
ENCODING 15968
SWIDTH 1000 0
DWIDTH 12 0
BBX 11 11 0 -1
BITMAP
8100
5920
23C0
6D40
9560
3540
5540
97C0
1120
1120
61E0
ENDCHAR
STARTCHAR 3E66
ENCODING 15974
SWIDTH 1000 0
DWIDTH 12 0
BBX 11 11 0 -1
BITMAP
A040
7FE0
2140
4140
A240
2C80
67C0
A440
2440
A7C0
4440
ENDCHAR
STARTCHAR 3E68
ENCODING 15976
SWIDTH 1000 0
DWIDTH 12 0
BBX 10 11 1 -2
BITMAP
0200
B200
4240
4FC0
AA40
2A40
6FC0
AA40
2A40
2FC0
C840
ENDCHAR
STARTCHAR 3E83
ENCODING 16003
SWIDTH 1000 0
DWIDTH 12 0
BBX 11 11 0 0
BITMAP
92A0
6FE0
2680
6440
A7E0
3840
5740
9740
1540
1040
61C0
ENDCHAR
STARTCHAR 3E94
ENCODING 16020
SWIDTH 1000 0
DWIDTH 12 0
BBX 12 11 0 0
BITMAP
59C0
6740
2920
6FC0
9480
37E0
3440
57F0
9760
1BA0
7460
ENDCHAR
STARTCHAR 3F57
ENCODING 16215
SWIDTH 1000 0
DWIDTH 12 0
BBX 10 10 1 -1
BITMAP
1300
F200
B200
B200
B200
F200
B300
F500
9480
1840
ENDCHAR
STARTCHAR 3F72
ENCODING 16242
SWIDTH 1000 0
DWIDTH 12 0
BBX 10 11 1 -1
BITMAP
0400
0440
3FC0
A080
7FC0
2800
6F80
B080
4080
4100
8700
ENDCHAR
STARTCHAR 3F75
ENCODING 16245
SWIDTH 1000 0
DWIDTH 12 0
BBX 10 11 1 -1
BITMAP
0400
0480
3FC0
A000
6600
2500
7F80
A400
4400
5FC0
8000
ENDCHAR
STARTCHAR 3F77
ENCODING 16247
SWIDTH 1000 0
DWIDTH 12 0
BBX 10 11 1 -1
BITMAP
0400
0480
3FC0
A800
6480
3C80
2F00
F500
3480
6440
8C00
ENDCHAR
STARTCHAR 3FAE
ENCODING 16302
SWIDTH 1000 0
DWIDTH 12 0
BBX 12 11 0 -1
BITMAP
0400
0220
3FF0
AFC0
6840
6FC0
BFE0
2240
4FE0
5FF0
8000
ENDCHAR
STARTCHAR 3FC9
ENCODING 16329
SWIDTH 1000 0
DWIDTH 12 0
BBX 12 10 0 0
BITMAP
0220
3FF0
AFC0
6FC0
3FF0
6FC0
AFC0
2FC0
44C0
9820
ENDCHAR
STARTCHAR 3FD7
ENCODING 16343
SWIDTH 1000 0
DWIDTH 12 0
BBX 12 11 0 -1
BITMAP
0400
0220
3FF0
A5F0
7FA0
65E0
AFE0
3B20
2BE0
52A0
9710
ENDCHAR
STARTCHAR 4039
ENCODING 16441
SWIDTH 1000 0
DWIDTH 12 0
BBX 11 11 1 -1
BITMAP
1300
F200
9FC0
F680
9A80
9A80
FF40
9340
F500
8880
0860
ENDCHAR
STARTCHAR 4058
ENCODING 16472
SWIDTH 1000 0
DWIDTH 12 0
BBX 10 11 1 0
BITMAP
2200
E780
AB80
F600
AC00
B780
FFC0
A200
EA80
8F80
0880
ENDCHAR
STARTCHAR 4093
ENCODING 16531
SWIDTH 1000 0
DWIDTH 12 0
BBX 12 11 0 -1
BITMAP
2020
23E0
3E20
53E0
5BE0
7E20
13E0
1980
2690
4690
84F0
ENDCHAR
STARTCHAR 4105
ENCODING 16645
SWIDTH 1000 0
DWIDTH 12 0
BBX 12 11 0 -1
BITMAP
0400
12C0
1540
3FE0
7FF0
1140
2FA0
FFF0
1A80
2260
CE00
ENDCHAR
STARTCHAR 4148
ENCODING 16712
SWIDTH 1000 0
DWIDTH 12 0
BBX 11 11 1 -1
BITMAP
0400
2680
1940
7FC0
FFE0
1080
6F60
BFC0
0E00
15C0
E420
ENDCHAR
STARTCHAR 414F
ENCODING 16719
SWIDTH 1000 0
DWIDTH 12 0
BBX 12 11 0 -2
BITMAP
1020
37E0
E420
37E0
FC40
2580
7720
77E0
A5D0
2B20
31F0
ENDCHAR
STARTCHAR 4163
ENCODING 16739
SWIDTH 1000 0
DWIDTH 12 0
BBX 11 11 0 -1
BITMAP
0200
3340
E7C0
37C0
FC40
2780
7FE0
A7C0
2100
2FE0
2000
ENDCHAR
STARTCHAR 41B4
ENCODING 16820
SWIDTH 1000 0
DWIDTH 12 0
BBX 10 11 1 0
BITMAP
0400
7FC0
B7C0
7C00
7F80
FF80
7F80
7F80
7FC0
4440
07C0
ENDCHAR
STARTCHAR 41BF
ENCODING 16831
SWIDTH 1000 0
DWIDTH 12 0
BBX 10 11 1 0
BITMAP
0400
7FC0
9FC0
7200
5780
5780
7780
FFC0
5300
5680
9A40
ENDCHAR
STARTCHAR 41E6
ENCODING 16870
SWIDTH 1000 0
DWIDTH 12 0
BBX 11 10 0 0
BITMAP
3740
7FE0
8B00
3F80
2280
FFE0
0200
0500
18E0
E000
ENDCHAR
STARTCHAR 41EE
ENCODING 16878
SWIDTH 1000 0
DWIDTH 12 0
BBX 12 11 0 0
BITMAP
3520
3FF0
4A80
9440
2FA0
3120
EFF0
A100
2120
2FE0
2000
ENDCHAR
STARTCHAR 41F3
ENCODING 16883
SWIDTH 1000 0
DWIDTH 12 0
BBX 11 12 0 -1
BITMAP
3720
3FE0
5280
8700
0840
77C0
3FA0
7FC0
03C0
0320
3CE0
4000
ENDCHAR
STARTCHAR 4207
ENCODING 16903
SWIDTH 1000 0
DWIDTH 12 0
BBX 12 11 0 0
BITMAP
3520
7FF0
4A80
83E0
0240
3FC0
3FC0
2240
FFF0
0200
0200
ENDCHAR
STARTCHAR 420E
ENCODING 16910
SWIDTH 1000 0
DWIDTH 12 0
BBX 12 11 0 0
BITMAP
1920
3DF0
4A80
94A0
7FF0
1780
1FE0
7FF0
0F00
12C0
6230
ENDCHAR
STARTCHAR 4264
ENCODING 16996
SWIDTH 1000 0
DWIDTH 12 0
BBX 12 12 0 -1
BITMAP
2520
3FE0
4C80
D520
FFF0
3940
5740
FEC0
4880
7940
2630
C000
ENDCHAR
STARTCHAR 42C6
ENCODING 17094
SWIDTH 1000 0
DWIDTH 12 0
BBX 11 11 0 0
BITMAP
3040
57E0
D800
63C0
5240
EA40
23C0
F200
AA00
A400
2800
ENDCHAR
STARTCHAR 42D6
ENCODING 17110
SWIDTH 1000 0
DWIDTH 12 0
BBX 10 11 1 -1
BITMAP
4400
2280
D780
6FC0
3280
7780
A280
7FC0
AFC0
A200
2200
ENDCHAR
STARTCHAR 42DD
ENCODING 17117
SWIDTH 1000 0
DWIDTH 12 0
BBX 11 12 1 -1
BITMAP
4000
2A20
DD40
5540
3180
5A20
AFE0
2240
FC80
AF80
A140
2620
ENDCHAR
STARTCHAR 4302
ENCODING 17154
SWIDTH 1000 0
DWIDTH 12 0
BBX 12 11 0 -2
BITMAP
2020
27E0
D420
67E0
3FF0
FD40
76A0
B7E0
B480
2FF0
2800
ENDCHAR
STARTCHAR 432B
ENCODING 17195
SWIDTH 1000 0
DWIDTH 12 0
BBX 11 11 0 -2
BITMAP
2280
2F80
DEE0
6F60
6F00
77C0
B7C0
77C0
B6E0
A4A0
28E0
ENDCHAR
STARTCHAR 4343
ENCODING 17219
SWIDTH 1000 0
DWIDTH 12 0
BBX 11 11 1 0
BITMAP
0600
0F80
3980
E600
1C00
6080
FF80
FFE0
4480
7F80
4080
ENDCHAR
STARTCHAR 43EE
ENCODING 17390
SWIDTH 1000 0
DWIDTH 12 0
BBX 11 11 0 -1
BITMAP
0900
7900
4FE0
7920
4AE0
4C20
7E40
4A80
4A80
8A60
BC20
ENDCHAR
STARTCHAR 43F0
ENCODING 17392
SWIDTH 1000 0
DWIDTH 12 0
BBX 12 11 0 -1
BITMAP
0840
7FE0
4D20
7AA0
4A20
4FC0
7980
4BC0
4E20
8E50
BBC0
ENDCHAR
STARTCHAR 4408
ENCODING 17416
SWIDTH 1000 0
DWIDTH 12 0
BBX 12 11 0 -1
BITMAP
0880
78A0
4FF0
7BE0
4A20
4FE0
7FE0
4FE0
4E20
CFF0
BC00
ENDCHAR
STARTCHAR 4417
ENCODING 17431
SWIDTH 1000 0
DWIDTH 12 0
BBX 11 11 0 -1
BITMAP
1100
7160
57C0
71A0
5FE0
5180
77C0
5BC0
5240
D3C0
B240
ENDCHAR
STARTCHAR 441C
ENCODING 17436
SWIDTH 1000 0
DWIDTH 12 0
BBX 11 11 0 -1
BITMAP
1480
7340
53E0
7640
57C0
57C0
77C0
57E0
5400
92C0
BC20
ENDCHAR
STARTCHAR 4422
ENCODING 17442
SWIDTH 1000 0
DWIDTH 12 0
BBX 11 11 0 -1
BITMAP
1200
77E0
5DA0
77A0
5340
5EC0
77E0
5DA0
57A0
9140
B6C0
ENDCHAR
STARTCHAR 4453
ENCODING 17491
SWIDTH 1000 0
DWIDTH 12 0
BBX 12 10 0 1
BITMAP
18A0
7FE0
1080
1F80
1F80
7FF0
BFE0
3FE0
7FE0
FFF0
ENDCHAR
STARTCHAR 445B
ENCODING 17499
SWIDTH 1000 0
DWIDTH 12 0
BBX 11 11 0 -1
BITMAP
0840
32A0
D380
1A80
FFE0
1280
1A80
7A40
4B60
7FE0
4820
ENDCHAR
STARTCHAR 4476
ENCODING 17526
SWIDTH 1000 0
DWIDTH 12 0
BBX 11 10 0 0
BITMAP
1940
7FE0
6BE0
5FE0
EBC0
5B40
5BC0
5A40
8A40
BAC0
ENDCHAR
STARTCHAR 447A
ENCODING 17530
SWIDTH 1000 0
DWIDTH 12 0
BBX 13 11 -1 -1
BITMAP
0810
09F0
3D10
35D0
2DF0
77D0
2DD0
2D98
2DD8
46B8
9F08
ENDCHAR
STARTCHAR 4491
ENCODING 17553
SWIDTH 1000 0
DWIDTH 12 0
BBX 10 4 1 4
BITMAP
2100
1200
1280
FFC0
ENDCHAR
STARTCHAR 44B3
ENCODING 17587
SWIDTH 1000 0
DWIDTH 12 0
BBX 11 11 1 0
BITMAP
1A40
FFC0
1000
7F00
13C0
2080
C700
FFC0
0E00
3580
C460
ENDCHAR
STARTCHAR 44BE
ENCODING 17598
SWIDTH 1000 0
DWIDTH 12 0
BBX 11 10 0 0
BITMAP
0920
7FE0
0220
7FE0
0640
0A60
1980
E880
0A40
3420
ENDCHAR
STARTCHAR 44D4
ENCODING 17620
SWIDTH 1000 0
DWIDTH 12 0
BBX 12 11 0 0
BITMAP
0920
7FE0
0900
3FC0
0520
7FF0
0F80
FFE0
0200
0200
0E00
ENDCHAR
STARTCHAR 4508
ENCODING 17672
SWIDTH 1000 0
DWIDTH 12 0
BBX 10 11 1 0
BITMAP
1A80
FFC0
0100
7F80
FFC0
3F00
3F00
3F00
3F00
1180
E040
ENDCHAR
STARTCHAR 450D
ENCODING 17677
SWIDTH 1000 0
DWIDTH 12 0
BBX 11 11 0 0
BITMAP
0920
FFE0
0900
3FE0
3FC0
2280
3FC0
3FE0
54A0
4A20
89C0
ENDCHAR
STARTCHAR 4525
ENCODING 17701
SWIDTH 1000 0
DWIDTH 12 0
BBX 10 11 1 -1
BITMAP
1A40
FFC0
0500
7F00
FFC0
7F00
5680
7F80
4C80
5680
E480
ENDCHAR
STARTCHAR 4543
ENCODING 17731
SWIDTH 1000 0
DWIDTH 12 0
BBX 12 11 0 0
BITMAP
0D20
FFE0
9100
7B00
56C0
6FF0
5BC0
4FE0
7280
4240
45A0
ENDCHAR
STARTCHAR 459D
ENCODING 17821
SWIDTH 1000 0
DWIDTH 12 0
BBX 10 10 1 0
BITMAP
0780
FC00
0480
7F80
4480
4480
7F80
0500
0480
FB40
ENDCHAR
STARTCHAR 45B8
ENCODING 17848
SWIDTH 1000 0
DWIDTH 12 0
BBX 11 11 1 -1
BITMAP
0F00
F2C0
FFE0
16C0
F9C0
6620
7F80
7F80
4480
0580
FB40
ENDCHAR
STARTCHAR 45E5
ENCODING 17893
SWIDTH 1000 0
DWIDTH 12 0
BBX 11 10 0 -1
BITMAP
2740
3540
7AA0
76A0
7480
7D80
36E0
2680
3780
D660
ENDCHAR
STARTCHAR 45EA
ENCODING 17898
SWIDTH 1000 0
DWIDTH 12 0
BBX 11 10 0 0
BITMAP
0220
3FE0
3FE0
2700
35E0
2200
3FC0
3FC0
4240
9DA0
ENDCHAR
STARTCHAR 460F
ENCODING 17935
SWIDTH 1000 0
DWIDTH 12 0
BBX 11 11 0 -1
BITMAP
0840
11E0
7D40
5D80
5D80
5D40
5D20
5D20
5FE0
7100
8100
ENDCHAR
STARTCHAR 4641
ENCODING 17985
SWIDTH 1000 0
DWIDTH 12 0
BBX 11 12 0 -1
BITMAP
22C0
3260
FDC0
1140
11A0
2E60
73E0
ABC0
2560
20A0
2760
0800
ENDCHAR
STARTCHAR 4665
ENCODING 18021
SWIDTH 1000 0
DWIDTH 12 0
BBX 11 11 0 -1
BITMAP
2040
27C0
77E0
1FC0
2FE0
3300
74C0
AFA0
2140
2140
2180
ENDCHAR
STARTCHAR 46A1
ENCODING 18081
SWIDTH 1000 0
DWIDTH 12 0
BBX 12 11 0 0
BITMAP
3020
33E0
52A0
7BE0
DAA0
7BE0
7BC0
4BA0
4B50
8F50
99C0
ENDCHAR
STARTCHAR 46AF
ENCODING 18095
SWIDTH 1000 0
DWIDTH 12 0
BBX 9 11 1 -1
BITMAP
0900
7880
0A80
FE80
7A80
0A80
7A80
4A80
4880
7A80
4980
ENDCHAR
STARTCHAR 470C
ENCODING 18188
SWIDTH 1000 0
DWIDTH 12 0
BBX 12 11 0 -1
BITMAP
3240
4680
DFA0
64C0
56A0
EFE0
2040
7EE0
AF50
A740
2640
ENDCHAR
STARTCHAR 4764
ENCODING 18276
SWIDTH 1000 0
DWIDTH 12 0
BBX 12 11 0 -1
BITMAP
1100
2220
57E0
4EA0
33E0
67F0
3A40
5380
3340
D520
3B00
ENDCHAR
STARTCHAR 47FD
ENCODING 18429
SWIDTH 1000 0
DWIDTH 12 0
BBX 12 11 0 -1
BITMAP
0900
7900
4FF0
4980
7A60
1DC0
5B40
5340
5360
6D60
8810
ENDCHAR
STARTCHAR 4816
ENCODING 18454
SWIDTH 1000 0
DWIDTH 12 0
BBX 11 11 0 -1
BITMAP
0900
7D00
4FE0
4AC0
7B80
1D60
7A20
57C0
5440
EFC0
8440
ENDCHAR
STARTCHAR 4844
ENCODING 18500
SWIDTH 1000 0
DWIDTH 12 0
BBX 11 11 0 0
BITMAP
1080
1B80
FE80
7A80
5A80
7A80
5A80
3AA0
FCA0
14A0
18E0
ENDCHAR
STARTCHAR 484E
ENCODING 18510
SWIDTH 1000 0
DWIDTH 12 0
BBX 12 11 0 0
BITMAP
1020
1FF0
FC00
7BE0
5A20
7A20
5BE0
3A00
FE00
1400
1400
ENDCHAR
STARTCHAR 48B5
ENCODING 18613
SWIDTH 1000 0
DWIDTH 12 0
BBX 10 11 1 -1
BITMAP
0040
0BC0
FA40
0280
0A80
FA80
2240
6240
5240
EB80
0200
ENDCHAR
STARTCHAR 49B0
ENCODING 18864
SWIDTH 1000 0
DWIDTH 12 0
BBX 10 11 1 -1
BITMAP
0080
FFC0
FFC0
FBC0
9C40
BF40
9E40
BF40
BF40
A540
87C0
ENDCHAR
STARTCHAR 49E7
ENCODING 18919
SWIDTH 1000 0
DWIDTH 12 0
BBX 11 11 1 -2
BITMAP
2880
F500
AFC0
CFC0
BFE0
A500
BFC0
9FE0
E540
9EC0
8F60
ENDCHAR
STARTCHAR 49FA
ENCODING 18938
SWIDTH 1000 0
DWIDTH 12 0
BBX 12 11 0 0
BITMAP
3140
2A80
7EA0
23E0
2680
3BE0
2A80
EBE0
AA80
3BF0
2200
ENDCHAR
STARTCHAR 4A04
ENCODING 18948
SWIDTH 1000 0
DWIDTH 12 0
BBX 11 11 0 -1
BITMAP
1000
1940
2680
DDE0
7E80
7FE0
7E80
5FE0
7EA0
7FE0
4600
ENDCHAR
STARTCHAR 4A29
ENCODING 18985
SWIDTH 1000 0
DWIDTH 12 0
BBX 11 11 1 -1
BITMAP
0100
7F80
7FE0
F780
7380
F100
FFC0
7FC0
B7C0
B100
2100
ENDCHAR
STARTCHAR 4ABC
ENCODING 19132
SWIDTH 1000 0
DWIDTH 12 0
BBX 11 11 1 -1
BITMAP
2040
27E0
B900
B7C0
F7C0
2440
AFC0
AFC0
AC40
FAE0
0400
ENDCHAR
STARTCHAR 4B3B
ENCODING 19259
SWIDTH 1000 0
DWIDTH 12 0
BBX 11 11 0 -1
BITMAP
1100
29C0
3520
53C0
B960
3FA0
2FC0
3960
28A0
3D60
4620
ENDCHAR
STARTCHAR 4BC2
ENCODING 19394
SWIDTH 1000 0
DWIDTH 12 0
BBX 11 11 0 0
BITMAP
1FC0
1F80
1FC0
2F80
7FE0
7FC0
7FE0
FFE0
0600
1BC0
E220
ENDCHAR
STARTCHAR 4BCA
ENCODING 19402
SWIDTH 1000 0
DWIDTH 12 0
BBX 11 11 0 -1
BITMAP
0800
3FE0
3840
BFC0
7EC0
7AC0
2AC0
3BC0
2840
2840
38C0
ENDCHAR
STARTCHAR 4BD2
ENCODING 19410
SWIDTH 1000 0
DWIDTH 12 0
BBX 11 11 0 -1
BITMAP
0A00
7BE0
5A00
5D00
FAE0
FA40
4A40
7E40
4A40
4A40
5AC0
ENDCHAR
STARTCHAR 4BE8
ENCODING 19432
SWIDTH 1000 0
DWIDTH 12 0
BBX 11 12 1 -2
BITMAP
0440
FFE0
3F00
5E00
7FC0
5E40
4DC0
FFE0
0400
0B00
30E0
C000
ENDCHAR
STARTCHAR 4C17
ENCODING 19479
SWIDTH 1000 0
DWIDTH 12 0
BBX 10 11 1 -1
BITMAP
0900
FBC0
BBC0
FBC0
8C40
9F40
BE40
BF40
BF40
A540
87C0
ENDCHAR
STARTCHAR 4C20
ENCODING 19488
SWIDTH 1000 0
DWIDTH 12 0
BBX 12 11 0 -1
BITMAP
1080
2880
7BE0
5AA0
7BE0
7AA0
33E0
3880
3490
5FF0
8000
ENDCHAR
STARTCHAR 4CC4
ENCODING 19652
SWIDTH 1000 0
DWIDTH 12 0
BBX 11 11 0 0
BITMAP
29C0
2BC0
2A40
6FC0
7BC0
6BE0
6A40
6DE0
7FA0
CF20
02C0
ENDCHAR
STARTCHAR 4CD1
ENCODING 19665
SWIDTH 1000 0
DWIDTH 12 0
BBX 11 11 0 0
BITMAP
31C0
2BC0
7E40
23C0
3BC0
2BE0
FA00
39E0
2DA0
2D20
3CC0
ENDCHAR
STARTCHAR 4D07
ENCODING 19719
SWIDTH 1000 0
DWIDTH 12 0
BBX 10 11 1 -1
BITMAP
0900
FF00
FC80
FF80
DF80
27C0
5480
FBC0
2F40
3E40
2980
ENDCHAR
STARTCHAR 4D77
ENCODING 19831
SWIDTH 1000 0
DWIDTH 12 0
BBX 12 10 0 0
BITMAP
4000
23E0
FBA0
23E0
FFE0
25A0
37E0
FFE0
25A0
D9F0
ENDCHAR
STARTCHAR 4E00
ENCODING 19968
SWIDTH 1000 0
DWIDTH 12 0
BBX 10 2 1 4
BITMAP
0080
FFC0
ENDCHAR
STARTCHAR 4E01
ENCODING 19969
SWIDTH 1000 0
DWIDTH 12 0
BBX 11 11 1 -2
BITMAP
0040
FFE0
0400
0400
0400
0400
0400
0400
0400
0400
1C00
ENDCHAR
STARTCHAR 4E02
ENCODING 19970
SWIDTH 1000 0
DWIDTH 12 0
BBX 10 12 1 -2
BITMAP
0040
FFC0
1000
1000
1100
1F80
2100
2100
0100
0100
1100
0E00
ENDCHAR
STARTCHAR 4E03
ENCODING 19971
SWIDTH 1000 0
DWIDTH 12 0
BBX 11 9 1 1
BITMAP
1800
1000
1040
3FA0
D000
1000
10C0
1080
1FC0
ENDCHAR
STARTCHAR 4E07
ENCODING 19975
SWIDTH 1000 0
DWIDTH 12 0
BBX 11 11 0 -1
BITMAP
0040
FFE0
0800
0800
0FC0
0880
0880
1080
1080
2080
C700
ENDCHAR
STARTCHAR 4E08
ENCODING 19976
SWIDTH 1000 0
DWIDTH 12 0
BBX 10 12 1 -2
BITMAP
0600
0400
0440
FFC0
0400
2400
1400
0C00
0C00
1300
60C0
8000
ENDCHAR
STARTCHAR 4E09
ENCODING 19977
SWIDTH 1000 0
DWIDTH 12 0
BBX 10 9 1 0
BITMAP
0080
7F80
0000
0100
7F80
0000
0000
0080
FFC0
ENDCHAR
STARTCHAR 4E0A
ENCODING 19978
SWIDTH 1000 0
DWIDTH 12 0
BBX 11 9 0 0
BITMAP
0600
0400
0400
0440
07C0
0400
0400
0440
FFE0
ENDCHAR
STARTCHAR 4E0B
ENCODING 19979
SWIDTH 1000 0
DWIDTH 12 0
BBX 11 10 0 -1
BITMAP
0020
FFE0
0400
0400
0700
0480
0440
0400
0400
0400
ENDCHAR
STARTCHAR 4E0D
ENCODING 19981
SWIDTH 1000 0
DWIDTH 12 0
BBX 11 11 1 -1
BITMAP
0040
FFE0
0400
0400
0E00
1580
2440
4420
8400
0400
0400
ENDCHAR
STARTCHAR 4E0E
ENCODING 19982
SWIDTH 1000 0
DWIDTH 12 0
BBX 11 12 1 -1
BITMAP
1000
2100
3F80
2000
2200
3F00
0200
FFE0
0200
0200
1200
0C00
ENDCHAR
STARTCHAR 4E0F
ENCODING 19983
SWIDTH 1000 0
DWIDTH 12 0
BBX 11 11 1 -1
BITMAP
0040
FFE0
0400
2440
47C0
4440
3FC0
4040
0040
0040
0780
ENDCHAR
STARTCHAR 4E10
ENCODING 19984
SWIDTH 1000 0
DWIDTH 12 0
BBX 11 11 1 -1
BITMAP
0040
FFE0
0400
27C0
2400
4440
7FE0
4040
0040
0040
0380
ENDCHAR
STARTCHAR 4E11
ENCODING 19985
SWIDTH 1000 0
DWIDTH 12 0
BBX 10 10 1 0
BITMAP
0200
7F00
1100
1100
1140
FFC0
1100
1200
2280
FFC0
ENDCHAR
STARTCHAR 4E12
ENCODING 19986
SWIDTH 1000 0
DWIDTH 12 0
BBX 10 10 1 0
BITMAP
0080
FFC0
0480
8680
7880
1480
2280
C080
0780
FFC0
ENDCHAR
STARTCHAR 4E14
ENCODING 19988
SWIDTH 1000 0
DWIDTH 12 0
BBX 11 10 1 0
BITMAP
0100
3F00
2100
2100
3F00
2100
2100
3F00
2100
FFE0
ENDCHAR
STARTCHAR 4E15
ENCODING 19989
SWIDTH 1000 0
DWIDTH 12 0
BBX 11 10 1 0
BITMAP
0040
7FE0
0400
0600
0D00
14C0
6420
8400
0400
FFE0
ENDCHAR
STARTCHAR 4E16
ENCODING 19990
SWIDTH 1000 0
DWIDTH 12 0
BBX 12 10 0 0
BITMAP
26C0
2480
24A0
FFF0
2480
2480
2780
2020
3FE0
2000
ENDCHAR
STARTCHAR 4E17
ENCODING 19991
SWIDTH 1000 0
DWIDTH 12 0
BBX 11 11 0 -1
BITMAP
0400
24C0
2480
24A0
FFE0
2480
2480
2480
2480
3F80
2080
ENDCHAR
STARTCHAR 4E18
ENCODING 19992
SWIDTH 1000 0
DWIDTH 12 0
BBX 10 9 1 1
BITMAP
0380
3C00
2000
2080
3FC0
2200
2200
2240
FFC0
ENDCHAR
STARTCHAR 4E19
ENCODING 19993
SWIDTH 1000 0
DWIDTH 12 0
BBX 10 11 1 -1
BITMAP
0040
FFC0
0400
0480
7F80
4480
4A80
4980
5080
6080
4180
ENDCHAR
STARTCHAR 4E1E
ENCODING 19998
SWIDTH 1000 0
DWIDTH 12 0
BBX 11 10 1 0
BITMAP
0100
3F80
0100
0640
FE80
1700
2480
C460
1840
FFE0
ENDCHAR
STARTCHAR 4E21
ENCODING 20001
SWIDTH 1000 0
DWIDTH 12 0
BBX 10 11 1 -1
BITMAP
0080
FFC0
0400
7F80
4480
5680
5680
5E80
5280
4080
4380
ENDCHAR
STARTCHAR 4E26
ENCODING 20006
SWIDTH 1000 0
DWIDTH 12 0
BBX 11 10 0 0
BITMAP
2180
1900
0A40
FFE0
0A00
4A40
2A80
2B00
0A40
FFE0
ENDCHAR
STARTCHAR 4E28
ENCODING 20008
SWIDTH 1000 0
DWIDTH 12 0
BBX 2 10 6 -1
BITMAP
C0
80
80
80
80
80
80
80
80
80
ENDCHAR
STARTCHAR 4E29
ENCODING 20009
SWIDTH 1000 0
DWIDTH 12 0
BBX 7 11 2 -1
BITMAP
04
46
44
44
44
44
44
5C
A4
04
04
ENDCHAR
STARTCHAR 4E2A
ENCODING 20010
SWIDTH 1000 0
DWIDTH 12 0
BBX 10 11 1 -1
BITMAP
1000
0800
1400
1200
2D00
C8C0
0800
0800
0800
0800
0800
ENDCHAR
STARTCHAR 4E2B
ENCODING 20011
SWIDTH 1000 0
DWIDTH 12 0
BBX 7 11 3 -1
BITMAP
84
46
28
10
18
10
10
10
10
10
10
ENDCHAR
STARTCHAR 4E2C
ENCODING 20012
SWIDTH 1000 0
DWIDTH 12 0
BBX 6 10 2 0
BITMAP
0C
88
48
28
08
18
E8
88
08
08
ENDCHAR
STARTCHAR 4E2D
ENCODING 20013
SWIDTH 1000 0
DWIDTH 12 0
BBX 8 11 2 -1
BITMAP
08
08
09
FF
89
89
89
FF
08
08
08
ENDCHAR
STARTCHAR 4E2E
ENCODING 20014
SWIDTH 1000 0
DWIDTH 12 0
BBX 11 11 1 -1
BITMAP
0080
7FC0
0C80
0A80
7F80
0880
0980
FFA0
0860
0860
0820
ENDCHAR
STARTCHAR 4E2F
ENCODING 20015
SWIDTH 1000 0
DWIDTH 12 0
BBX 11 11 1 -1
BITMAP
0400
0400
0580
1E00
65C0
0E00
7460
0780
FC00
0400
0400
ENDCHAR
STARTCHAR 4E30
ENCODING 20016
SWIDTH 1000 0
DWIDTH 12 0
BBX 11 11 1 0
BITMAP
0600
0440
7FC0
0400
0480
7FC0
0400
FFE0
0400
0400
0400
ENDCHAR
STARTCHAR 4E31
ENCODING 20017
SWIDTH 1000 0
DWIDTH 12 0
BBX 8 11 2 -2
BITMAP
24
34
A5
A5
A5
A5
E7
A5
24
44
84
ENDCHAR
STARTCHAR 4E32
ENCODING 20018
SWIDTH 1000 0
DWIDTH 12 0
BBX 10 11 1 -1
BITMAP
0400
0480
7FC0
4480
7F80
0440
FFC0
FFC0
8440
0400
0400
ENDCHAR
STARTCHAR 4E36
ENCODING 20022
SWIDTH 1000 0
DWIDTH 12 0
BBX 4 4 4 3
BITMAP
80
40
20
10
ENDCHAR
STARTCHAR 4E38
ENCODING 20024
SWIDTH 1000 0
DWIDTH 12 0
BBX 11 12 1 -2
BITMAP
0800
0800
0900
7F00
0900
0900
6900
1900
1540
2140
41E0
8000
ENDCHAR
STARTCHAR 4E39
ENCODING 20025
SWIDTH 1000 0
DWIDTH 12 0
BBX 10 11 1 -1
BITMAP
0100
3F00
2100
2900
2900
2180
FFC0
2100
2100
4100
8700
ENDCHAR
STARTCHAR 4E3B
ENCODING 20027
SWIDTH 1000 0
DWIDTH 12 0
BBX 11 10 1 0
BITMAP
1000
0C00
0440
7FC0
0400
0480
3FC0
0400
0440
FFE0
ENDCHAR
STARTCHAR 4E3C
ENCODING 20028
SWIDTH 1000 0
DWIDTH 12 0
BBX 10 11 1 -1
BITMAP
1300
1280
7F80
1200
1A00
1280
FFC0
1200
2200
4200
8000
ENDCHAR
STARTCHAR 4E3F
ENCODING 20031
SWIDTH 1000 0
DWIDTH 12 0
BBX 5 10 3 0
BITMAP
18
10
10
10
10
10
10
20
40
80
ENDCHAR
STARTCHAR 4E40
ENCODING 20032
SWIDTH 1000 0
DWIDTH 12 0
BBX 9 8 2 0
BITMAP
8000
8000
4000
2000
1000
0800
0600
0180
ENDCHAR
STARTCHAR 4E42
ENCODING 20034
SWIDTH 1000 0
DWIDTH 12 0
BBX 11 10 0 0
BITMAP
20C0
1080
1100
0900
0A00
0600
0600
0980
3060
C000
ENDCHAR
STARTCHAR 4E43
ENCODING 20035
SWIDTH 1000 0
DWIDTH 12 0
BBX 10 12 1 -2
BITMAP
0100
7F00
0900
0900
0A80
0BC0
0A40
1040
1040
2080
4780
8200
ENDCHAR
STARTCHAR 4E45
ENCODING 20037
SWIDTH 1000 0
DWIDTH 12 0
BBX 10 12 1 -1
BITMAP
1800
1200
1E00
2200
2400
4400
4400
8A00
1100
2080
4040
8000
ENDCHAR
STARTCHAR 4E47
ENCODING 20039
SWIDTH 1000 0
DWIDTH 12 0
BBX 11 9 1 1
BITMAP
0380
0C00
F800
0840
0BA0
FC00
0800
0840
0FC0
ENDCHAR
STARTCHAR 4E48
ENCODING 20040
SWIDTH 1000 0
DWIDTH 12 0
BBX 9 9 1 1
BITMAP
1800
1000
2000
4400
8800
0A00
1100
1080
7F80
ENDCHAR
STARTCHAR 4E4B
ENCODING 20043
SWIDTH 1000 0
DWIDTH 12 0
BBX 11 10 0 0
BITMAP
0400
0600
0480
7FC0
0080
0100
2200
6C00
5000
8FE0
ENDCHAR
STARTCHAR 4E4D
ENCODING 20045
SWIDTH 1000 0
DWIDTH 12 0
BBX 10 10 1 0
BITMAP
3000
2040
3FC0
4800
8F80
0800
0FC0
0800
0800
0800
ENDCHAR
STARTCHAR 4E4E
ENCODING 20046
SWIDTH 1000 0
DWIDTH 12 0
BBX 11 11 1 -1
BITMAP
0080
1F40
E480
44C0
2500
0640
FFE0
0400
0400
0400
3C00
ENDCHAR
STARTCHAR 4E4F
ENCODING 20047
SWIDTH 1000 0
DWIDTH 12 0
BBX 11 10 1 0
BITMAP
0080
1F40
6600
0500
7F80
0100
0200
2400
5800
8FE0
ENDCHAR
STARTCHAR 4E51
ENCODING 20049
SWIDTH 1000 0
DWIDTH 12 0
BBX 11 10 1 0
BITMAP
0380
7C00
1440
2680
4500
9500
1480
2440
C420
0400
ENDCHAR
STARTCHAR 4E55
ENCODING 20053
SWIDTH 1000 0
DWIDTH 12 0
BBX 11 11 0 -1
BITMAP
0080
3F40
2240
3FE0
2220
3FE0
3FC0
3240
3240
52C0
8200
ENDCHAR
STARTCHAR 4E56
ENCODING 20054
SWIDTH 1000 0
DWIDTH 12 0
BBX 11 11 0 -1
BITMAP
0080
7F00
0240
FFE0
1B80
F360
1380
3320
D3E0
0200
0200
ENDCHAR
STARTCHAR 4E57
ENCODING 20055
SWIDTH 1000 0
DWIDTH 12 0
BBX 11 11 1 -1
BITMAP
0100
7E80
0480
FFC0
2500
FFC0
2500
FFC0
0E00
3580
C460
ENDCHAR
STARTCHAR 4E58
ENCODING 20056
SWIDTH 1000 0
DWIDTH 12 0
BBX 10 11 1 -1
BITMAP
0100
7E00
0480
FFC0
1600
F680
37C0
DE00
1500
64C0
8400
ENDCHAR
STARTCHAR 4E59
ENCODING 20057
SWIDTH 1000 0
DWIDTH 12 0
BBX 9 9 2 0
BITMAP
0400
FE00
0400
0800
3000
4000
8100
8100
FF80
ENDCHAR
STARTCHAR 4E5A
ENCODING 20058
SWIDTH 1000 0
DWIDTH 12 0
BBX 8 9 3 1
BITMAP
C0
80
80
80
80
80
81
81
FF
ENDCHAR
STARTCHAR 4E5D
ENCODING 20061
SWIDTH 1000 0
DWIDTH 12 0
BBX 10 12 1 -1
BITMAP
0800
0800
0A00
7E00
0A00
0A00
0A00
1280
1280
2240
43C0
8000
ENDCHAR
STARTCHAR 4E5E
ENCODING 20062
SWIDTH 1000 0
DWIDTH 12 0
BBX 10 12 1 -1
BITMAP
1000
2080
3FC0
4000
4200
BF00
0600
0800
3080
4080
4080
7FC0
ENDCHAR
STARTCHAR 4E5F
ENCODING 20063
SWIDTH 1000 0
DWIDTH 12 0
BBX 10 10 1 0
BITMAP
0400
2480
2580
3E80
E480
2480
2480
2740
2040
3FC0
ENDCHAR
STARTCHAR 4E62
ENCODING 20066
SWIDTH 1000 0
DWIDTH 12 0
BBX 10 12 1 -1
BITMAP
2600
2400
AC00
AC00
AC00
AC00
AC00
AC80
FC80
8C80
8440
0780
ENDCHAR
STARTCHAR 4E69
ENCODING 20073
SWIDTH 1000 0
DWIDTH 12 0
BBX 10 11 1 -1
BITMAP
2000
2600
2400
3C00
2400
2400
FC00
8C00
8C80
FC80
8FC0
ENDCHAR
STARTCHAR 4E71
ENCODING 20081
SWIDTH 1000 0
DWIDTH 12 0
BBX 12 10 0 0
BITMAP
1D80
F100
1500
FF00
1100
1100
7D00
4520
7D10
45F0
ENDCHAR
STARTCHAR 4E73
ENCODING 20083
SWIDTH 1000 0
DWIDTH 12 0
BBX 11 11 0 0
BITMAP
1D80
E500
5500
4D00
FD00
0900
1500
7920
9120
1120
71E0
ENDCHAR
STARTCHAR 4E7E
ENCODING 20094
SWIDTH 1000 0
DWIDTH 12 0
BBX 11 11 0 -1
BITMAP
1200
1900
FDE0
7A00
4C00
7FC0
4880
3920
FD20
1220
13E0
ENDCHAR
STARTCHAR 4E80
ENCODING 20096
SWIDTH 1000 0
DWIDTH 12 0
BBX 11 10 1 1
BITMAP
2800
3C00
7F80
FF00
4900
BE80
7F80
4880
7FC0
0FE0
ENDCHAR
STARTCHAR 4E82
ENCODING 20098
SWIDTH 1000 0
DWIDTH 12 0
BBX 12 11 0 -1
BITMAP
0400
3EC0
5280
BE80
1880
7E80
6E80
7AA0
5AA0
5A90
66F0
ENDCHAR
STARTCHAR 4E85
ENCODING 20101
SWIDTH 1000 0
DWIDTH 12 0
BBX 3 10 4 0
BITMAP
60
40
40
40
40
40
40
40
40
80
ENDCHAR
STARTCHAR 4E86
ENCODING 20102
SWIDTH 1000 0
DWIDTH 12 0
BBX 9 11 2 -1
BITMAP
0100
FF80
0100
0600
0C00
0800
0800
0800
0800
0800
7800
ENDCHAR
STARTCHAR 4E88
ENCODING 20104
SWIDTH 1000 0
DWIDTH 12 0
BBX 11 12 1 -2
BITMAP
0080
7F80
0100
3E00
0240
FFE0
0440
0480
0500
0400
4400
3C00
ENDCHAR
STARTCHAR 4E89
ENCODING 20105
SWIDTH 1000 0
DWIDTH 12 0
BBX 12 11 0 0
BITMAP
0D00
1F80
1100
3FC0
C260
7FF0
0240
3FC0
0200
0200
1E00
ENDCHAR
STARTCHAR 4E8A
ENCODING 20106
SWIDTH 1000 0
DWIDTH 12 0
BBX 12 11 0 0
BITMAP
0220
FFF0
2240
1280
7FC0
0260
FFF0
7FC0
0240
0200
1E00
ENDCHAR
STARTCHAR 4E8B
ENCODING 20107
SWIDTH 1000 0
DWIDTH 12 0
BBX 12 11 0 0
BITMAP
0220
7FE0
0280
3FC0
3FC0
7FC0
0260
FFF0
7FC0
0200
0E00
ENDCHAR
STARTCHAR 4E8C
ENCODING 20108
SWIDTH 1000 0
DWIDTH 12 0
BBX 10 8 1 1
BITMAP
0100
7F80
0000
0000
0000
0000
0080
FFC0
ENDCHAR
STARTCHAR 4E8D
ENCODING 20109
SWIDTH 1000 0
DWIDTH 12 0
BBX 11 11 1 -2
BITMAP
0080
7FC0
0000
0040
FFE0
0400
0400
0400
0400
0400
1C00
ENDCHAR
STARTCHAR 4E8E
ENCODING 20110
SWIDTH 1000 0
DWIDTH 12 0
BBX 11 11 1 -2
BITMAP
0080
7FC0
0400
0400
0440
FFE0
0400
0400
0400
0400
3C00
ENDCHAR
STARTCHAR 4E91
ENCODING 20113
SWIDTH 1000 0
DWIDTH 12 0
BBX 10 11 1 -2
BITMAP
0100
7F80
0000
0080
FFC0
0800
1200
1100
2080
FF40
0040
ENDCHAR
STARTCHAR 4E92
ENCODING 20114
SWIDTH 1000 0
DWIDTH 12 0
BBX 10 10 1 0
BITMAP
0080
FFC0
1000
2200
1F00
2100
2100
3E00
0200
FFC0
ENDCHAR
STARTCHAR 4E94
ENCODING 20116
SWIDTH 1000 0
DWIDTH 12 0
BBX 11 10 1 0
BITMAP
0080
FFC0
0800
1000
1100
7F00
1100
1100
2140
FFE0
ENDCHAR
STARTCHAR 4E95
ENCODING 20117
SWIDTH 1000 0
DWIDTH 12 0
BBX 10 12 1 -2
BITMAP
1300
1200
1280
FFC0
1200
1200
1280
FFC0
1200
2200
4200
8000
ENDCHAR
STARTCHAR 4E98
ENCODING 20120
SWIDTH 1000 0
DWIDTH 12 0
BBX 10 10 1 0
BITMAP
0080
7FC0
0000
3F00
2100
3F00
2100
3F00
2100
FFC0
ENDCHAR
STARTCHAR 4E99
ENCODING 20121
SWIDTH 1000 0
DWIDTH 12 0
BBX 10 10 1 0
BITMAP
0040
FFC0
1000
2200
1F00
2100
2D00
3E00
0240
FFC0
ENDCHAR
STARTCHAR 4E9B
ENCODING 20123
SWIDTH 1000 0
DWIDTH 12 0
BBX 11 10 1 0
BITMAP
1400
1200
5A40
5E80
5300
5FC0
A020
3F80
0000
FFE0
ENDCHAR
STARTCHAR 4E9C
ENCODING 20124
SWIDTH 1000 0
DWIDTH 12 0
BBX 10 10 1 0
BITMAP
0080
FFC0
1200
1280
7F80
5280
5280
7F80
1200
FFC0
ENDCHAR
STARTCHAR 4E9D
ENCODING 20125
SWIDTH 1000 0
DWIDTH 12 0
BBX 10 10 1 1
BITMAP
0800
1300
7E80
2300
5280
F740
0100
7F80
0000
FFC0
ENDCHAR
STARTCHAR 4E9E
ENCODING 20126
SWIDTH 1000 0
DWIDTH 12 0
BBX 10 10 1 0
BITMAP
0080
FFC0
1200
1280
7380
4080
6080
7380
1200
FFC0
ENDCHAR
STARTCHAR 4E9F
ENCODING 20127
SWIDTH 1000 0
DWIDTH 12 0
BBX 11 10 1 0
BITMAP
0040
7FE0
0800
1FC0
7540
5540
5480
74C0
0B60
FFE0
ENDCHAR
STARTCHAR 4EA0
ENCODING 20128
SWIDTH 1000 0
DWIDTH 12 0
BBX 10 4 2 4
BITMAP
0C00
0800
0880
FFC0
ENDCHAR
STARTCHAR 4EA1
ENCODING 20129
SWIDTH 1000 0
DWIDTH 12 0
BBX 11 10 1 -1
BITMAP
0600
0400
0440
FFE0
2000
2000
2000
2000
2000
3FC0
ENDCHAR
STARTCHAR 4EA2
ENCODING 20130
SWIDTH 1000 0
DWIDTH 12 0
BBX 10 12 1 -1
BITMAP
0400
0480
FFC0
0000
1E00
1200
1200
1200
1240
2240
43C0
8000
ENDCHAR
STARTCHAR 4EA4
ENCODING 20132
SWIDTH 1000 0
DWIDTH 12 0
BBX 11 12 1 -2
BITMAP
0600
0440
FFE0
0000
1100
20C0
5140
0A00
0400
0B00
30E0
C000
ENDCHAR
STARTCHAR 4EA5
ENCODING 20133
SWIDTH 1000 0
DWIDTH 12 0
BBX 11 12 1 -1
BITMAP
0600
0440
FFE0
0400
4980
3200
14C0
0900
3200
4D80
3040
4000
ENDCHAR
STARTCHAR 4EA6
ENCODING 20134
SWIDTH 1000 0
DWIDTH 12 0
BBX 11 11 1 -1
BITMAP
0400
0440
FFE0
0A00
2B00
4A80
4A40
9240
1200
2200
4E00
ENDCHAR
STARTCHAR 4EA8
ENCODING 20136
SWIDTH 1000 0
DWIDTH 12 0
BBX 10 11 1 -1
BITMAP
0800
0480
FFC0
3F00
2100
1F00
7F80
0200
0400
0400
3C00
ENDCHAR
STARTCHAR 4EAB
ENCODING 20139
SWIDTH 1000 0
DWIDTH 12 0
BBX 10 11 1 0
BITMAP
0480
FFC0
0200
3F00
3F00
0200
3F00
FFC0
0400
0400
1C00
ENDCHAR
STARTCHAR 4EAC
ENCODING 20140
SWIDTH 1000 0
DWIDTH 12 0
BBX 10 11 1 -1
BITMAP
0400
0480
FFC0
3F00
2100
2100
3F00
1600
2580
4480
9C00
ENDCHAR
STARTCHAR 4EAD
ENCODING 20141
SWIDTH 1000 0
DWIDTH 12 0
BBX 10 10 1 0
BITMAP
0480
FFC0
3F00
3F00
8040
FFC0
0400
0400
0400
1C00
ENDCHAR
STARTCHAR 4EAE
ENCODING 20142
SWIDTH 1000 0
DWIDTH 12 0
BBX 10 11 1 -1
BITMAP
0480
FFC0
3F00
3F00
8040
7FC0
8040
9E80
1440
1440
67C0
ENDCHAR
STARTCHAR 4EB0
ENCODING 20144
SWIDTH 1000 0
DWIDTH 12 0
BBX 10 11 1 -1
BITMAP
0400
0480
FFC0
3F00
2100
3F00
3F00
1600
2500
4480
9C00
ENDCHAR
STARTCHAR 4EB3
ENCODING 20147
SWIDTH 1000 0
DWIDTH 12 0
BBX 10 11 1 0
BITMAP
0480
FFC0
0100
3F00
3F00
7FC0
8240
FD80
0BC0
FC80
0FC0
ENDCHAR
STARTCHAR 4EB6
ENCODING 20150
SWIDTH 1000 0
DWIDTH 12 0
BBX 12 10 0 1
BITMAP
0220
7FE0
3FC0
2F40
2940
2640
1F80
1F80
1F80
FFF0
ENDCHAR
STARTCHAR 4EB9
ENCODING 20153
SWIDTH 1000 0
DWIDTH 12 0
BBX 11 11 1 0
BITMAP
0480
FFC0
7F80
5E80
7F80
FBC0
FFC0
3F80
3F00
2140
FFE0
ENDCHAR
STARTCHAR 4EBA
ENCODING 20154
SWIDTH 1000 0
DWIDTH 12 0
BBX 11 11 0 -1
BITMAP
0800
0600
0400
0400
0400
0A00
0A00
1100
1080
6060
8000
ENDCHAR
STARTCHAR 4EBB
ENCODING 20155
SWIDTH 1000 0
DWIDTH 12 0
BBX 7 11 1 -1
BITMAP
04
06
04
08
1C
28
48
88
08
08
08
ENDCHAR
STARTCHAR 4EBC
ENCODING 20156
SWIDTH 1000 0
DWIDTH 12 0
BBX 11 10 0 1
BITMAP
0600
0600
0900
1100
10C0
2020
C000
0000
0040
3FC0
ENDCHAR
STARTCHAR 4EC0
ENCODING 20160
SWIDTH 1000 0
DWIDTH 12 0
BBX 12 10 0 0
BITMAP
1180
1100
2100
2120
6FF0
A100
A100
2100
2100
2100
ENDCHAR
STARTCHAR 4EC1
ENCODING 20161
SWIDTH 1000 0
DWIDTH 12 0
BBX 11 11 0 0
BITMAP
1000
1040
2FE0
2000
7000
6000
A000
2000
2020
2FE0
2000
ENDCHAR
STARTCHAR 4EC2
ENCODING 20162
SWIDTH 1000 0
DWIDTH 12 0
BBX 11 11 0 0
BITMAP
1300
2200
2220
2FE0
2220
6220
A220
2420
2420
2820
31C0
ENDCHAR
STARTCHAR 4EC3
ENCODING 20163
SWIDTH 1000 0
DWIDTH 12 0
BBX 12 11 0 -1
BITMAP
1000
1820
17F0
2080
2080
6080
A080
2080
2080
2080
2380
ENDCHAR
STARTCHAR 4EC4
ENCODING 20164
SWIDTH 1000 0
DWIDTH 12 0
BBX 10 11 1 -2
BITMAP
0040
7FC0
4000
4600
4400
4400
4400
4600
8900
9080
A040
ENDCHAR
STARTCHAR 4EC6
ENCODING 20166
SWIDTH 1000 0
DWIDTH 12 0
BBX 11 11 1 -1
BITMAP
1000
1B00
2200
2200
6200
A3C0
A220
2200
2200
2200
2200
ENDCHAR
STARTCHAR 4EC7
ENCODING 20167
SWIDTH 1000 0
DWIDTH 12 0
BBX 11 10 0 -1
BITMAP
1A00
1200
2280
2F80
6280
A280
A280
24A0
24A0
38E0
ENDCHAR
STARTCHAR 4EC8
ENCODING 20168
SWIDTH 1000 0
DWIDTH 12 0
BBX 11 11 0 0
BITMAP
1080
1380
2080
2080
2680
6480
A480
2440
2840
2820
3020
ENDCHAR
STARTCHAR 4ECA
ENCODING 20170
SWIDTH 1000 0
DWIDTH 12 0
BBX 11 11 0 -1
BITMAP
0600
0A00
0900
11C0
2F20
C000
3F80
0080
0100
0100
0200
ENDCHAR
STARTCHAR 4ECB
ENCODING 20171
SWIDTH 1000 0
DWIDTH 12 0
BBX 10 11 1 -2
BITMAP
0800
0800
1400
2300
4080
93C0
1200
1200
1200
2200
4200
ENDCHAR
STARTCHAR 4ECD
ENCODING 20173
SWIDTH 1000 0
DWIDTH 12 0
BBX 12 11 0 0
BITMAP
1080
1FC0
2280
2280
22A0
62F0
A4A0
A420
2420
2820
31C0
ENDCHAR
STARTCHAR 4ECE
ENCODING 20174
SWIDTH 1000 0
DWIDTH 12 0
BBX 10 10 1 0
BITMAP
2300
2200
2200
2200
2200
3300
4D00
4C80
8840
1000
ENDCHAR
STARTCHAR 4ECF
ENCODING 20175
SWIDTH 1000 0
DWIDTH 12 0
BBX 11 11 1 -1
BITMAP
1000
1100
2200
2200
2200
E200
A480
2440
2440
3FA0
3020
ENDCHAR
STARTCHAR 4ED0
ENCODING 20176
SWIDTH 1000 0
DWIDTH 12 0
BBX 11 10 1 0
BITMAP
0400
0A00
1100
26C0
4460
8440
7FC0
0400
0400
0400
ENDCHAR
STARTCHAR 4ED4
ENCODING 20180
SWIDTH 1000 0
DWIDTH 12 0
BBX 12 11 0 0
BITMAP
1040
1FE0
2040
2080
2100
6120
AFF0
A100
2100
2100
2700
ENDCHAR
STARTCHAR 4ED5
ENCODING 20181
SWIDTH 1000 0
DWIDTH 12 0
BBX 12 11 0 0
BITMAP
1980
1100
2100
2120
2FF0
6100
A100
2100
2120
2FE0
2000
ENDCHAR
STARTCHAR 4ED6
ENCODING 20182
SWIDTH 1000 0
DWIDTH 12 0
BBX 11 11 0 0
BITMAP
1100
2500
25C0
3740
6D40
A540
25C0
2520
2420
27E0
2000
ENDCHAR
STARTCHAR 4ED7
ENCODING 20183
SWIDTH 1000 0
DWIDTH 12 0
BBX 11 11 0 0
BITMAP
1180
1100
2120
2FE0
2100
6500
A500
2300
2300
24C0
2820
ENDCHAR
STARTCHAR 4ED8
ENCODING 20184
SWIDTH 1000 0
DWIDTH 12 0
BBX 11 11 0 0
BITMAP
1080
1080
20A0
2FE0
2080
6880
A480
2280
2080
2080
2380
ENDCHAR
STARTCHAR 4ED9
ENCODING 20185
SWIDTH 1000 0
DWIDTH 12 0
BBX 12 11 0 0
BITMAP
1980
1100
2100
3530
6520
A520
A520
2520
2520
27E0
2420
ENDCHAR
STARTCHAR 4EDA
ENCODING 20186
SWIDTH 1000 0
DWIDTH 12 0
BBX 12 11 0 0
BITMAP
0200
0500
0880
1240
6230
B260
2240
2240
2240
3FC0
2040
ENDCHAR
STARTCHAR 4EDD
ENCODING 20189
SWIDTH 1000 0
DWIDTH 12 0
BBX 11 10 1 1
BITMAP
0400
0A00
1100
10C0
20E0
FF80
0400
0400
0440
7FE0
ENDCHAR
STARTCHAR 4EDE
ENCODING 20190
SWIDTH 1000 0
DWIDTH 12 0
BBX 11 11 0 0
BITMAP
1820
1FE0
2120
2120
3520
6520
A920
2220
2220
2420
29C0
ENDCHAR
STARTCHAR 4EDF
ENCODING 20191
SWIDTH 1000 0
DWIDTH 12 0
BBX 12 11 0 0
BITMAP
1040
13A0
2D00
2100
2120
6FF0
A100
2100
2100
2100
2100
ENDCHAR
STARTCHAR 4EE1
ENCODING 20193
SWIDTH 1000 0
DWIDTH 12 0
BBX 11 11 0 0
BITMAP
1200
1420
27E0
2400
2880
7780
A080
A100
2220
2420
27E0
ENDCHAR
STARTCHAR 4EE3
ENCODING 20195
SWIDTH 1000 0
DWIDTH 12 0
BBX 11 11 0 -1
BITMAP
1400
1280
2240
2220
23C0
7E00
A200
2120
2120
20A0
2060
ENDCHAR
STARTCHAR 4EE4
ENCODING 20196
SWIDTH 1000 0
DWIDTH 12 0
BBX 11 11 0 0
BITMAP
0600
0600
0900
1280
3F60
C000
3F80
0480
0480
0580
0400
ENDCHAR
STARTCHAR 4EE5
ENCODING 20197
SWIDTH 1000 0
DWIDTH 12 0
BBX 10 10 1 0
BITMAP
5180
4900
4500
4100
4100
4500
5980
6240
8440
1800
ENDCHAR
STARTCHAR 4EEB
ENCODING 20203
SWIDTH 1000 0
DWIDTH 12 0
BBX 11 11 0 -1
BITMAP
1800
1180
2200
2200
3500
6980
A100
2280
2440
2FA0
2820
ENDCHAR
STARTCHAR 4EED
ENCODING 20205
SWIDTH 1000 0
DWIDTH 12 0
BBX 11 11 0 0
BITMAP
1040
2FC0
2240
2A40
2640
6240
A340
24C0
2460
2880
3380
ENDCHAR
STARTCHAR 4EEE
ENCODING 20206
SWIDTH 1000 0
DWIDTH 12 0
BBX 12 11 0 -1
BITMAP
1020
27F0
2400
2400
27E0
6620
A540
2540
2480
2940
3630
ENDCHAR
STARTCHAR 4EF0
ENCODING 20208
SWIDTH 1000 0
DWIDTH 12 0
BBX 11 11 0 0
BITMAP
3220
2DE0
2920
2920
2920
6920
A920
2B20
3D60
3100
2100
ENDCHAR
STARTCHAR 4EF1
ENCODING 20209
SWIDTH 1000 0
DWIDTH 12 0
BBX 12 11 0 -1
BITMAP
1100
1280
2240
24E0
2FB0
6000
AFC0
2040
2080
2080
2100
ENDCHAR
STARTCHAR 4EF2
ENCODING 20210
SWIDTH 1000 0
DWIDTH 12 0
BBX 11 11 0 -1
BITMAP
1100
2100
2120
2FE0
2920
6920
AFE0
2900
2100
2100
2100
ENDCHAR
STARTCHAR 4EF5
ENCODING 20213
SWIDTH 1000 0
DWIDTH 12 0
BBX 11 11 0 0
BITMAP
1600
2440
27E0
2900
2900
6120
AFE0
2100
2100
2100
2100
ENDCHAR
STARTCHAR 4EF6
ENCODING 20214
SWIDTH 1000 0
DWIDTH 12 0
BBX 12 11 0 0
BITMAP
1180
1500
2520
27E0
2900
6900
B120
AFF0
2100
2100
2100
ENDCHAR
STARTCHAR 4EF7
ENCODING 20215
SWIDTH 1000 0
DWIDTH 12 0
BBX 11 11 0 -2
BITMAP
1100
1300
2280
2440
2820
74C0
A480
2480
2480
2880
2880
ENDCHAR
STARTCHAR 4EFB
ENCODING 20219
SWIDTH 1000 0
DWIDTH 12 0
BBX 12 10 0 0
BITMAP
1060
1380
2D00
2100
6120
AFF0
2100
2100
2FE0
2000
ENDCHAR
STARTCHAR 4EFC
ENCODING 20220
SWIDTH 1000 0
DWIDTH 12 0
BBX 11 11 0 0
BITMAP
1020
1FE0
2100
2100
2100
6140
AFE0
2100
2100
2FE0
2000
ENDCHAR
STARTCHAR 4EFD
ENCODING 20221
SWIDTH 1000 0
DWIDTH 12 0
BBX 12 11 0 -1
BITMAP
1080
1380
2280
2440
2420
6FF0
B240
2240
2240
2440
2B80
ENDCHAR
STARTCHAR 4EFF
ENCODING 20223
SWIDTH 1000 0
DWIDTH 12 0
BBX 12 11 0 0
BITMAP
1180
1120
2FF0
2200
2240
63E0
A220
2220
2420
2440
2BC0
ENDCHAR
STARTCHAR 4F00
ENCODING 20224
SWIDTH 1000 0
DWIDTH 12 0
BBX 11 11 0 -1
BITMAP
1880
1380
2480
2680
3440
6920
B220
2280
2440
23A0
2C20
ENDCHAR
STARTCHAR 4F01
ENCODING 20225
SWIDTH 1000 0
DWIDTH 12 0
BBX 11 10 1 1
BITMAP
0C00
0A00
1100
26C0
4420
A480
2780
2400
2440
FFE0
ENDCHAR
STARTCHAR 4F03
ENCODING 20227
SWIDTH 1000 0
DWIDTH 12 0
BBX 11 11 0 -1
BITMAP
1040
17C0
2040
2780
30A0
6FE0
A120
2140
2100
2100
2700
ENDCHAR
STARTCHAR 4F09
ENCODING 20233
SWIDTH 1000 0
DWIDTH 12 0
BBX 11 12 0 -1
BITMAP
1100
1120
2FE0
2000
3380
6280
A280
2280
22A0
24A0
28E0
1000
ENDCHAR
STARTCHAR 4F0A
ENCODING 20234
SWIDTH 1000 0
DWIDTH 12 0
BBX 12 11 0 0
BITMAP
1040
2FC0
2240
2260
2FF0
6240
AFC0
2240
2200
2400
2800
ENDCHAR
STARTCHAR 4F0B
ENCODING 20235
SWIDTH 1000 0
DWIDTH 12 0
BBX 12 11 0 -1
BITMAP
1080
2FC0
2480
2480
27E0
6640
A640
2980
2880
2940
3630
ENDCHAR
STARTCHAR 4F0D
ENCODING 20237
SWIDTH 1000 0
DWIDTH 12 0
BBX 12 10 0 0
BITMAP
1020
2FE0
2200
2200
6FC0
A240
2240
2460
3FF0
2000
ENDCHAR
STARTCHAR 4F0E
ENCODING 20238
SWIDTH 1000 0
DWIDTH 12 0
BBX 12 11 0 0
BITMAP
1180
1120
2FF0
2100
2140
6FE0
A440
2280
2180
22C0
2C30
ENDCHAR
STARTCHAR 4F0F
ENCODING 20239
SWIDTH 1000 0
DWIDTH 12 0
BBX 11 11 0 -1
BITMAP
1300
1280
2240
2240
2FE0
6200
A300
2500
2480
2840
3020
ENDCHAR
STARTCHAR 4F10
ENCODING 20240
SWIDTH 1000 0
DWIDTH 12 0
BBX 11 11 0 -1
BITMAP
1C00
1280
2240
2220
3FC0
6240
A280
2120
21A0
2660
3820
ENDCHAR
STARTCHAR 4F11
ENCODING 20241
SWIDTH 1000 0
DWIDTH 12 0
BBX 12 11 0 0
BITMAP
1980
1100
2120
2FF0
2100
6380
A540
2520
2930
3100
2100
ENDCHAR
STARTCHAR 4F16
ENCODING 20246
SWIDTH 1000 0
DWIDTH 12 0
BBX 12 11 0 0
BITMAP
1300
1220
2FF0
2200
2240
63E0
A640
A540
2480
2940
3630
ENDCHAR
STARTCHAR 4F1A
ENCODING 20250
SWIDTH 1000 0
DWIDTH 12 0
BBX 10 12 1 -1
BITMAP
0C00
0C00
1300
2180
7FC0
8040
0080
FFC0
1000
1300
2180
DE40
ENDCHAR
STARTCHAR 4F1C
ENCODING 20252
SWIDTH 1000 0
DWIDTH 12 0
BBX 11 11 0 -1
BITMAP
1300
1280
2F80
2280
22E0
6D00
A120
3FE0
2100
2100
2100
ENDCHAR
STARTCHAR 4F1D
ENCODING 20253
SWIDTH 1000 0
DWIDTH 12 0
BBX 12 10 0 0
BITMAP
1840
1FE0
2000
3020
6FF0
A200
A280
2440
24E0
2B20
ENDCHAR
STARTCHAR 4F2F
ENCODING 20271
SWIDTH 1000 0
DWIDTH 12 0
BBX 11 11 0 -1
BITMAP
1100
1180
2120
27E0
3420
6420
A7E0
2420
2420
27E0
2420
ENDCHAR
STARTCHAR 4F30
ENCODING 20272
SWIDTH 1000 0
DWIDTH 12 0
BBX 11 11 0 -1
BITMAP
1900
1100
1120
2FE0
3100
6100
A7C0
2440
2440
27C0
2440
ENDCHAR
STARTCHAR 4F34
ENCODING 20276
SWIDTH 1000 0
DWIDTH 12 0
BBX 12 11 0 -1
BITMAP
2000
19A0
2540
2540
31A0
6FE0
A100
2FF0
2100
2100
2100
ENDCHAR
STARTCHAR 4F36
ENCODING 20278
SWIDTH 1000 0
DWIDTH 12 0
BBX 11 11 0 -1
BITMAP
1100
1300
2280
2580
2FE0
7020
AFC0
A240
2240
22C0
2200
ENDCHAR
STARTCHAR 4F37
ENCODING 20279
SWIDTH 1000 0
DWIDTH 12 0
BBX 11 11 0 -1
BITMAP
1100
1900
1120
27E0
3520
6520
A7E0
2520
2520
27E0
2420
ENDCHAR
STARTCHAR 4F38
ENCODING 20280
SWIDTH 1000 0
DWIDTH 12 0
BBX 11 11 0 0
BITMAP
1100
2120
2FE0
2920
2920
6FE0
A920
2FE0
2100
2100
2100
ENDCHAR
STARTCHAR 4F39
ENCODING 20281
SWIDTH 1000 0
DWIDTH 12 0
BBX 12 11 0 -1
BITMAP
1040
17C0
2440
2440
27C0
6440
A440
27C0
2440
3FF0
2000
ENDCHAR
STARTCHAR 4F3A
ENCODING 20282
SWIDTH 1000 0
DWIDTH 12 0
BBX 11 11 0 0
BITMAP
1020
1FE0
2020
2FA0
3020
67A0
A520
2720
2420
2020
20E0
ENDCHAR
STARTCHAR 4F3C
ENCODING 20284
SWIDTH 1000 0
DWIDTH 12 0
BBX 11 11 0 -1
BITMAP
1800
1460
2640
2540
3540
6440
A440
2780
2CC0
3120
2220
ENDCHAR
STARTCHAR 4F3D
ENCODING 20285
SWIDTH 1000 0
DWIDTH 12 0
BBX 11 11 0 -1
BITMAP
1400
1420
24E0
3EA0
26A0
66A0
A6A0
26A0
2AE0
2EA0
3280
ENDCHAR
STARTCHAR 4F3E
ENCODING 20286
SWIDTH 1000 0
DWIDTH 12 0
BBX 12 11 0 0
BITMAP
1020
1FE0
2100
2100
2380
6540
A920
2100
2100
2FF0
2000
ENDCHAR
STARTCHAR 4F43
ENCODING 20291
SWIDTH 1000 0
DWIDTH 12 0
BBX 11 11 0 0
BITMAP
1020
2FE0
2920
2920
2920
EFE0
A920
2920
2920
2FE0
2820
ENDCHAR
STARTCHAR 4F46
ENCODING 20294
SWIDTH 1000 0
DWIDTH 12 0
BBX 11 11 0 0
BITMAP
1040
17C0
2440
2440
67C0
6440
A440
27C0
2440
2FE0
2000
ENDCHAR
STARTCHAR 4F47
ENCODING 20295
SWIDTH 1000 0
DWIDTH 12 0
BBX 12 11 0 0
BITMAP
1100
2920
27E0
2820
2060
6FF0
A100
2100
2100
2100
2700
ENDCHAR
STARTCHAR 4F48
ENCODING 20296
SWIDTH 1000 0
DWIDTH 12 0
BBX 12 11 0 0
BITMAP
1300
1220
2FF0
2580
2500
67E0
AD20
3520
25E0
2100
2100
ENDCHAR
STARTCHAR 4F49
ENCODING 20297
SWIDTH 1000 0
DWIDTH 12 0
BBX 12 11 0 0
BITMAP
1100
1120
2FE0
2100
2120
EFF0
A100
2280
2460
2FF0
3010
ENDCHAR
STARTCHAR 4F4D
ENCODING 20301
SWIDTH 1000 0
DWIDTH 12 0
BBX 12 11 0 -1
BITMAP
1200
1180
2120
2FF0
2040
6460
A440
2280
22A0
3FF0
2000
ENDCHAR
STARTCHAR 4F4E
ENCODING 20302
SWIDTH 1000 0
DWIDTH 12 0
BBX 12 11 0 0
BITMAP
1860
1780
2480
34A0
67F0
A480
A480
2550
2A50
27F0
2030
ENDCHAR
STARTCHAR 4F4F
ENCODING 20303
SWIDTH 1000 0
DWIDTH 12 0
BBX 12 11 0 -1
BITMAP
1200
1100
2020
2FE0
2100
6140
AFE0
2100
2120
2FF0
2000
ENDCHAR
STARTCHAR 4F50
ENCODING 20304
SWIDTH 1000 0
DWIDTH 12 0
BBX 11 11 0 -1
BITMAP
1200
1400
2420
2FE0
2400
6440
A7E0
A900
2900
37E0
2000
ENDCHAR
STARTCHAR 4F51
ENCODING 20305
SWIDTH 1000 0
DWIDTH 12 0
BBX 11 11 0 0
BITMAP
1900
1120
2FE0
2200
3200
6240
A7C0
A640
3A40
23C0
2240
ENDCHAR
STARTCHAR 4F53
ENCODING 20307
SWIDTH 1000 0
DWIDTH 12 0
BBX 11 11 0 -1
BITMAP
1300
1200
2240
2FE0
6300
A680
2AC0
2FE0
3200
2200
2200
ENDCHAR
STARTCHAR 4F54
ENCODING 20308
SWIDTH 1000 0
DWIDTH 12 0
BBX 12 11 0 -1
BITMAP
1900
1100
1120
21F0
3100
6100
A7E0
2420
2420
27E0
2420
ENDCHAR
STARTCHAR 4F55
ENCODING 20309
SWIDTH 1000 0
DWIDTH 12 0
BBX 11 11 0 -1
BITMAP
2000
3020
2FE0
2040
2F40
6940
A940
2F40
2040
2040
21C0
ENDCHAR
STARTCHAR 4F56
ENCODING 20310
SWIDTH 1000 0
DWIDTH 12 0
BBX 12 11 0 -1
BITMAP
1000
1640
2160
2340
22C0
6AA0
AB10
2A10
2A40
2E40
33E0
ENDCHAR
STARTCHAR 4F57
ENCODING 20311
SWIDTH 1000 0
DWIDTH 12 0
BBX 11 11 0 -1
BITMAP
1980
1920
27E0
2820
3A00
6260
A280
2300
2220
2220
23E0
ENDCHAR
STARTCHAR 4F58
ENCODING 20312
SWIDTH 1000 0
DWIDTH 12 0
BBX 11 11 1 -1
BITMAP
0400
0C00
1200
1300
7FC0
8020
7FC0
2600
3580
4440
9C00
ENDCHAR
STARTCHAR 4F59
ENCODING 20313
SWIDTH 1000 0
DWIDTH 12 0
BBX 12 11 0 -1
BITMAP
0200
0600
0900
1180
2FE0
C210
3FE0
1300
1AC0
2220
4E00
ENDCHAR
STARTCHAR 4F5A
ENCODING 20314
SWIDTH 1000 0
DWIDTH 12 0
BBX 12 11 0 -1
BITMAP
1180
1500
2520
27E0
2900
7120
AFF0
A100
2280
2240
2C30
ENDCHAR
STARTCHAR 4F5B
ENCODING 20315
SWIDTH 1000 0
DWIDTH 12 0
BBX 11 11 0 -1
BITMAP
1300
2380
2FC0
2340
2FC0
6B00
AFE0
2B20
2340
25C0
2900
ENDCHAR
STARTCHAR 4F5C
ENCODING 20316
SWIDTH 1000 0
DWIDTH 12 0
BBX 11 11 0 0
BITMAP
1400
1820
27E0
2A00
6A40
73E0
A200
23E0
2200
2200
2200
ENDCHAR
STARTCHAR 4F5D
ENCODING 20317
SWIDTH 1000 0
DWIDTH 12 0
BBX 11 11 0 0
BITMAP
1600
2440
27E0
2820
2FA0
74A0
A4A0
27A0
2020
2040
21C0
ENDCHAR
STARTCHAR 4F5E
ENCODING 20318
SWIDTH 1000 0
DWIDTH 12 0
BBX 12 12 0 -1
BITMAP
1040
17C0
2000
2FE0
3200
6FF0
A240
2480
2780
2140
2620
0800
ENDCHAR
STARTCHAR 4F5F
ENCODING 20319
SWIDTH 1000 0
DWIDTH 12 0
BBX 12 11 0 -1
BITMAP
1100
1240
13C0
2640
2A80
7180
A240
2D30
20A0
2140
2600
ENDCHAR
STARTCHAR 4F60
ENCODING 20320
SWIDTH 1000 0
DWIDTH 12 0
BBX 11 11 0 0
BITMAP
1400
2420
27E0
2920
2940
6540
A940
2920
2920
2100
2700
ENDCHAR
STARTCHAR 4F64
ENCODING 20324
SWIDTH 1000 0
DWIDTH 12 0
BBX 11 11 0 -1
BITMAP
1040
2FE0
2400
2780
2480
6480
A680
26A0
24A0
2B60
3420
ENDCHAR
STARTCHAR 4F69
ENCODING 20329
SWIDTH 1000 0
DWIDTH 12 0
BBX 11 11 0 -2
BITMAP
1040
2FC0
2940
2FC0
2FC0
6EC0
AEC0
2EE0
2FE0
3220
3220
ENDCHAR
STARTCHAR 4F6A
ENCODING 20330
SWIDTH 1000 0
DWIDTH 12 0
BBX 11 11 0 0
BITMAP
1020
2FE0
2820
2BA0
2AA0
6AA0
AAA0
2BA0
2820
2FE0
2820
ENDCHAR
STARTCHAR 4F6C
ENCODING 20332
SWIDTH 1000 0
DWIDTH 12 0
BBX 11 11 0 0
BITMAP
1200
12E0
2FC0
2280
3FE0
6100
A240
2E80
3320
2220
23E0
ENDCHAR
STARTCHAR 4F6F
ENCODING 20335
SWIDTH 1000 0
DWIDTH 12 0
BBX 12 11 0 -1
BITMAP
1880
1640
12A0
2FE0
2100
6FE0
A100
2FF0
2100
2100
2100
ENDCHAR
STARTCHAR 4F70
ENCODING 20336
SWIDTH 1000 0
DWIDTH 12 0
BBX 11 11 0 0
BITMAP
1040
1FE0
2100
2200
27C0
6440
A7C0
2440
2440
27C0
2440
ENDCHAR
STARTCHAR 4F73
ENCODING 20339
SWIDTH 1000 0
DWIDTH 12 0
BBX 12 11 0 0
BITMAP
1180
1120
2FE0
2100
6120
AFF0
2FE0
2100
2120
2FF0
2000
ENDCHAR
STARTCHAR 4F75
ENCODING 20341
SWIDTH 1000 0
DWIDTH 12 0
BBX 11 11 0 -1
BITMAP
1480
12C0
2320
2FE0
3280
62A0
AFE0
A280
2280
2480
2880
ENDCHAR
STARTCHAR 4F76
ENCODING 20342
SWIDTH 1000 0
DWIDTH 12 0
BBX 11 11 0 0
BITMAP
1900
1120
2FE0
2100
2140
6FE0
A000
27C0
2440
27C0
2440
ENDCHAR
STARTCHAR 4F77
ENCODING 20343
SWIDTH 1000 0
DWIDTH 12 0
BBX 12 11 0 -1
BITMAP
1040
17C0
2440
27C0
2440
67C0
A520
2540
2480
2740
2830
ENDCHAR
STARTCHAR 4F78
ENCODING 20344
SWIDTH 1000 0
DWIDTH 12 0
BBX 11 11 0 -1
BITMAP
1880
1340
1D00
2120
3FE0
2100
E100
A7C0
2440
27C0
2440
ENDCHAR
STARTCHAR 4F7A
ENCODING 20346
SWIDTH 1000 0
DWIDTH 12 0
BBX 12 11 0 -1
BITMAP
2200
1700
3300
24E0
6FF0
B100
27C0
2100
2120
2FE0
2000
ENDCHAR
STARTCHAR 4F7B
ENCODING 20347
SWIDTH 1000 0
DWIDTH 12 0
BBX 11 11 0 -1
BITMAP
1380
1300
2320
2B40
3780
6380
AF40
3320
2520
2520
29E0
ENDCHAR
STARTCHAR 4F7C
ENCODING 20348
SWIDTH 1000 0
DWIDTH 12 0
BBX 12 11 0 0
BITMAP
1180
1120
2FF0
2480
2640
68A0
B2C0
2280
2180
2240
2C30
ENDCHAR
STARTCHAR 4F7D
ENCODING 20349
SWIDTH 1000 0
DWIDTH 12 0
BBX 11 11 0 0
BITMAP
1100
1120
25E0
2EA0
22C0
62C0
A380
2540
3940
2220
2420
ENDCHAR
STARTCHAR 4F7E
ENCODING 20350
SWIDTH 1000 0
DWIDTH 12 0
BBX 12 11 0 -2
BITMAP
2100
1380
1280
2460
2FD0
6440
A7C0
27C0
2440
2840
29C0
ENDCHAR
STARTCHAR 4F7F
ENCODING 20351
SWIDTH 1000 0
DWIDTH 12 0
BBX 11 12 0 -2
BITMAP
1100
2140
3FE0
2100
2FC0
6940
AFC0
2500
2300
2280
2C60
1000
ENDCHAR
STARTCHAR 4F82
ENCODING 20354
SWIDTH 1000 0
DWIDTH 12 0
BBX 12 11 0 -2
BITMAP
1100
2120
2FF0
2800
29C0
6F00
A920
2FD0
2920
3120
31F0
ENDCHAR
STARTCHAR 4F83
ENCODING 20355
SWIDTH 1000 0
DWIDTH 12 0
BBX 12 12 0 -2
BITMAP
1040
17C0
2440
2440
37C0
6000
A740
2640
2660
2A60
2870
1000
ENDCHAR
STARTCHAR 4F85
ENCODING 20357
SWIDTH 1000 0
DWIDTH 12 0
BBX 12 11 0 -1
BITMAP
1980
1120
2FF0
2100
3240
6C80
A320
2240
2C80
2140
2E20
ENDCHAR
STARTCHAR 4F86
ENCODING 20358
SWIDTH 1000 0
DWIDTH 12 0
BBX 11 11 1 0
BITMAP
0600
0440
FFE0
0400
2580
6580
5E40
9500
2480
4460
8400
ENDCHAR
STARTCHAR 4F88
ENCODING 20360
SWIDTH 1000 0
DWIDTH 12 0
BBX 12 11 0 0
BITMAP
1140
13E0
2240
2D80
3100
6280
A5F0
AA20
2540
2880
2700
ENDCHAR
STARTCHAR 4F8A
ENCODING 20362
SWIDTH 1000 0
DWIDTH 12 0
BBX 12 11 0 0
BITMAP
1100
1920
2540
2540
2120
6FF0
A280
2280
24A0
24A0
28F0
ENDCHAR
STARTCHAR 4F8B
ENCODING 20363
SWIDTH 1000 0
DWIDTH 12 0
BBX 11 11 0 0
BITMAP
1220
2F20
24A0
26A0
27A0
6AA0
AEA0
32A0
2420
2820
30E0
ENDCHAR
STARTCHAR 4F8D
ENCODING 20365
SWIDTH 1000 0
DWIDTH 12 0
BBX 11 11 0 -1
BITMAP
1900
1140
2FC0
2100
2FE0
6080
AFE0
2480
2280
2080
2380
ENDCHAR
STARTCHAR 4F8F
ENCODING 20367
SWIDTH 1000 0
DWIDTH 12 0
BBX 12 11 0 -1
BITMAP
2180
1500
2540
27E0
2900
6FE0
A380
2380
2540
2930
3100
ENDCHAR
STARTCHAR 4F91
ENCODING 20369
SWIDTH 1000 0
DWIDTH 12 0
BBX 11 11 0 0
BITMAP
1900
1120
2FE0
2200
33C0
6640
ABC0
23C0
2240
2240
22C0
ENDCHAR
STARTCHAR 4F92
ENCODING 20370
SWIDTH 1000 0
DWIDTH 12 0
BBX 12 11 0 0
BITMAP
1180
1120
27F0
2A20
2B20
6FF0
A440
A480
2A80
2140
2620
ENDCHAR
STARTCHAR 4F94
ENCODING 20372
SWIDTH 1000 0
DWIDTH 12 0
BBX 11 11 0 -1
BITMAP
1200
1300
2440
2FA0
2900
6540
AFE0
2FE0
2100
2100
2100
ENDCHAR
STARTCHAR 4F96
ENCODING 20374
SWIDTH 1000 0
DWIDTH 12 0
BBX 12 11 0 -1
BITMAP
0400
0400
0A00
1380
6F40
BFF0
2A40
3FC0
2A40
2A40
2BC0
ENDCHAR
STARTCHAR 4F97
ENCODING 20375
SWIDTH 1000 0
DWIDTH 12 0
BBX 11 11 0 -1
BITMAP
1020
2FE0
2820
2FE0
2820
6BA0
AAA0
2BA0
2A20
2820
28E0
ENDCHAR
STARTCHAR 4F98
ENCODING 20376
SWIDTH 1000 0
DWIDTH 12 0
BBX 12 11 0 -1
BITMAP
1180
2120
2FF0
2820
31C0
6E00
A220
2FD0
2220
2220
23F0
ENDCHAR
STARTCHAR 4F9A
ENCODING 20378
SWIDTH 1000 0
DWIDTH 12 0
BBX 11 11 0 0
BITMAP
1200
1440
27E0
2820
2FA0
74A0
A7A0
27A0
2420
2020
21C0
ENDCHAR
STARTCHAR 4F9B
ENCODING 20379
SWIDTH 1000 0
DWIDTH 12 0
BBX 12 11 0 -1
BITMAP
14C0
1480
24A0
2FE0
2480
2480
E4A0
BFF0
2500
26C0
3820
ENDCHAR
STARTCHAR 4F9D
ENCODING 20381
SWIDTH 1000 0
DWIDTH 12 0
BBX 12 10 0 0
BITMAP
1180
1120
2FF0
2300
7320
A6D0
AA80
3240
23A0
2C30
ENDCHAR
STARTCHAR 4FA0
ENCODING 20384
SWIDTH 1000 0
DWIDTH 12 0
BBX 11 11 0 0
BITMAP
1300
2240
2FE0
3280
2AC0
6B40
BFE0
A200
2500
24C0
3820
ENDCHAR
STARTCHAR 4FA1
ENCODING 20385
SWIDTH 1000 0
DWIDTH 12 0
BBX 12 11 0 0
BITMAP
1020
2FF0
2280
2280
2FE0
6AA0
AAA0
2AA0
2AA0
2FE0
2820
ENDCHAR
STARTCHAR 4FAB
ENCODING 20395
SWIDTH 1000 0
DWIDTH 12 0
BBX 12 11 0 -1
BITMAP
1100
2120
2FE0
2800
2FE0
6220
BFF0
2440
2480
2B80
2660
ENDCHAR
STARTCHAR 4FAD
ENCODING 20397
SWIDTH 1000 0
DWIDTH 12 0
BBX 11 11 0 0
BITMAP
1040
17C0
2440
2440
27C0
6500
A680
2580
2C40
3320
2100
ENDCHAR
STARTCHAR 4FAE
ENCODING 20398
SWIDTH 1000 0
DWIDTH 12 0
BBX 11 11 0 -2
BITMAP
1400
1440
27E0
2FC0
3540
6560
AFE0
2A40
27E0
2840
2180
ENDCHAR
STARTCHAR 4FAF
ENCODING 20399
SWIDTH 1000 0
DWIDTH 12 0
BBX 12 11 0 -1
BITMAP
1080
17C0
2040
2FF0
3400
67E0
A900
2FF0
2180
2240
2C30
ENDCHAR
STARTCHAR 4FB2
ENCODING 20402
SWIDTH 1000 0
DWIDTH 12 0
BBX 12 11 0 -1
BITMAP
1020
2FE0
2800
2FE0
2800
6FE0
AAA0
AAC0
2A40
32A0
3D30
ENDCHAR
STARTCHAR 4FB5
ENCODING 20405
SWIDTH 1000 0
DWIDTH 12 0
BBX 12 11 0 -2
BITMAP
2040
17C0
27C0
2040
2FA0
6FE0
BFC0
2480
2300
2380
2C70
ENDCHAR
STARTCHAR 4FB6
ENCODING 20406
SWIDTH 1000 0
DWIDTH 12 0
BBX 11 11 0 -1
BITMAP
1840
17E0
2440
2440
37C0
6100
A7E0
2420
2420
27E0
2420
ENDCHAR
STARTCHAR 4FBE
ENCODING 20414
SWIDTH 1000 0
DWIDTH 12 0
BBX 12 11 0 -1
BITMAP
1200
12E0
2FC0
2280
2FF0
63C0
AD00
3FF0
2100
2100
2700
ENDCHAR
STARTCHAR 4FBF
ENCODING 20415
SWIDTH 1000 0
DWIDTH 12 0
BBX 12 12 0 -2
BITMAP
1020
2FF0
2100
2FE0
2FE0
6920
AFE0
2500
2200
2380
2C70
1000
ENDCHAR
STARTCHAR 4FC2
ENCODING 20418
SWIDTH 1000 0
DWIDTH 12 0
BBX 12 11 0 -1
BITMAP
1040
13A0
2D40
2E60
2280
6360
ADD0
2580
2560
2920
3100
ENDCHAR
STARTCHAR 4FC3
ENCODING 20419
SWIDTH 1000 0
DWIDTH 12 0
BBX 11 11 0 -1
BITMAP
1040
17C0
2440
2440
27C0
6100
A540
A5E0
2500
2B00
31E0
ENDCHAR
STARTCHAR 4FC4
ENCODING 20420
SWIDTH 1000 0
DWIDTH 12 0
BBX 11 11 1 -2
BITMAP
4200
4D80
7940
4940
7FE0
C980
CBC0
7C80
49C0
4AC0
7C60
ENDCHAR
STARTCHAR 4FC5
ENCODING 20421
SWIDTH 1000 0
DWIDTH 12 0
BBX 12 11 0 -1
BITMAP
0200
19C0
1160
2FF0
2100
6DB0
A540
2340
2D20
2130
2700
ENDCHAR
STARTCHAR 4FC9
ENCODING 20425
SWIDTH 1000 0
DWIDTH 12 0
BBX 11 11 0 -1
BITMAP
1040
1FE0
2200
2FC0
3280
62A0
AFE0
27C0
2440
27C0
2440
ENDCHAR
STARTCHAR 4FCA
ENCODING 20426
SWIDTH 1000 0
DWIDTH 12 0
BBX 11 12 0 -1
BITMAP
1200
1480
2F40
2540
25E0
EA00
A7C0
2480
2B00
2380
2C60
1000
ENDCHAR
STARTCHAR 4FCB
ENCODING 20427
SWIDTH 1000 0
DWIDTH 12 0
BBX 11 11 0 -1
BITMAP
1080
2780
2440
27C0
2FC0
6940
A940
2FC0
2820
2820
2FE0
ENDCHAR
STARTCHAR 4FCD
ENCODING 20429
SWIDTH 1000 0
DWIDTH 12 0
BBX 11 11 0 -1
BITMAP
1100
1140
27C0
2440
27C0
6440
A7A0
2540
2480
2740
2820
ENDCHAR
STARTCHAR 4FCE
ENCODING 20430
SWIDTH 1000 0
DWIDTH 12 0
BBX 10 10 1 -1
BITMAP
2080
2780
4480
6480
9780
D480
2480
4780
7480
9FC0
ENDCHAR
STARTCHAR 4FCF
ENCODING 20431
SWIDTH 1000 0
DWIDTH 12 0
BBX 11 11 0 -1
BITMAP
2100
1D80
1740
29A0
37C0
67C0
A440
27C0
2440
2440
24C0
ENDCHAR
STARTCHAR 4FD0
ENCODING 20432
SWIDTH 1000 0
DWIDTH 12 0
BBX 11 11 0 0
BITMAP
1320
2CA0
26A0
2FA0
24A0
66A0
ADA0
34A0
2420
2420
24E0
ENDCHAR
STARTCHAR 4FD1
ENCODING 20433
SWIDTH 1000 0
DWIDTH 12 0
BBX 11 11 0 -1
BITMAP
1040
2FC0
2280
2FE0
6920
AFE0
A920
2FE0
2920
2920
29E0
ENDCHAR
STARTCHAR 4FD2
ENCODING 20434
SWIDTH 1000 0
DWIDTH 12 0
BBX 12 12 0 -2
BITMAP
1100
1120
27F0
2820
2FC0
6000
AFE0
A280
24A0
24A0
28F0
1000
ENDCHAR
STARTCHAR 4FD4
ENCODING 20436
SWIDTH 1000 0
DWIDTH 12 0
BBX 11 11 0 -1
BITMAP
1040
17C0
2440
27C0
27C0
E440
A7C0
2280
22A0
24A0
28E0
ENDCHAR
STARTCHAR 4FD7
ENCODING 20439
SWIDTH 1000 0
DWIDTH 12 0
BBX 12 11 0 -1
BITMAP
2000
1280
2440
2920
3280
6440
A860
B7F0
2440
27C0
2440
ENDCHAR
STARTCHAR 4FD8
ENCODING 20440
SWIDTH 1000 0
DWIDTH 12 0
BBX 12 11 0 0
BITMAP
19C0
2640
2920
2940
77E0
A080
A120
3FF0
2100
2100
2700
ENDCHAR
STARTCHAR 4FDA
ENCODING 20442
SWIDTH 1000 0
DWIDTH 12 0
BBX 11 11 0 -1
BITMAP
1040
17C0
2540
27C0
3540
67C0
A500
27C0
2100
2FE0
2000
ENDCHAR
STARTCHAR 4FDB
ENCODING 20443
SWIDTH 1000 0
DWIDTH 12 0
BBX 12 12 0 -1
BITMAP
1300
2780
2500
2FE0
2920
7920
AFE0
2100
2320
2520
29F0
1000
ENDCHAR
STARTCHAR 4FDD
ENCODING 20445
SWIDTH 1000 0
DWIDTH 12 0
BBX 12 11 0 -1
BITMAP
1040
17C0
2440
2440
37C0
6120
AFE0
A380
2540
2930
3100
ENDCHAR
STARTCHAR 4FDF
ENCODING 20447
SWIDTH 1000 0
DWIDTH 12 0
BBX 12 12 0 -2
BITMAP
1100
1280
2440
2FA0
2440
67E0
A900
2FF0
2100
22C0
2430
0800
ENDCHAR
STARTCHAR 4FE0
ENCODING 20448
SWIDTH 1000 0
DWIDTH 12 0
BBX 12 11 0 0
BITMAP
1180
2120
2FF0
2100
2560
6540
ABA0
3180
2280
2460
2810
ENDCHAR
STARTCHAR 4FE1
ENCODING 20449
SWIDTH 1000 0
DWIDTH 12 0
BBX 11 11 0 0
BITMAP
1080
17C0
2020
2FE0
37C0
6080
A7C0
27C0
2440
27C0
2440
ENDCHAR
STARTCHAR 4FE3
ENCODING 20451
SWIDTH 1000 0
DWIDTH 12 0
BBX 12 11 0 -1
BITMAP
1040
17C0
2440
27C0
6020
AFE0
2FF0
2100
2180
2260
2C30
ENDCHAR
STARTCHAR 4FE4
ENCODING 20452
SWIDTH 1000 0
DWIDTH 12 0
BBX 12 11 0 0
BITMAP
1440
12A0
2FE0
2120
2FE0
6900
AFF0
2B20
2520
29E0
3100
ENDCHAR
STARTCHAR 4FE5
ENCODING 20453
SWIDTH 1000 0
DWIDTH 12 0
BBX 11 11 0 -1
BITMAP
1100
2120
2FE0
2FC0
2940
6FC0
AFC0
2120
3FE0
2100
2100
ENDCHAR
STARTCHAR 4FE6
ENCODING 20454
SWIDTH 1000 0
DWIDTH 12 0
BBX 12 11 0 -1
BITMAP
0100
1120
2FF0
27E0
2220
2FF0
E240
AFF0
2540
2840
31C0
ENDCHAR
STARTCHAR 4FEE
ENCODING 20462
SWIDTH 1000 0
DWIDTH 12 0
BBX 12 11 0 -1
BITMAP
0200
1110
23F0
2B40
2C80
6970
AEC0
2F60
2BB0
2040
2380
ENDCHAR
STARTCHAR 4FEF
ENCODING 20463
SWIDTH 1000 0
DWIDTH 12 0
BBX 11 11 0 -2
BITMAP
1100
2120
2FE0
2A40
2A60
2BE0
EA40
2F40
2AC0
3240
32C0
ENDCHAR
STARTCHAR 4FF1
ENCODING 20465
SWIDTH 1000 0
DWIDTH 12 0
BBX 12 11 0 -1
BITMAP
1040
17C0
2440
27C0
27C0
6440
A7C0
3FF0
2400
26C0
2820
ENDCHAR
STARTCHAR 4FF2
ENCODING 20466
SWIDTH 1000 0
DWIDTH 12 0
BBX 11 11 0 0
BITMAP
1480
2680
2E80
2BE0
2AA0
74A0
BEA0
24A0
2720
2920
32C0
ENDCHAR
STARTCHAR 4FF3
ENCODING 20467
SWIDTH 1000 0
DWIDTH 12 0
BBX 12 11 0 -2
BITMAP
2000
1280
22A0
2EF0
6280
AEF0
26F0
3A80
2680
2480
2880
ENDCHAR
STARTCHAR 4FF5
ENCODING 20469
SWIDTH 1000 0
DWIDTH 12 0
BBX 11 11 0 -1
BITMAP
1200
1240
2FE0
2FC0
2240
3FE0
E240
2560
3C80
2540
2A20
ENDCHAR
STARTCHAR 4FF6
ENCODING 20470
SWIDTH 1000 0
DWIDTH 12 0
BBX 12 11 0 0
BITMAP
1420
25F0
2720
24A0
25A0
7FA0
A4C0
BF40
3540
24A0
2F10
ENDCHAR
STARTCHAR 4FF8
ENCODING 20472
SWIDTH 1000 0
DWIDTH 12 0
BBX 12 11 0 -1
BITMAP
2100
11A0
2FE0
2FE0
22A0
7FF0
A5E0
3FD0
2FE0
2100
2100
ENDCHAR
STARTCHAR 4FFA
ENCODING 20474
SWIDTH 1000 0
DWIDTH 12 0
BBX 12 11 0 -1
BITMAP
1200
2420
3FE0
2500
2A80
6FE0
BFD0
2FC0
2A60
2220
23F0
ENDCHAR
STARTCHAR 4FFE
ENCODING 20478
SWIDTH 1000 0
DWIDTH 12 0
BBX 11 11 0 -1
BITMAP
1200
2340
2FC0
2FC0
2A40
EFC0
2540
3FE0
2100
2100
2100
ENDCHAR
STARTCHAR 4FFF
ENCODING 20479
SWIDTH 1000 0
DWIDTH 12 0
BBX 12 11 0 0
BITMAP
1140
21E0
2100
2FF0
29A0
6F60
A9E0
2B80
2A80
32A0
34E0
ENDCHAR
STARTCHAR 5000
ENCODING 20480
SWIDTH 1000 0
DWIDTH 12 0
BBX 12 11 0 -1
BITMAP
2040
17E0
27C0
2440
27C0
6FF0
A520
2540
2480
2540
2A30
ENDCHAR
STARTCHAR 5001
ENCODING 20481
SWIDTH 1000 0
DWIDTH 12 0
BBX 11 11 0 -1
BITMAP
1800
2820
2FE0
34A0
36A0
6FA0
A4A0
26A0
29E0
29A0
3000
ENDCHAR
STARTCHAR 5002
ENCODING 20482
SWIDTH 1000 0
DWIDTH 12 0
BBX 11 11 0 -2
BITMAP
2480
16C0
26C0
2FE0
2480
6680
ADE0
3480
2480
2880
3080
ENDCHAR
STARTCHAR 5005
ENCODING 20485
SWIDTH 1000 0
DWIDTH 12 0
BBX 11 11 0 -1
BITMAP
1300
2240
2FE0
2480
6880
B540
A240
3FE0
2200
2200
2200
ENDCHAR
STARTCHAR 5006
ENCODING 20486
SWIDTH 1000 0
DWIDTH 12 0
BBX 12 11 0 -2
BITMAP
1020
2FF0
2100
2FE0
2FA0
6DA0
ADA0
2BA0
2F60
2920
29E0
ENDCHAR
STARTCHAR 5009
ENCODING 20489
SWIDTH 1000 0
DWIDTH 12 0
BBX 11 11 1 -1
BITMAP
0400
0C00
1700
2CC0
FFA0
3F00
2100
3F80
3080
5F80
9080
ENDCHAR
STARTCHAR 500B
ENCODING 20491
SWIDTH 1000 0
DWIDTH 12 0
BBX 11 11 0 -1
BITMAP
1020
2FE0
2920
29A0
2FE0
6920
AFA0
2FA0
2CA0
2FE0
2820
ENDCHAR
STARTCHAR 500D
ENCODING 20493
SWIDTH 1000 0
DWIDTH 12 0
BBX 12 11 0 -1
BITMAP
1100
1120
2FE0
2440
32A0
6FF0
A000
27C0
2440
27C0
2440
ENDCHAR
STARTCHAR 500E
ENCODING 20494
SWIDTH 1000 0
DWIDTH 12 0
BBX 11 11 0 -1
BITMAP
1280
22C0
2FC0
2AC0
2AC0
6FC0
AAC0
3FE0
2480
2640
3820
ENDCHAR
STARTCHAR 500F
ENCODING 20495
SWIDTH 1000 0
DWIDTH 12 0
BBX 12 11 0 0
BITMAP
1380
23C0
2A40
2D80
29C0
6FB0
A960
2FE0
2980
2240
2430
ENDCHAR
STARTCHAR 5010
ENCODING 20496
SWIDTH 1000 0
DWIDTH 12 0
BBX 12 11 0 -1
BITMAP
1380
23C0
2A40
2D80
2940
6F20
AD40
2D80
2980
2260
2430
ENDCHAR
STARTCHAR 5011
ENCODING 20497
SWIDTH 1000 0
DWIDTH 12 0
BBX 11 11 0 -1
BITMAP
1420
2FE0
2B20
2FE0
2FE0
6820
A820
2820
2820
2820
29E0
ENDCHAR
STARTCHAR 5012
ENCODING 20498
SWIDTH 1000 0
DWIDTH 12 0
BBX 11 11 0 0
BITMAP
1220
2F20
24A0
2AA0
2FA0
64A0
A6A0
AFA0
2720
2820
20E0
ENDCHAR
STARTCHAR 5013
ENCODING 20499
SWIDTH 1000 0
DWIDTH 12 0
BBX 12 12 0 -2
BITMAP
1100
1520
2540
2D00
22C0
6520
AD20
2540
2980
2240
2C30
1000
ENDCHAR
STARTCHAR 5014
ENCODING 20500
SWIDTH 1000 0
DWIDTH 12 0
BBX 11 11 0 -1
BITMAP
1040
17E0
2420
27E0
3480
66E0
A6C0
A7A0
2AA0
2BE0
3220
ENDCHAR
STARTCHAR 5016
ENCODING 20502
SWIDTH 1000 0
DWIDTH 12 0
BBX 12 11 0 -1
BITMAP
1180
1120
2FE0
2100
3FF0
6240
AFF0
2FE0
2100
2100
2100
ENDCHAR
STARTCHAR 5018
ENCODING 20504
SWIDTH 1000 0
DWIDTH 12 0
BBX 12 11 0 -1
BITMAP
1100
2740
2520
2910
2FE0
7BA0
AAA0
2BA0
2AA0
2820
28E0
ENDCHAR
STARTCHAR 5019
ENCODING 20505
SWIDTH 1000 0
DWIDTH 12 0
BBX 10 12 1 -2
BITMAP
4100
4F80
4100
7FC0
6400
EFC0
7FC0
6200
6300
44C0
4840
1000
ENDCHAR
STARTCHAR 501A
ENCODING 20506
SWIDTH 1000 0
DWIDTH 12 0
BBX 12 11 0 0
BITMAP
1940
1FE0
2200
2380
3C60
6FF0
A740
2740
2540
2040
21C0
ENDCHAR
STARTCHAR 501C
ENCODING 20508
SWIDTH 1000 0
DWIDTH 12 0
BBX 11 11 0 -2
BITMAP
1020
2FE0
2920
2BE0
2FE0
6920
ABA0
2BA0
2AA0
3020
30E0
ENDCHAR
STARTCHAR 501E
ENCODING 20510
SWIDTH 1000 0
DWIDTH 12 0
BBX 11 11 0 -1
BITMAP
1100
1120
2FE0
27C0
2440
6440
A7C0
2580
2540
2920
2300
ENDCHAR
STARTCHAR 501F
ENCODING 20511
SWIDTH 1000 0
DWIDTH 12 0
BBX 12 11 0 0
BITMAP
1280
12A0
2FE0
2280
22A0
6FF0
A7C0
27C0
2440
27C0
2440
ENDCHAR
STARTCHAR 5021
ENCODING 20513
SWIDTH 1000 0
DWIDTH 12 0
BBX 11 11 0 -1
BITMAP
1040
27E0
27C0
2440
27C0
6020
AFE0
2FE0
2820
2FE0
2820
ENDCHAR
STARTCHAR 5022
ENCODING 20514
SWIDTH 1000 0
DWIDTH 12 0
BBX 12 11 0 -2
BITMAP
2000
1120
2FE0
27C0
2FF0
E140
AFC0
29E0
2500
2B00
31F0
ENDCHAR
STARTCHAR 5023
ENCODING 20515
SWIDTH 1000 0
DWIDTH 12 0
BBX 11 11 0 0
BITMAP
1980
2B00
1F20
29E0
2940
2F40
6EC0
ACC0
2CC0
3520
3E20
ENDCHAR
STARTCHAR 5024
ENCODING 20516
SWIDTH 1000 0
DWIDTH 12 0
BBX 11 11 0 -1
BITMAP
2100
3120
2FE0
23C0
2A40
6BC0
ABC0
2BC0
2A40
2FE0
2800
ENDCHAR
STARTCHAR 5025
ENCODING 20517
SWIDTH 1000 0
DWIDTH 12 0
BBX 11 11 0 -1
BITMAP
1100
2140
27E0
2B40
2D40
65E0
B840
2FC0
2100
2FE0
2000
ENDCHAR
STARTCHAR 5026
ENCODING 20518
SWIDTH 1000 0
DWIDTH 12 0
BBX 11 11 0 -1
BITMAP
2100
3680
2A40
2FE0
2FE0
E480
A7C0
3CA0
2480
2540
27C0
ENDCHAR
STARTCHAR 5027
ENCODING 20519
SWIDTH 1000 0
DWIDTH 12 0
BBX 12 11 0 -1
BITMAP
1100
1120
27F0
2840
27C0
6040
AFE0
A100
2540
2920
2700
ENDCHAR
STARTCHAR 5028
ENCODING 20520
SWIDTH 1000 0
DWIDTH 12 0
BBX 12 11 0 -2
BITMAP
1040
1FE0
2420
27E0
3500
E7F0
A500
27E0
2C20
2FE0
3420
ENDCHAR
STARTCHAR 5029
ENCODING 20521
SWIDTH 1000 0
DWIDTH 12 0
BBX 11 11 0 0
BITMAP
1140
1FE0
2140
27C0
7FE0
67C0
A540
27C0
2440
2440
24C0
ENDCHAR
STARTCHAR 502A
ENCODING 20522
SWIDTH 1000 0
DWIDTH 12 0
BBX 11 12 0 -1
BITMAP
3240
2DC0
2840
2FC0
2840
6840
AFC0
2500
2520
2520
29E0
1000
ENDCHAR
STARTCHAR 502B
ENCODING 20523
SWIDTH 1000 0
DWIDTH 12 0
BBX 11 11 0 -2
BITMAP
2200
1200
2500
29C0
33A0
6FC0
AB40
2FC0
2B40
2B40
2BC0
ENDCHAR
STARTCHAR 502C
ENCODING 20524
SWIDTH 1000 0
DWIDTH 12 0
BBX 11 11 0 -1
BITMAP
2400
3340
23E0
2FC0
2840
6FC0
AFC0
3FE0
2100
2100
2100
ENDCHAR
STARTCHAR 502D
ENCODING 20525
SWIDTH 1000 0
DWIDTH 12 0
BBX 12 12 0 -1
BITMAP
13E0
2D20
2FF0
2380
2560
F910
A220
2FF0
2440
2B80
2260
0C00
ENDCHAR
STARTCHAR 502E
ENCODING 20526
SWIDTH 1000 0
DWIDTH 12 0
BBX 11 11 0 -1
BITMAP
1840
17C0
1540
27C0
3540
63A0
AFE0
2180
2740
2920
2100
ENDCHAR
STARTCHAR 5036
ENCODING 20534
SWIDTH 1000 0
DWIDTH 12 0
BBX 12 11 0 -1
BITMAP
1080
17C0
2440
27C0
27C0
6440
A7C0
2FF0
2400
26C0
2820
ENDCHAR
ENDFONT
